<?xml version="1.0" encoding="UTF-8"?>
<svg version="1.1" xmlns="http://www.w3.org/2000/svg" width="512" height="512">
<path d="M0 0 C1.22095871 -0.0071553 2.44191742 -0.01431061 3.69987488 -0.02168274 C5.05006383 -0.0245228 6.40025306 -0.02723455 7.7504425 -0.02983093 C9.17483688 -0.03609869 10.59922963 -0.04274577 12.02362061 -0.04974365 C16.69858163 -0.07075114 21.37354286 -0.08114366 26.04853821 -0.09111023 C27.66051055 -0.09515917 29.27248273 -0.09927613 30.88445473 -0.10346031 C38.45940609 -0.12250554 46.03434775 -0.13673738 53.60931844 -0.14507228 C62.34077105 -0.15483939 71.07196979 -0.18114783 79.80333298 -0.22157317 C86.56018842 -0.25177847 93.31697127 -0.26654537 100.07389289 -0.26985329 C104.10567838 -0.27219894 108.13719246 -0.28109569 112.16890526 -0.30631447 C115.96520625 -0.32967749 119.76105871 -0.33379574 123.5574131 -0.32355309 C124.9452883 -0.32305959 126.33318621 -0.32932489 127.72099304 -0.34310913 C139.05864606 -0.44935419 146.85665964 1.42905861 155.24385071 9.21357727 C161.54612695 16.01014969 163.18418182 21.88822976 163.19795227 31.00166321 C163.20291718 31.78918976 163.20788208 32.57671631 163.21299744 33.3881073 C163.22758602 35.99009582 163.2344161 38.59202334 163.23994446 41.19404602 C163.24569931 43.00762432 163.251457 44.8212026 163.25721741 46.63478088 C163.26771847 50.43774193 163.27356677 54.2406819 163.27705383 58.0436554 C163.28253194 62.9035438 163.30654911 67.76315111 163.33502579 72.62295151 C163.35370221 76.37030333 163.35886046 80.11758818 163.36038971 83.8649826 C163.36340626 85.65584599 163.3714009 87.44670847 163.38457489 89.23752594 C163.40173787 91.75026469 163.39973024 94.26232622 163.39326477 96.77510071 C163.40247955 97.50681488 163.41169434 98.23852905 163.42118835 98.99241638 C163.34786068 108.14564588 159.66083615 114.3493776 153.45478821 120.94013977 C147.98089894 125.93650073 141.84354619 128.27698719 134.46382141 128.26069641 C133.32286514 128.26062088 132.18190887 128.26054535 131.00637817 128.26046753 C129.77505661 128.25530624 128.54373505 128.25014496 127.27510071 128.24482727 C125.38370613 128.24270485 125.38370613 128.24270485 123.45410156 128.24053955 C120.10530237 128.23588677 116.75657135 128.22690444 113.40779114 128.21583557 C109.98921813 128.20559789 106.57063787 128.20098207 103.15205383 128.19599915 C96.4469373 128.1858121 89.7419402 128.16623771 83.03681946 128.14717102 C83.03681946 143.98717102 83.03681946 159.82717102 83.03681946 176.14717102 C90.42830383 176.10076477 97.81978821 176.05435852 105.43525696 176.00654602 C110.1292815 175.98609807 114.82325081 175.96684156 119.51728821 175.95185852 C126.96125247 175.92798498 134.40501915 175.89979946 141.84883118 175.84541321 C147.85294887 175.80182226 153.85685454 175.77800569 159.86111832 175.76766205 C162.14716044 175.7602945 164.4331915 175.74590752 166.71914291 175.72425079 C169.93124346 175.69504134 173.1424777 175.69122243 176.35469055 175.69306946 C177.2912146 175.67868835 178.22773865 175.66430725 179.19264221 175.64949036 C188.0730045 175.70442852 195.94229906 178.31419914 202.50556946 184.44404602 C208.0741901 190.63771592 211.30191432 197.56120596 211.26387024 205.96894836 C211.26371918 207.08965729 211.26356812 208.21036621 211.26341248 209.36503601 C211.2530899 210.55899994 211.24276733 211.75296387 211.23213196 212.98310852 C211.22788712 214.83484177 211.22788712 214.83484177 211.22355652 216.72398376 C211.21238468 220.65681251 211.1872851 224.58941139 211.16181946 228.52217102 C211.15065771 231.19274061 211.14266065 233.86330803 211.13447571 236.53388977 C211.11245511 243.07172828 211.07900705 249.60943322 211.03681946 256.14717102 C211.7309343 256.13828857 212.42504913 256.12940613 213.14019775 256.12025452 C219.715431 256.03975448 226.29052461 255.97902826 232.86614132 255.93992233 C236.24592226 255.91914076 239.62529243 255.89099948 243.00483704 255.84541321 C246.89972096 255.79666443 250.7940289 255.77414817 254.68916321 255.75654602 C255.88951706 255.73590088 257.08987091 255.71525574 258.32659912 255.69398499 C268.6097692 255.69126093 275.69701654 258.20903059 283.24385071 265.21357727 C289.54612695 272.01014969 291.18418182 277.88822976 291.19795227 287.00166321 C291.20291718 287.78918976 291.20788208 288.57671631 291.21299744 289.3881073 C291.22758602 291.99009582 291.2344161 294.59202334 291.23994446 297.19404602 C291.24569931 299.00762432 291.251457 300.8212026 291.25721741 302.63478088 C291.26771847 306.43774193 291.27356677 310.2406819 291.27705383 314.0436554 C291.28253194 318.9035438 291.30654911 323.76315111 291.33502579 328.62295151 C291.35370221 332.37030333 291.35886046 336.11758818 291.36038971 339.8649826 C291.36340626 341.65584599 291.3714009 343.44670847 291.38457489 345.23752594 C291.40173787 347.75026469 291.39973024 350.26232622 291.39326477 352.77510071 C291.40247955 353.50681488 291.41169434 354.23852905 291.42118835 354.99241638 C291.34786068 364.14564588 287.66083615 370.3493776 281.45478821 376.94013977 C275.8807625 382.02790152 269.68826067 384.26419042 262.19389343 384.29434204 C260.36451736 384.305075 260.36451736 384.305075 258.4981842 384.31602478 C257.14436366 384.31886504 255.79054284 384.32157677 254.4367218 384.32417297 C253.01247492 384.33043884 251.58822967 384.33708575 250.16398621 384.34408569 C245.48358802 384.36511917 240.80318954 384.37548949 236.12275696 384.38545227 C234.50985828 384.38950052 232.89695977 384.39361746 231.28406143 384.39780235 C223.70376729 384.41685486 216.12348287 384.43108405 208.54316938 384.43941432 C199.80321668 384.4491782 191.06351783 384.4754751 182.32365453 384.51591522 C175.562573 384.54612151 168.80156403 384.56088759 162.04041636 384.56419533 C158.00526263 384.56654128 153.97038005 384.57544158 149.93529892 384.60065651 C146.13490744 384.62402061 142.33496401 384.62813735 138.5345192 384.61789513 C137.1450323 384.61740162 135.75552274 384.62366717 134.36610413 384.63745117 C122.89281967 384.74483947 115.2126198 382.82189837 106.75947571 374.94013977 C100.52717076 368.45345502 98.73538501 361.87880405 98.74629211 353.08149719 C98.73957489 352.29528488 98.73285767 351.50907257 98.72593689 350.69903564 C98.70701643 348.11267184 98.70303564 345.52656838 98.70088196 342.94013977 C98.6944496 341.13181453 98.68772091 339.32349032 98.68070984 337.51516724 C98.66875174 333.72833342 98.66502747 329.94159073 98.66621399 326.15473938 C98.66641702 321.31954941 98.63912428 316.48494819 98.60466957 311.64989758 C98.58235202 307.91535802 98.57837794 304.18095903 98.57943344 300.44635963 C98.57708443 298.66469101 98.56830064 296.8830181 98.55276871 295.10141563 C98.45396595 282.59702043 99.30085908 273.42397994 108.10322571 263.94013977 C114.1036386 258.37612054 119.57965194 256.01562861 127.7233429 256.03364563 C128.86422363 256.03372116 130.00510437 256.03379669 131.18055725 256.03387451 C132.40671753 256.0390358 133.63287781 256.04419708 134.89619446 256.04951477 C136.15570923 256.05092972 137.415224 256.05234467 138.71290588 256.05380249 C142.05347064 256.05845029 145.39396667 256.06742821 148.73451233 256.07850647 C152.14647315 256.08875504 155.5584413 256.09336235 158.97041321 256.0983429 C165.65925393 256.10852068 172.34797449 256.12809637 179.03681946 256.14717102 C179.03681946 240.30717102 179.03681946 224.46717102 179.03681946 208.14717102 C105.11681946 208.14717102 31.19681946 208.14717102 -44.96318054 208.14717102 C-44.96318054 223.98717102 -44.96318054 239.82717102 -44.96318054 256.14717102 C-40.9529071 256.10076477 -36.94263367 256.05435852 -32.81083679 256.00654602 C-29.59180954 255.98078073 -26.37281184 255.95910433 -23.15373993 255.94017029 C-19.76733342 255.91914023 -16.38133435 255.89108887 -12.99516296 255.84541321 C-9.10027904 255.79666443 -5.2059711 255.77414817 -1.31083679 255.75654602 C-0.11048294 255.73590088 1.08987091 255.71525574 2.32659912 255.69398499 C12.6097692 255.69126093 19.69701654 258.20903059 27.24385071 265.21357727 C33.54612695 272.01014969 35.18418182 277.88822976 35.19795227 287.00166321 C35.20291718 287.78918976 35.20788208 288.57671631 35.21299744 289.3881073 C35.22758602 291.99009582 35.2344161 294.59202334 35.23994446 297.19404602 C35.24569931 299.00762432 35.251457 300.8212026 35.25721741 302.63478088 C35.26771847 306.43774193 35.27356677 310.2406819 35.27705383 314.0436554 C35.28253194 318.9035438 35.30654911 323.76315111 35.33502579 328.62295151 C35.35370221 332.37030333 35.35886046 336.11758818 35.36038971 339.8649826 C35.36340626 341.65584599 35.3714009 343.44670847 35.38457489 345.23752594 C35.40173787 347.75026469 35.39973024 350.26232622 35.39326477 352.77510071 C35.40708694 353.87267197 35.40708694 353.87267197 35.42118835 354.99241638 C35.34786068 364.14564588 31.66083615 370.3493776 25.45478821 376.94013977 C19.8807625 382.02790152 13.68826067 384.26419042 6.19389343 384.29434204 C4.36451736 384.305075 4.36451736 384.305075 2.4981842 384.31602478 C1.14436366 384.31886504 -0.20945716 384.32157677 -1.5632782 384.32417297 C-2.98752508 384.33043884 -4.41177033 384.33708575 -5.83601379 384.34408569 C-10.51641198 384.36511917 -15.19681046 384.37548949 -19.87724304 384.38545227 C-21.49014172 384.38950052 -23.10304023 384.39361746 -24.71593857 384.39780235 C-32.29623271 384.41685486 -39.87651713 384.43108405 -47.45683062 384.43941432 C-56.19678332 384.4491782 -64.93648217 384.4754751 -73.67634547 384.51591522 C-80.437427 384.54612151 -87.19843597 384.56088759 -93.95958364 384.56419533 C-97.99473737 384.56654128 -102.02961995 384.57544158 -106.06470108 384.60065651 C-109.86509256 384.62402061 -113.66503599 384.62813735 -117.4654808 384.61789513 C-118.8549677 384.61740162 -120.24447726 384.62366717 -121.63389587 384.63745117 C-133.10718033 384.74483947 -140.7873802 382.82189837 -149.24052429 374.94013977 C-155.47282924 368.45345502 -157.26461499 361.87880405 -157.25370789 353.08149719 C-157.26042511 352.29528488 -157.26714233 351.50907257 -157.27406311 350.69903564 C-157.29298357 348.11267184 -157.29696436 345.52656838 -157.29911804 342.94013977 C-157.3055504 341.13181453 -157.31227909 339.32349032 -157.31929016 337.51516724 C-157.33124826 333.72833342 -157.33497253 329.94159073 -157.33378601 326.15473938 C-157.33358298 321.31954941 -157.36087572 316.48494819 -157.39533043 311.64989758 C-157.41764798 307.91535802 -157.42162206 304.18095903 -157.42056656 300.44635963 C-157.42291557 298.66469101 -157.43169936 296.8830181 -157.44723129 295.10141563 C-157.54603405 282.59702043 -156.69914092 273.42397994 -147.89677429 263.94013977 C-141.8963614 258.37612054 -136.42034806 256.01562861 -128.2766571 256.03364563 C-127.13577637 256.03372116 -125.99489563 256.03379669 -124.81944275 256.03387451 C-123.59328247 256.0390358 -122.36712219 256.04419708 -121.10380554 256.04951477 C-119.84429077 256.05092972 -118.584776 256.05234467 -117.28709412 256.05380249 C-113.94652936 256.05845029 -110.60603333 256.06742821 -107.26548767 256.07850647 C-103.85352674 256.08875504 -100.4415587 256.09330748 -97.02958679 256.0983429 C-90.34076575 256.10937139 -83.65197711 256.12610913 -76.96318054 256.14717102 C-76.97206299 255.46780487 -76.98094543 254.78843872 -76.99009705 254.08848572 C-77.07896734 246.98264526 -77.13907919 239.87696412 -77.1829071 232.77070618 C-77.20295434 230.12285442 -77.23019938 227.47504656 -77.26493835 224.8273468 C-77.31375798 221.00936514 -77.33621935 217.19197166 -77.35380554 213.37373352 C-77.37445068 212.20041473 -77.39509583 211.02709595 -77.41636658 209.81822205 C-77.41898488 200.10840815 -75.42825886 191.91849225 -68.66630554 184.67842102 C-60.85355271 177.65411113 -53.00150157 175.8424882 -42.7351532 175.92012024 C-41.7199057 175.91982819 -40.7046582 175.91953613 -39.65864563 175.91923523 C-36.31475676 175.92062462 -32.97109282 175.93616763 -29.62724304 175.95185852 C-27.30411399 175.95559003 -24.98098336 175.95843635 -22.65785217 175.96043396 C-16.55210503 175.9680595 -10.44645347 175.98769882 -4.34074402 176.00984192 C2.98977686 176.03392645 10.32032976 176.04308646 17.65087891 176.05474854 C28.77959218 176.07412373 39.90809583 176.11245403 51.03681946 176.14717102 C51.03681946 160.30717102 51.03681946 144.46717102 51.03681946 128.14717102 C47.02654602 128.19357727 43.01627258 128.23998352 38.88447571 128.28779602 C35.66544845 128.31356131 32.44645075 128.33523771 29.22737885 128.35417175 C25.84097234 128.37520181 22.45497326 128.40325317 19.06880188 128.44892883 C15.17391796 128.49767761 11.27961002 128.52019387 7.38447571 128.53779602 C6.18412186 128.55844116 4.98376801 128.5790863 3.74703979 128.60035706 C-6.65815273 128.60311343 -13.63489655 126.03166942 -21.24052429 118.94013977 C-27.47282924 112.45345502 -29.26461499 105.87880405 -29.25370789 97.08149719 C-29.26042511 96.29528488 -29.26714233 95.50907257 -29.27406311 94.69903564 C-29.29298357 92.11267184 -29.29696436 89.52656838 -29.29911804 86.94013977 C-29.3055504 85.13181453 -29.31227909 83.32349032 -29.31929016 81.51516724 C-29.33124826 77.72833342 -29.33497253 73.94159073 -29.33378601 70.15473938 C-29.33358298 65.31954941 -29.36087572 60.48494819 -29.39533043 55.64989758 C-29.41764798 51.91535802 -29.42162206 48.18095903 -29.42056656 44.44635963 C-29.42291557 42.66469101 -29.43169936 40.8830181 -29.44723129 39.10141563 C-29.54603405 26.59702043 -28.69914092 17.42397994 -19.89677429 7.94013977 C-13.78324744 2.27123305 -8.27824047 0.03333426 0 0 Z " fill="#000000" transform="translate(188.9631805419922,63.85282897949219)"/>
</svg>
