<?xml version="1.0" standalone="no"?>
<!DOCTYPE svg PUBLIC "-//W3C//DTD SVG 20010904//EN"
 "http://www.w3.org/TR/2001/REC-SVG-20010904/DTD/svg10.dtd">
<svg version="1.0" xmlns="http://www.w3.org/2000/svg"
 width="512.000000pt" height="512.000000pt" viewBox="0 0 512.000000 512.000000"
 preserveAspectRatio="xMidYMid meet">

<g transform="translate(0.000000,512.000000) scale(0.100000,-0.100000)"
fill="#000000" stroke="none">
<path d="M2329 4945 c-560 -68 -1080 -403 -1373 -887 -441 -727 -342 -1656
243 -2270 399 -420 979 -637 1539 -578 439 47 814 220 1126 520 587 564 741
1444 382 2175 -107 217 -219 370 -398 540 -140 134 -263 220 -441 310 -343
172 -701 236 -1078 190z m511 -445 c295 -60 526 -184 741 -399 218 -219 351
-472 406 -774 23 -126 22 -370 -1 -497 -110 -597 -563 -1054 -1161 -1172 -141
-28 -373 -30 -515 -4 -197 36 -412 124 -576 238 -119 83 -294 259 -372 377
-168 251 -246 509 -246 811 0 400 140 737 423 1021 240 239 520 377 857 419
109 14 326 4 444 -20z"/>
<path d="M2406 4380 c-574 -72 -1018 -491 -1133 -1066 -25 -130 -23 -356 6
-491 55 -264 168 -472 360 -664 192 -192 399 -304 664 -360 144 -31 370 -31
514 0 265 56 472 168 664 360 147 147 245 299 313 489 95 264 95 598 0 864
-157 441 -526 760 -988 853 -95 19 -305 27 -400 15z m273 -770 c94 -238 118
-291 135 -295 12 -2 154 -11 316 -20 162 -10 296 -18 298 -20 1 -1 -108 -93
-243 -204 -181 -149 -245 -207 -241 -219 16 -53 155 -596 153 -598 -1 -1 -121
74 -267 167 -146 93 -267 169 -270 169 -3 0 -124 -76 -270 -169 -146 -93 -266
-168 -267 -167 -2 2 137 545 153 598 3 11 -58 67 -223 204 -125 103 -236 195
-246 204 -17 16 0 18 280 34 164 10 307 19 319 21 17 4 41 57 135 295 63 159
116 290 119 290 3 0 56 -131 119 -290z"/>
<path d="M948 1192 c-130 -224 -235 -408 -234 -409 2 -2 171 31 376 72 206 41
377 72 381 67 3 -4 59 -166 124 -360 65 -194 122 -351 127 -350 7 3 508 864
508 873 0 2 -17 7 -37 10 -77 13 -271 68 -353 99 -223 87 -385 185 -626 380
l-31 25 -235 -407z"/>
<path d="M3900 1569 c-270 -230 -549 -374 -873 -451 -75 -18 -136 -36 -135
-39 13 -31 525 -909 531 -909 4 0 7 4 7 9 0 5 54 168 121 363 l120 355 380
-77 c208 -43 377 -75 375 -71 -12 24 -481 837 -485 843 -3 4 -22 -7 -41 -23z"/>
</g>
</svg>
