<?xml version="1.0" encoding="UTF-8"?>
<svg version="1.1" xmlns="http://www.w3.org/2000/svg" width="512" height="512">
<path d="M0 0 C1.31266846 0.01244751 1.31266846 0.01244751 2.65185547 0.02514648 C16.20529413 0.37720012 26.09469603 5.61794555 35.9375 14.75 C45.93041038 25.30854681 48.70189781 36.85577923 48.60717773 50.96777344 C48.19639743 65.09016239 42.350381 76.16615726 32.125 85.84375 C19.52122503 96.21137134 6.00042088 97.84486324 -9.8125 96.4375 C-22.96971964 94.04527825 -32.83019541 85.84213327 -40.8125 75.4375 C-43.05922594 71.85242787 -44.8125 68.76582015 -44.8125 64.4375 C-51.0825 64.4375 -57.3525 64.4375 -63.8125 64.4375 C-63.8125 111.9575 -63.8125 159.4775 -63.8125 208.4375 C-57.5425 208.4375 -51.2725 208.4375 -44.8125 208.4375 C-44.4825 206.7875 -44.1525 205.1375 -43.8125 203.4375 C-37.6963382 190.46446475 -27.86191732 182.7023991 -14.578125 177.796875 C-9.68531289 176.22162072 -5.11415117 175.93705203 0 176 C1.31266846 176.01244751 1.31266846 176.01244751 2.65185547 176.02514648 C16.20529413 176.37720012 26.09469603 181.61794555 35.9375 190.75 C45.93041038 201.30854681 48.70189781 212.85577923 48.60717773 226.96777344 C48.19639743 241.09016239 42.350381 252.16615726 32.125 261.84375 C19.52122503 272.21137134 6.00042088 273.84486324 -9.8125 272.4375 C-22.96971964 270.04527825 -32.83019541 261.84213327 -40.8125 251.4375 C-43.05922594 247.85242787 -44.8125 244.76582015 -44.8125 240.4375 C-51.0825 240.4375 -57.3525 240.4375 -63.8125 240.4375 C-63.8125 287.9575 -63.8125 335.4775 -63.8125 384.4375 C-57.5425 384.4375 -51.2725 384.4375 -44.8125 384.4375 C-44.4825 382.7875 -44.1525 381.1375 -43.8125 379.4375 C-37.6963382 366.46446475 -27.86191732 358.7023991 -14.578125 353.796875 C-9.68531289 352.22162072 -5.11415117 351.93705203 0 352 C1.31266846 352.01244751 1.31266846 352.01244751 2.65185547 352.02514648 C16.20529413 352.37720012 26.09469603 357.61794555 35.9375 366.75 C45.93041038 377.30854681 48.70189781 388.85577923 48.60717773 402.96777344 C48.19639743 417.09016239 42.350381 428.16615726 32.125 437.84375 C19.52122503 448.21137134 6.00042088 449.84486324 -9.8125 448.4375 C-22.96971964 446.04527825 -32.83019541 437.84213327 -40.8125 427.4375 C-43.05922594 423.85242787 -44.8125 420.76582015 -44.8125 416.4375 C-46.62838623 416.4689209 -46.62838623 416.4689209 -48.48095703 416.50097656 C-52.98718361 416.5735654 -57.49335884 416.61936835 -62 416.65722656 C-63.94767966 416.67729906 -65.89529937 416.70456332 -67.84277344 416.73925781 C-70.64793721 416.78796852 -73.45230187 416.81051241 -76.2578125 416.828125 C-77.55659836 416.85909271 -77.55659836 416.85909271 -78.88162231 416.89068604 C-84.35185453 416.89270053 -87.56094771 416.20465861 -91.8125 412.4375 C-95.33733227 407.96830183 -96.31066554 405.08121256 -96.29351807 399.41397095 C-96.29693577 398.73097471 -96.30035347 398.04797847 -96.30387473 397.34428537 C-96.31043418 395.06844441 -96.28851171 392.79379766 -96.26660156 390.51806641 C-96.26547266 388.8817345 -96.26610779 387.24540056 -96.26837158 385.60906982 C-96.26951798 381.17550399 -96.24602081 376.74237213 -96.21807575 372.30890703 C-96.19304968 367.67246235 -96.19071915 363.03600742 -96.18597412 358.39950562 C-96.17354789 349.62353292 -96.14073104 340.84775983 -96.10057616 332.07187498 C-96.05584749 322.0792093 -96.03386865 312.08653403 -96.01379442 302.09379315 C-95.97199812 281.54158408 -95.90165289 260.98955462 -95.8125 240.4375 C-96.44752441 240.45844727 -97.08254883 240.47939453 -97.73681641 240.50097656 C-100.63688076 240.58454581 -103.53669116 240.63628774 -106.4375 240.6875 C-107.43652344 240.72101563 -108.43554688 240.75453125 -109.46484375 240.7890625 C-115.62479285 240.87065123 -119.12877786 240.5507688 -123.8125 236.4375 C-127.44083663 232.61819828 -128.12250458 229.55470994 -128.3125 224.4375 C-128.12250458 219.32029006 -127.44083663 216.25680172 -123.8125 212.4375 C-118.34695691 207.63763203 -113.49781815 207.95063771 -106.4375 208.1875 C-105.41527344 208.20554688 -104.39304687 208.22359375 -103.33984375 208.2421875 C-100.82975251 208.28910509 -98.32162236 208.35473271 -95.8125 208.4375 C-95.81618717 207.5875112 -95.81987434 206.73752239 -95.82367325 205.86177635 C-95.9120081 185.18030169 -95.97820176 164.49885954 -96.01974869 143.81723595 C-96.04037448 133.81575114 -96.06849545 123.81439226 -96.11425781 113.81298828 C-96.154125 105.09582518 -96.17993269 96.37875327 -96.18885398 87.66150153 C-96.19406892 83.04568736 -96.20632631 78.43013409 -96.23542023 73.81440353 C-96.26258746 69.46910049 -96.27094237 65.12416561 -96.26493073 60.77878571 C-96.26603038 59.18485386 -96.27397664 57.5909096 -96.2893219 55.99705124 C-96.30927132 53.81792698 -96.30442253 51.6401864 -96.29351807 49.46102905 C-96.29720524 48.24241873 -96.30089241 47.0238084 -96.30469131 45.76827049 C-95.53681796 40.571897 -93.02208578 37.5092736 -89.15966797 34.08691406 C-84.70934916 31.89389044 -81.14809119 31.93027322 -76.2578125 32.046875 C-74.90549026 32.05536469 -74.90549026 32.05536469 -73.52584839 32.06402588 C-70.66251237 32.08631445 -67.80045411 32.13649611 -64.9375 32.1875 C-62.98960148 32.20757475 -61.04168323 32.22582381 -59.09375 32.2421875 C-54.3328453 32.28615453 -49.57288886 32.35512937 -44.8125 32.4375 C-44.67078369 31.66188721 -44.52906738 30.88627441 -44.38305664 30.0871582 C-42.40434619 20.89805058 -34.8452808 12.72071943 -27.171875 7.71484375 C-18.30637906 2.67537888 -10.23045419 -0.12592243 0 0 Z M-13.1875 40.0625 C-15.39157893 44.64020239 -15.6096639 48.44302411 -14.8125 53.4375 C-12.48281069 58.27608548 -9.65108548 61.10781069 -4.8125 63.4375 C0.18197589 64.2346639 3.98479761 64.01657893 8.5625 61.8125 C12.14657713 58.56976355 14.78285241 55.97274104 15.5703125 51.0390625 C15.82633919 45.35527006 15.12376932 41.78811345 11.1875 37.4375 C6.83688655 33.50123068 3.26972994 32.79866081 -2.4140625 33.0546875 C-7.34774104 33.84214759 -9.94476355 36.47842287 -13.1875 40.0625 Z M-13.1875 216.0625 C-15.39157893 220.64020239 -15.6096639 224.44302411 -14.8125 229.4375 C-12.48281069 234.27608548 -9.65108548 237.10781069 -4.8125 239.4375 C0.18197589 240.2346639 3.98479761 240.01657893 8.5625 237.8125 C12.14657713 234.56976355 14.78285241 231.97274104 15.5703125 227.0390625 C15.82633919 221.35527006 15.12376932 217.78811345 11.1875 213.4375 C6.83688655 209.50123068 3.26972994 208.79866081 -2.4140625 209.0546875 C-7.34774104 209.84214759 -9.94476355 212.47842287 -13.1875 216.0625 Z M-13.1875 392.0625 C-15.39157893 396.64020239 -15.6096639 400.44302411 -14.8125 405.4375 C-12.48281069 410.27608548 -9.65108548 413.10781069 -4.8125 415.4375 C0.18197589 416.2346639 3.98479761 416.01657893 8.5625 413.8125 C12.14657713 410.56976355 14.78285241 407.97274104 15.5703125 403.0390625 C15.82633919 397.35527006 15.12376932 393.78811345 11.1875 389.4375 C6.83688655 385.50123068 3.26972994 384.79866081 -2.4140625 385.0546875 C-7.34774104 385.84214759 -9.94476355 388.47842287 -13.1875 392.0625 Z " fill="#000000" transform="translate(431.8125,31.5625)"/>
<path d="M0 0 C1.07514862 0.46799011 2.15029724 0.93598022 3.25802612 1.41815186 C6.78021698 2.95653378 10.28817953 4.52486316 13.796875 6.09375 C16.25670355 7.1750916 18.71724002 8.25459583 21.17919922 9.33105469 C25.01911755 11.0115528 28.85805665 12.69412784 32.69247437 14.387146 C41.92335014 18.46135584 51.18820645 22.44936828 60.4765625 26.390625 C61.77232727 26.94117503 63.06806316 27.49179301 64.36376953 28.04248047 C69.3598672 30.16530013 74.35639293 32.2870775 79.35559082 34.40258789 C82.79943224 35.86161056 86.23988813 37.32835326 89.6796875 38.796875 C90.69594208 39.22506531 91.71219666 39.65325562 92.75924683 40.09442139 C106.06257661 45.79395887 106.06257661 45.79395887 109.7123127 51.50703812 C111.65627723 56.36766251 111.09708676 61.88000573 111.06445312 67.03125 C111.069878 68.40170026 111.07700271 69.77214468 111.08569336 71.14257812 C111.10388667 74.85339736 111.09687602 78.56377041 111.08417702 82.27459717 C111.07402849 86.16354549 111.08344783 90.05245638 111.08972168 93.94140625 C111.09699272 100.47142372 111.08742476 107.00126005 111.06835938 113.53125 C111.04659154 121.07380185 111.0536433 128.61592116 111.075665 136.15846252 C111.09383459 142.64188837 111.09636974 149.12518423 111.08591032 155.60862732 C111.07968391 159.47760098 111.07881611 163.34637153 111.09205627 167.21533203 C111.10363704 170.85331402 111.09554926 174.49074 111.07247925 178.12866211 C111.06469347 180.09553265 111.07652909 182.06245039 111.08898926 184.02929688 C110.98493222 194.89285128 110.98493222 194.89285128 106.546875 199.59375 C101.25919842 204.12800755 94.27946693 206.61892094 87.921875 209.26953125 C86.88582123 209.70838654 85.84976746 210.14724182 84.78231812 210.59939575 C81.37332479 212.04180401 77.96036457 213.47451783 74.546875 214.90625 C70.30983744 216.68953592 66.07372833 218.47501251 61.83845139 220.26247597 C60.58159065 220.7928047 59.3245933 221.32280978 58.06746292 221.85249901 C48.96919069 225.68740117 39.91174181 229.6068896 30.87883759 233.59320259 C27.07295042 235.2704677 23.26208457 236.9364042 19.45150375 238.60297298 C16.39769958 239.94006668 13.34933508 241.28735144 10.30615234 242.64859009 C6.90261679 244.16983791 3.48813633 245.6635343 0.0703125 247.15234375 C-0.92134918 247.60433136 -1.91301086 248.05631897 -2.9347229 248.52200317 C-11.85282825 252.35206142 -19.85106358 253.19159616 -29.06738281 249.77148438 C-31.02335898 248.93238694 -32.96935966 248.06976019 -34.90625 247.1875 C-35.98139862 246.71950989 -37.05654724 246.25151978 -38.16427612 245.76934814 C-41.68646698 244.23096622 -45.19442953 242.66263684 -48.703125 241.09375 C-51.16295355 240.0124084 -53.62349002 238.93290417 -56.08544922 237.85644531 C-59.92536755 236.1759472 -63.76430665 234.49337216 -67.59872437 232.800354 C-76.82960014 228.72614416 -86.09445645 224.73813172 -95.3828125 220.796875 C-96.67857727 220.24632497 -97.97431316 219.69570699 -99.27001953 219.14501953 C-104.2661172 217.02219987 -109.26264293 214.9004225 -114.26184082 212.78491211 C-117.70568224 211.32588944 -121.14613813 209.85914674 -124.5859375 208.390625 C-125.60219208 207.96243469 -126.61844666 207.53424438 -127.66549683 207.09307861 C-140.96882661 201.39354113 -140.96882661 201.39354113 -144.6185627 195.68046188 C-146.56252723 190.81983749 -146.00333676 185.30749427 -145.97070312 180.15625 C-145.976128 178.78579974 -145.98325271 177.41535532 -145.99194336 176.04492188 C-146.01013667 172.33410264 -146.00312602 168.62372959 -145.99042702 164.91290283 C-145.98027849 161.02395451 -145.98969783 157.13504362 -145.99597168 153.24609375 C-146.00324272 146.71607628 -145.99367476 140.18623995 -145.97460938 133.65625 C-145.95284154 126.11369815 -145.9598933 118.57157884 -145.981915 111.02903748 C-146.00008459 104.54561163 -146.00261974 98.06231577 -145.99216032 91.57887268 C-145.98593391 87.70989902 -145.98506611 83.84112847 -145.99830627 79.97216797 C-146.00988704 76.33418598 -146.00179926 72.69676 -145.97872925 69.05883789 C-145.97094347 67.09196735 -145.98277909 65.12504961 -145.99523926 63.15820312 C-145.89118222 52.29464872 -145.89118222 52.29464872 -141.453125 47.59375 C-136.16544842 43.05949245 -129.18571693 40.56857906 -122.828125 37.91796875 C-121.79207123 37.47911346 -120.75601746 37.04025818 -119.68856812 36.58810425 C-116.27957479 35.14569599 -112.86661457 33.71298217 -109.453125 32.28125 C-105.21608744 30.49796408 -100.97997833 28.71248749 -96.74470139 26.92502403 C-95.48784065 26.3946953 -94.2308433 25.86469022 -92.97371292 25.33500099 C-83.87544069 21.50009883 -74.81799181 17.5806104 -65.78508759 13.59429741 C-61.97920042 11.9170323 -58.16833457 10.2510958 -54.35775375 8.58452702 C-51.30394958 7.24743332 -48.25558508 5.90014856 -45.21240234 4.53890991 C-41.80886679 3.01766209 -38.39438633 1.5239657 -34.9765625 0.03515625 C-33.98490082 -0.41683136 -32.99323914 -0.86881897 -31.9715271 -1.33450317 C-20.35955015 -6.32149832 -11.29215232 -5.1436141 0 0 Z M-23.63037109 31.7175293 C-24.71264984 32.18188889 -25.79492859 32.64624847 -26.91000366 33.12467957 C-28.67545029 33.88860771 -28.67545029 33.88860771 -30.4765625 34.66796875 C-32.32876537 35.46414181 -34.18096844 36.26031443 -36.03318214 37.05646229 C-38.63989694 38.17803172 -41.2451561 39.30296233 -43.85046387 40.42779541 C-47.73411163 42.10377364 -51.61963569 43.77539525 -55.50513649 45.44707203 C-58.53964796 46.75262852 -61.57369879 48.05921135 -64.60678101 49.36808777 C-71.86677568 52.49761765 -79.14808351 55.57084761 -86.453125 58.59375 C-86.453125 59.25375 -86.453125 59.91375 -86.453125 60.59375 C-85.80769745 60.86857208 -85.1622699 61.14339417 -84.49728394 61.42654419 C-78.3502261 64.0439867 -72.20323612 66.66158853 -66.05631828 69.27935982 C-62.27885004 70.88805243 -58.50136115 72.49669645 -54.72372055 74.10498428 C-52.89148588 74.88526778 -51.05954194 75.66623385 -49.2276001 76.44720459 C-46.84258641 77.46187916 -44.45599916 78.47286346 -42.06781006 79.4800415 C-37.30105908 81.49479085 -32.55197841 83.50409686 -27.90332031 85.78027344 C-27.26951447 86.08270966 -26.63570862 86.38514587 -25.98269653 86.69674683 C-24.44862985 87.43870495 -22.9303975 88.21319348 -21.41455078 88.99169922 C-16.86586704 89.91643575 -13.6582614 88.33816065 -9.453125 86.59375 C-8.48911774 86.19967957 -7.52511047 85.80560913 -6.53189087 85.39959717 C-3.17565703 84.00073718 0.16300129 82.56521808 3.5 81.12109375 C4.73054744 80.59174935 5.96124281 80.06274871 7.19207764 79.53407288 C10.40705668 78.15217588 13.62019003 76.76604083 16.83288574 75.37884521 C20.73943926 73.69290113 24.6479909 72.01159605 28.55643845 70.33004856 C31.59596384 69.02231461 34.63501601 67.71352307 37.67315674 66.40257263 C38.76489197 65.93190872 39.8566272 65.46124481 40.98144531 64.97631836 C41.9380304 64.56345078 42.89461548 64.15058319 43.88018799 63.72520447 C46.42285066 62.64637256 48.97843053 61.60946231 51.546875 60.59375 C51.546875 59.93375 51.546875 59.27375 51.546875 58.59375 C50.90144745 58.31892792 50.2560199 58.04410583 49.59103394 57.76095581 C43.4439761 55.1435133 37.29698612 52.52591147 31.15006828 49.90814018 C27.37262468 48.29945806 23.5951264 46.69090444 19.81757736 45.08246994 C17.98489123 44.30208484 16.15226597 43.52155681 14.31964111 42.74102783 C11.93892288 41.72721368 9.558025 40.71382131 7.17694092 39.7008667 C2.36236711 37.65156894 -2.45112618 35.60078729 -7.24902344 33.51269531 C-7.91441132 33.22379425 -8.57979919 32.93489319 -9.26535034 32.63723755 C-10.90337175 31.9242295 -12.53944578 31.20675184 -14.17529297 30.48876953 C-18.03266705 28.97310679 -19.92352117 30.11981121 -23.63037109 31.7175293 Z M-113.453125 84.59375 C-113.453125 114.95375 -113.453125 145.31375 -113.453125 176.59375 C-93.02018325 185.71964771 -93.02018325 185.71964771 -72.4765625 194.578125 C-71.36294342 195.04945862 -70.24932434 195.52079224 -69.10195923 196.00640869 C-66.81993875 196.97160387 -64.53742672 197.93563781 -62.25439453 198.8984375 C-58.73719828 200.38210586 -55.22203879 201.87052961 -51.70703125 203.359375 C-49.46365679 204.3075641 -47.22017179 205.25549171 -44.9765625 206.203125 C-43.92898773 206.64670349 -42.88141296 207.09028198 -41.80209351 207.54730225 C-40.84823761 207.94902649 -39.89438171 208.35075073 -38.91162109 208.76464844 C-37.65144669 209.29659821 -37.65144669 209.29659821 -36.36581421 209.83929443 C-34.64076861 210.65490561 -34.64076861 210.65490561 -33.453125 210.59375 C-33.453125 180.23375 -33.453125 149.87375 -33.453125 118.59375 C-53.88606675 109.46785229 -53.88606675 109.46785229 -74.4296875 100.609375 C-75.54330658 100.13804138 -76.65692566 99.66670776 -77.80429077 99.18109131 C-80.08631125 98.21589613 -82.36882328 97.25186219 -84.65185547 96.2890625 C-88.16905172 94.80539414 -91.68421121 93.31697039 -95.19921875 91.828125 C-97.44259321 90.8799359 -99.68607821 89.93200829 -101.9296875 88.984375 C-102.97726227 88.54079651 -104.02483704 88.09721802 -105.10415649 87.64019775 C-106.05801239 87.23847351 -107.01186829 86.83674927 -107.99462891 86.42285156 C-109.25480331 85.89090179 -109.25480331 85.89090179 -110.54043579 85.34820557 C-112.26548139 84.53259439 -112.26548139 84.53259439 -113.453125 84.59375 Z M72.87304688 86.53051758 C71.3725177 87.16797661 71.3725177 87.16797661 69.8416748 87.8183136 C68.19528015 88.52119759 68.19528015 88.52119759 66.515625 89.23828125 C64.80880554 89.96491219 64.80880554 89.96491219 63.06750488 90.70622253 C60.6357714 91.74199577 58.20435771 92.77848496 55.7734375 93.81616211 C52.14705412 95.36403754 48.51885542 96.90763065 44.890625 98.45117188 C42.51553621 99.46333335 40.14053394 100.47569786 37.765625 101.48828125 C36.71661011 101.93460403 35.66759521 102.38092682 34.58679199 102.84077454 C22.52801175 107.99203074 10.55187627 113.31154944 -1.453125 118.59375 C-1.453125 148.95375 -1.453125 179.31375 -1.453125 210.59375 C8.3272126 206.86770524 8.3272126 206.86770524 17.98876953 202.90234375 C19.07344513 202.43836182 20.15812073 201.97437988 21.27566528 201.49633789 C22.39899261 201.01285889 23.52231995 200.52937988 24.6796875 200.03125 C25.87818329 199.51747803 27.07667908 199.00370605 28.31149292 198.47436523 C30.82468155 197.39684235 33.33717839 196.31772881 35.84912109 195.23730469 C39.03585011 193.86670142 42.22393784 192.49929403 45.41250801 191.13298035 C48.50214717 189.80875204 51.5909026 188.48246973 54.6796875 187.15625 C55.80706329 186.672771 56.93443909 186.18929199 58.09597778 185.69116211 C59.17434906 185.22718018 60.25272034 184.76319824 61.36376953 184.28515625 C62.76056442 183.68489624 62.76056442 183.68489624 64.18557739 183.07250977 C68.99262951 180.95770885 73.76592243 178.76691026 78.546875 176.59375 C78.546875 146.23375 78.546875 115.87375 78.546875 84.59375 C76.5720899 84.59375 74.65277517 85.77271818 72.87304688 86.53051758 Z " fill="#000000" transform="translate(177.453125,132.40625)"/>
</svg>
