<?xml version="1.0" encoding="UTF-8"?>
<svg version="1.1" xmlns="http://www.w3.org/2000/svg" width="512" height="512">
<path d="M0 0 C2.2294939 -0.00270171 4.45898665 -0.00658974 6.68847656 -0.01159668 C11.33800589 -0.01745978 15.9872257 -0.00903219 20.63671875 0.00976562 C26.5573186 0.03255281 32.4771928 0.01941254 38.39776611 -0.00452423 C42.99468321 -0.01906878 47.59143197 -0.01433674 52.18835449 -0.00401306 C54.36975188 -0.00136964 56.55116521 -0.0045302 58.73254395 -0.01393127 C82.10702004 -0.0925932 100.95140997 4.56150592 118.75 20.53125 C119.35972656 21.04816406 119.96945312 21.56507812 120.59765625 22.09765625 C129.49582594 30.18505877 136.0782797 42.19447857 139.75 53.53125 C139.99602463 54.24314484 140.24204926 54.95503967 140.49552917 55.68850708 C143.67763607 66.28134743 143.20373037 77.06610493 143.18359375 88.015625 C143.18816427 90.20217042 143.19347241 92.3887144 143.19947815 94.57525635 C143.20837819 99.144306 143.20602272 103.71318059 143.19604492 108.28222656 C143.18457673 114.09629783 143.20475029 119.90975976 143.23396206 125.72375107 C143.25243803 130.23663076 143.25200873 134.74936761 143.24632454 139.2622757 C143.24617262 141.40377912 143.25210793 143.54529305 143.26461601 145.68675995 C143.37701756 168.08700548 139.75625932 186.9691801 124.75 204.53125 C123.986875 205.541875 123.22375 206.5525 122.4375 207.59375 C110.0956271 221.0837041 91.16891357 230.7259167 72.74983406 231.62935638 C70.39211088 231.67495444 68.03614344 231.68922139 65.67797852 231.69238281 C64.78436111 231.69734772 63.89074371 231.70231262 62.970047 231.70742798 C60.02299211 231.72199171 57.07599117 231.72884417 54.12890625 231.734375 C52.60965199 231.73861607 52.60965199 231.73861607 51.05970573 231.74294281 C45.69320288 231.75791699 40.32672675 231.76715592 34.96020508 231.77148438 C29.45313807 231.77694703 23.94632104 231.80093344 18.43933201 231.82945633 C14.17442649 231.84821431 9.90957941 231.8532954 5.64463615 231.85482025 C3.61673564 231.85782086 1.58883551 231.86576015 -0.43902397 231.87900543 C-25.98227559 232.03385197 -47.29571779 226.89221893 -66.5 208.84375 C-84.75349746 189.61238661 -88.5712796 167.21643901 -88.55078125 141.640625 C-88.55467655 139.6071972 -88.55901292 137.57377021 -88.56376648 135.54034424 C-88.57119891 131.2907039 -88.57095957 127.04114668 -88.56567383 122.79150391 C-88.5598901 117.38432568 -88.57679845 111.97749121 -88.6000185 106.57036972 C-88.61485563 102.37323058 -88.61561394 98.17617227 -88.61250877 93.97901154 C-88.61301721 91.98740205 -88.61816365 89.99578745 -88.62832069 88.0042038 C-88.73740774 63.62205982 -84.18656162 41.28532847 -66.75 22.90625 C-47.06303481 4.20363307 -26.07864294 -0.11239096 0 0 Z " fill="#000000" transform="translate(369.25,-0.53125)"/>
<path d="M0 0 C2.23378151 -0.0045699 4.46756161 -0.00987786 6.70133972 -0.0158844 C11.36874119 -0.02478503 16.03597127 -0.0224278 20.70336914 -0.01245117 C26.64757003 -0.00097568 32.59117558 -0.02116748 38.53529835 -0.05036831 C43.14507223 -0.06882716 47.75470606 -0.06841845 52.36450768 -0.06273079 C54.5542859 -0.0625787 56.74407432 -0.06852842 58.93381691 -0.08102226 C80.7919562 -0.18817368 100.17823762 3.23745792 117.04296875 18.43359375 C117.93757812 19.23539063 118.8321875 20.0371875 119.75390625 20.86328125 C134.66225834 34.95473733 143.42000536 53.72343954 144.32318115 74.26443481 C144.47330424 79.75946676 144.46097285 85.2534092 144.44140625 90.75 C144.44343316 92.78010665 144.4463497 94.81021258 144.45010376 96.84031677 C144.45449708 101.0702923 144.44819269 105.30007625 144.43408203 109.5300293 C144.41698108 114.9147925 144.42685645 120.29910724 144.44479942 125.6838541 C144.45570926 129.8680908 144.4521583 134.05222349 144.44441605 138.23646355 C144.44243445 140.22051994 144.44480033 142.20458621 144.45185471 144.18863106 C144.52257275 169.65538678 138.92192625 191.05113849 121.04296875 209.87109375 C105.69760965 224.23826263 86.72344784 231.56666358 65.84155273 231.59472656 C64.94618301 231.59969147 64.05081329 231.60465637 63.12831116 231.60977173 C60.18188694 231.62431068 57.23551662 231.63118275 54.2890625 231.63671875 C52.76931163 231.64095982 52.76931163 231.64095982 51.21885872 231.64528656 C45.8535041 231.66024845 40.48817614 231.66949591 35.12280273 231.67382812 C29.61454526 231.67929759 24.10653687 231.70330212 18.5983572 231.73180008 C14.33349424 231.75054187 10.06868978 231.75563824 5.80378914 231.757164 C3.77506212 231.76016682 1.74633553 231.76811384 -0.28235054 231.78134918 C-23.94561964 231.9246695 -45.97258488 227.4182897 -63.87109375 210.5859375 C-78.66433225 195.3217532 -87.06971162 177.09906566 -87.1340332 155.81079102 C-87.1406044 154.85865219 -87.1471756 153.90651337 -87.15394592 152.92552185 C-87.17360555 149.78368029 -87.1853281 146.64188649 -87.1953125 143.5 C-87.19938803 142.42096846 -87.20346355 141.34193691 -87.20766258 140.23020744 C-87.2284968 134.51358103 -87.24280734 128.79697839 -87.25219727 123.08032227 C-87.26322774 117.20998722 -87.29759668 111.34003475 -87.33736897 105.46983433 C-87.36366744 100.92699029 -87.37190102 96.38423539 -87.37547874 91.84132195 C-87.38031424 89.67943693 -87.39184013 87.51755507 -87.41051674 85.35574532 C-87.53565048 69.90554557 -86.59298358 56.05398426 -79.20703125 42.12109375 C-78.86486572 41.45795166 -78.5227002 40.79480957 -78.17016602 40.11157227 C-75.08423455 34.3183123 -71.38308165 29.28505186 -66.95703125 24.43359375 C-66.44011719 23.82515625 -65.92320313 23.21671875 -65.390625 22.58984375 C-48.15117399 3.57892034 -24.20001296 -0.04352502 0 0 Z " fill="#000000" transform="translate(86.95703125,-0.43359375)"/>
<path d="M0 0 C0.85328888 -0.0049649 1.70657776 -0.00992981 2.58572388 -0.01504517 C5.38723584 -0.02955588 8.18869112 -0.03645179 10.99023438 -0.04199219 C12.43866982 -0.04623325 12.43866982 -0.04623325 13.91636658 -0.05056 C19.03116118 -0.06551109 24.14592791 -0.07476509 29.26074219 -0.07910156 C34.50085992 -0.08456613 39.74071519 -0.10856334 44.98075104 -0.13707352 C49.04753321 -0.15585263 53.11425422 -0.16091365 57.18107605 -0.16243744 C59.11046272 -0.16543246 61.03984915 -0.17335198 62.9691925 -0.18662262 C89.31440142 -0.35483512 110.75098689 5.07166043 130.20898438 23.72363281 C144.20497213 37.79376852 151.20138747 56.05872242 151.26098633 75.78393555 C151.26755753 76.73607437 151.27412872 77.6882132 151.28089905 78.66920471 C151.30055867 81.81104627 151.31228123 84.95284007 151.32226562 88.09472656 C151.32634115 89.17375811 151.33041668 90.25278965 151.33461571 91.36451912 C151.35544993 97.08114554 151.36976046 102.79774817 151.37915039 108.5144043 C151.39018086 114.38473934 151.4245498 120.25469181 151.46432209 126.12489223 C151.49062056 130.66773627 151.49885415 135.21049118 151.50243187 139.75340462 C151.50726737 141.91528963 151.51879326 144.0771715 151.53746986 146.23898125 C151.66260361 161.68918099 150.7199367 175.54074231 143.33398438 189.47363281 C142.82073608 190.46834595 142.82073608 190.46834595 142.29711914 191.4831543 C139.21118767 197.27641427 135.51003478 202.3096747 131.08398438 207.16113281 C130.56707031 207.76957031 130.05015625 208.37800781 129.51757812 209.00488281 C118.82525094 220.79592031 100.56613946 230.15531947 84.73498154 231.33637619 C77.86885519 231.63708746 70.99823668 231.60708494 64.12695312 231.59472656 C61.89317162 231.59929647 59.65939151 231.60460442 57.4256134 231.61061096 C52.75821194 231.6195116 48.09098185 231.61715436 43.42358398 231.60717773 C37.47938309 231.59570225 31.53577755 231.61589404 25.59165478 231.64509487 C20.98188089 231.66355372 16.37224707 231.66314501 11.76244545 231.65745735 C9.57266722 231.65730527 7.38287881 231.66325498 5.19313622 231.67574883 C-10.12720114 231.7508511 -24.09858309 230.85344404 -37.97851562 223.66113281 C-38.63279541 223.3256543 -39.2870752 222.99017578 -39.96118164 222.64453125 C-58.17259938 212.81761072 -70.43538607 196.42167711 -76.97851562 177.00878906 C-79.24970786 169.04869705 -80.06593869 161.29901105 -80.07714844 153.05151367 C-80.08211334 152.16589752 -80.08707825 151.28028137 -80.0921936 150.36782837 C-80.106731 147.45386968 -80.11360438 144.53996548 -80.11914062 141.62597656 C-80.121968 140.62384188 -80.12479538 139.62170719 -80.12770844 138.58920479 C-80.14266973 133.28220484 -80.15191755 127.97523183 -80.15625 122.66821289 C-80.1617192 117.22048836 -80.18572332 111.77301569 -80.21422195 106.32536983 C-80.2329658 102.10682994 -80.23806023 97.88834919 -80.23958588 93.66977119 C-80.24258826 91.66337271 -80.25053378 89.65697466 -80.26377106 87.6506176 C-80.39188906 66.73315545 -77.57231658 46.90836608 -63.91601562 30.16113281 C-63.24828125 29.33097656 -62.58054687 28.50082031 -61.89257812 27.64550781 C-46.02717154 8.97358526 -24.20238882 0.03434806 0 0 Z " fill="#000000" transform="translate(360.916015625,280.8388671875)"/>
<path d="M0 0 C1.95662545 -0.00202798 3.91325015 -0.00494538 5.86987305 -0.00869751 C9.94424734 -0.01308686 14.01842254 -0.00680028 18.09277344 0.00732422 C23.26993161 0.02441391 28.44662291 0.01455435 33.62376404 -0.00339317 C37.65624397 -0.0143234 41.68861637 -0.01074271 45.72109985 -0.0030098 C47.6281439 -0.00103321 49.53519827 -0.00337572 51.44223022 -0.01044846 C67.57996332 -0.05719051 82.60629625 1.05539459 97.3125 8.3984375 C98.77236328 9.11966797 98.77236328 9.11966797 100.26171875 9.85546875 C117.53970326 19.13815062 130.30991166 34.45439972 136.5390625 53.0625 C139.04610815 61.62974233 140.4615642 69.47740576 140.47363281 78.37866211 C140.47859772 79.26252594 140.48356262 80.14638977 140.48867798 81.05703735 C140.50324042 83.97162671 140.51009398 86.88616153 140.515625 89.80078125 C140.51986607 91.30348666 140.51986607 91.30348666 140.52419281 92.83654976 C140.53916653 98.14469795 140.54840572 103.45281912 140.55273438 108.76098633 C140.55819669 114.20752041 140.58218248 119.65380169 140.61070633 125.10025692 C140.62946655 129.31883936 140.63454552 133.53736274 140.63607025 137.75598335 C140.63907041 139.76155533 140.6470081 141.76712693 140.66025543 143.77265739 C140.81843186 169.57409338 135.58168618 190.25310917 117.3125 209.3984375 C116.78269531 210.01460937 116.25289062 210.63078125 115.70703125 211.265625 C105.80148235 222.31706002 89.75980542 229.12733524 75.3125 231.3984375 C72.08193126 231.55755572 68.85367625 231.56590676 65.61962891 231.57543945 C64.64812897 231.58201065 63.67662903 231.58858185 62.6756897 231.59535217 C59.46347975 231.61504383 56.25131662 231.62674237 53.0390625 231.63671875 C51.38604189 231.64283204 51.38604189 231.64283204 49.69962692 231.64906883 C43.8598118 231.66991802 38.02002005 231.68422134 32.18017578 231.69360352 C26.18090015 231.70462899 20.18199939 231.73898776 14.18285561 231.77877522 C9.54307419 231.80507046 4.90338008 231.81330706 0.26353073 231.81688499 C-1.9458022 231.82172239 -4.15513198 231.83325387 -6.36439133 231.85192299 C-29.89331511 232.03829723 -48.76184425 227.48219101 -66.6875 211.3984375 C-67.60208984 210.62306641 -67.60208984 210.62306641 -68.53515625 209.83203125 C-77.43332594 201.74462873 -84.0157797 189.73520893 -87.6875 178.3984375 C-88.05653694 177.33059525 -88.05653694 177.33059525 -88.43302917 176.24118042 C-91.61513607 165.64834007 -91.14123037 154.86358257 -91.12109375 143.9140625 C-91.12566427 141.72751708 -91.13097241 139.5409731 -91.13697815 137.35443115 C-91.14587819 132.7853815 -91.14352272 128.21650691 -91.13354492 123.64746094 C-91.12207673 117.83338967 -91.14225029 112.01992774 -91.17146206 106.20593643 C-91.18993803 101.69305674 -91.18950873 97.18031989 -91.18382454 92.6674118 C-91.18367262 90.52590838 -91.18960793 88.38439445 -91.20211601 86.24292755 C-91.31249497 64.2457593 -87.98913366 44.38025054 -72.6875 27.3984375 C-71.88570312 26.50382812 -71.08390625 25.60921875 -70.2578125 24.6875 C-50.855783 4.16071517 -26.95887345 -0.09998423 0 0 Z " fill="#000000" transform="translate(90.6875,280.6015625)"/>
</svg>
