<?xml version="1.0" encoding="UTF-8"?>
<svg version="1.1" xmlns="http://www.w3.org/2000/svg" width="512" height="512">
<path d="M0 0 C1.32039595 1.1157221 2.63368496 2.23994599 3.9375 3.375 C4.52402344 3.81972656 5.11054688 4.26445313 5.71484375 4.72265625 C19.79500352 15.67389163 28.4836326 34.4861105 31.5234375 51.69140625 C34.30564252 76.44253203 28.4627242 98.84759863 12.9375 118.375 C1.38246443 131.60878602 -13.38782033 139.52491288 -30.0625 144.375 C-30.701875 144.58382812 -31.34125 144.79265625 -32 145.0078125 C-35.30444079 145.5961031 -38.70610092 145.375 -42.0625 145.375 C-42.0625 169.795 -42.0625 194.215 -42.0625 219.375 C-30.76128906 219.32859375 -19.46007812 219.2821875 -7.81640625 219.234375 C-0.65689738 219.21393691 6.50259033 219.19451547 13.66210938 219.1796875 C25.02603382 219.15596271 36.38983955 219.12808794 47.75366211 219.07324219 C56.03027454 219.03331549 64.30679056 219.00755321 72.58349663 218.99864602 C76.96411043 218.99344113 81.34444845 218.98124802 85.72497368 218.95207977 C89.85278554 218.92481837 93.98020945 218.91657652 98.1081028 218.92256927 C99.61853523 218.92147381 101.12898137 218.91358381 102.63933563 218.8981781 C112.33128926 218.8042146 120.04228192 219.35004291 127.75 225.6875 C133.3317848 232.54512133 135.0699674 238.64518998 135.05102539 247.47216797 C135.05094986 248.65293915 135.05087433 249.83371033 135.05079651 251.05026245 C135.04563522 252.30984772 135.04047394 253.56943298 135.03515625 254.8671875 C135.03303383 256.81880295 135.03303383 256.81880295 135.03086853 258.80984497 C135.02706844 262.25229853 135.01725983 265.69470925 135.00616455 269.137146 C134.99589625 272.65652894 134.99135934 276.17591887 134.98632812 279.6953125 C134.97563509 286.58855916 134.95858911 293.48177752 134.9375 300.375 C136.0595282 300.4662188 136.0595282 300.4662188 137.20422363 300.5592804 C138.18934937 300.6432457 139.1744751 300.727211 140.18945312 300.8137207 C141.16434692 300.89515823 142.13924072 300.97659576 143.14367676 301.0605011 C157.78151945 302.70827372 171.10186102 310.84316148 181.9375 320.375 C183.08025391 321.37466797 183.08025391 321.37466797 184.24609375 322.39453125 C198.44644791 335.65968011 207.52386738 354.86071683 208.2734375 374.29296875 C208.44523625 386.30274537 208.15835579 397.00903538 203.9375 408.375 C203.56367188 409.4371875 203.18984375 410.499375 202.8046875 411.59375 C195.78742012 429.9966499 180.50239184 445.64203265 162.9375 454.375 C139.79467059 463.80452756 117.39189026 464.82988783 93.9375 455.375 C86.51713524 451.95747831 80.21385227 447.56411014 73.9375 442.375 C72.926875 441.611875 71.91625 440.84875 70.875 440.0625 C60.41660351 430.49417981 50.01179985 414.73346517 47.9375 400.375 C47.99973429 396.45423962 48.04167001 394.40354554 50.625 391.4375 C53.69033164 390.02910438 55.59345685 389.89727955 58.9375 390.375 C63.98350055 393.47051207 65.31061963 396.94430792 67.0625 402.3125 C68.65024605 406.99420526 70.18561593 411.21460722 72.9375 415.375 C75.53723915 412.87925042 77.87759252 410.25920299 80.1875 407.5 C85.22990394 401.70177534 90.91968644 397.5330161 97.9375 394.375 C96.79355334 392.07605405 95.63553988 389.78549695 94.46484375 387.5 C93.67787109 385.953125 93.67787109 385.953125 92.875 384.375 C92.34777344 383.34375 91.82054687 382.3125 91.27734375 381.25 C87.41773221 372.96815134 87.70006036 362.91556274 90.6875 354.375 C92.35706335 350.36569645 94.29588031 346.84212585 96.9375 343.375 C97.82501953 342.17037109 97.82501953 342.17037109 98.73046875 340.94140625 C101.05053126 338.24356365 103.24656039 336.57792521 106.25 334.6875 C107.15363281 334.10613281 108.05726563 333.52476562 108.98828125 332.92578125 C118.08646073 328.14170542 129.53101029 327.76979452 139.4296875 330.25 C150.06293778 334.3626057 158.17932641 341.83569746 163.05078125 352.15625 C166.86811713 361.70799794 167.18667493 372.77639365 163.125 382.3125 C161.33972632 385.86996843 159.1790062 389.09279449 156.9375 392.375 C156.9375 393.035 156.9375 393.695 156.9375 394.375 C159.01941997 395.83090346 159.01941997 395.83090346 161.625 397.25 C167.53090612 400.59230539 172.02101525 404.16399288 176.25 409.5 C176.94738281 410.36882812 177.64476562 411.23765625 178.36328125 412.1328125 C179.9375 414.375 179.9375 414.375 179.9375 416.375 C180.5975 416.375 181.2575 416.375 181.9375 416.375 C182.2159375 415.66988281 182.494375 414.96476562 182.78125 414.23828125 C183.5514367 412.33102838 184.34317112 410.43233473 185.15625 408.54296875 C185.5790625 407.55941406 186.001875 406.57585937 186.4375 405.5625 C186.8603125 404.58667969 187.283125 403.61085938 187.71875 402.60546875 C192.63771621 389.56705512 193.44086493 372.35252946 187.9375 359.375 C187.69 358.77913086 187.4425 358.18326172 187.1875 357.56933594 C180.26033139 341.28567916 169.43922973 328.70402124 152.99414062 321.52685547 C135.98202094 314.81353381 118.56185897 315.05162432 101.5625 321.625 C93.58142288 325.23005796 87.00044864 330.12258421 80.9375 336.375 C80.2775 336.375 79.6175 336.375 78.9375 336.375 C78.66550781 336.9525 78.39351563 337.53 78.11328125 338.125 C76.93929457 340.37156588 75.60188933 342.31748663 74.125 344.375 C71.09057837 348.85649374 69.09163079 353.48218138 67.09375 358.49609375 C63.01223749 368.65850834 63.01223749 368.65850834 58.9375 371.375 C56.13592889 371.59528483 53.61411742 371.22083336 50.9375 370.375 C48.875 368.3125 48.875 368.3125 47.9375 365.375 C47.9375 349.74341341 59.4961379 332.94049978 70.0625 322.21875 C82.69702424 310.48669177 101.18762589 300.03605958 118.9375 300.375 C118.87620675 292.89885405 118.799042 285.423048 118.70178509 277.94727802 C118.65711627 274.47569934 118.61785293 271.00423706 118.59106445 267.5324707 C118.56000545 263.5382744 118.50521812 259.54470632 118.44921875 255.55078125 C118.43963387 253.68647209 118.43963387 253.68647209 118.42985535 251.78450012 C118.41006119 250.62367416 118.39026703 249.46284821 118.36987305 248.2668457 C118.35876999 247.24758499 118.34766693 246.22832428 118.33622742 245.17817688 C117.87341964 241.9244953 116.86218475 240.0178784 114.9375 237.375 C112.16805586 235.99027793 109.91301711 236.23431229 106.81259155 236.21678162 C104.85217674 236.20209839 104.85217674 236.20209839 102.85215759 236.18711853 C101.39541663 236.18121393 99.93867527 236.17540351 98.48193359 236.16967773 C96.9545617 236.16010203 95.42719247 236.15009213 93.89982605 236.13967896 C89.74513534 236.11259051 85.59043322 236.09160232 81.4357028 236.07167697 C77.09681324 236.04984167 72.75795899 236.02244099 68.4190979 235.99562073 C60.1991378 235.94566056 51.97915812 235.90073408 43.75915968 235.85759836 C34.40255704 235.80825436 25.04598982 235.75332573 15.68942142 235.69791877 C-3.56118767 235.58404769 -22.81182924 235.47795716 -42.0625 235.375 C-42.0625 256.825 -42.0625 278.275 -42.0625 300.375 C-39.7525 300.375 -37.4425 300.375 -35.0625 300.375 C-14.27755406 304.13920281 4.12046598 315.61426321 16.9375 332.375 C30.26826726 352.18512687 34.8620306 374.56130722 30.875 398.0625 C27.90259217 410.93830401 22.32234381 422.1695427 13.9375 432.375 C13.37289063 433.09042969 12.80828125 433.80585938 12.2265625 434.54296875 C-1.0574789 450.66468097 -20.81565484 459.57306671 -41.25390625 462.125 C-56.16453071 463.10374868 -70.6399392 461.17853168 -84.0625 454.375 C-84.93648437 453.94316406 -85.81046875 453.51132812 -86.7109375 453.06640625 C-105.593695 443.30767023 -119.74588009 427.1618127 -126.3671875 406.91015625 C-128.499573 399.13533496 -128.499573 399.13533496 -128.0625 395.375 C-125.67484617 391.82969582 -124.2480322 390.62198588 -120.0625 389.75 C-116.01286757 390.59367342 -114.73324483 392.24930179 -112.0625 395.375 C-110.5859375 398.75 -110.5859375 398.75 -109.4375 402.375 C-108.02325922 406.77907866 -106.48961078 410.44672822 -104.0625 414.375 C-104.0625 415.035 -104.0625 415.695 -104.0625 416.375 C-101.47848451 413.89434513 -99.12718942 411.29033765 -96.8125 408.5625 C-91.307636 402.24602144 -85.50070914 397.24906726 -78.0625 393.375 C-78.46082031 392.818125 -78.85914063 392.26125 -79.26953125 391.6875 C-86.00163467 381.99065031 -89.18156144 372.92535923 -87.5 361 C-85.49731462 351.57402747 -81.03812723 342.10109134 -73.0625 336.375 C-61.35172818 329.68313039 -49.84179411 327.06510051 -36.5234375 330.2109375 C-25.69677288 334.37934326 -17.90421324 341.85022663 -13.0625 352.375 C-9.55696185 362.62659095 -9.62274558 374.01727625 -13.83984375 384.0234375 C-15.61606963 387.43969302 -17.65748511 390.36873138 -20.0625 393.375 C-19.4334375 393.79910156 -18.804375 394.22320312 -18.15625 394.66015625 C-9.39147529 400.66613892 -2.10336645 406.5654031 3.9375 415.375 C12.2396206 407.96584005 14.28003483 394.43874169 15.2578125 383.93359375 C15.85267433 366.50414223 9.84526316 350.17033885 -1.5234375 336.9765625 C-14.1407869 324.04863219 -29.55209234 317.45649457 -47.33984375 316.41015625 C-65.56763402 316.23801552 -82.47999501 323.20340216 -95.68359375 335.75 C-102.99753167 343.82055219 -107.764187 352.7628677 -110.94824219 363.13305664 C-112.00363775 366.38555669 -112.80943589 368.1720636 -115.5078125 370.3359375 C-119.09513859 371.79500285 -121.36801327 371.40124631 -125.0625 370.375 C-127.65109984 368.20391626 -127.99790857 366.75447467 -128.5625 363.4375 C-127.80729956 347.40665434 -115.05706966 330.69751507 -103.95703125 320.0234375 C-90.78553711 308.56287971 -75.30539213 302.09928921 -58.0625 300.375 C-58.0625 278.925 -58.0625 257.475 -58.0625 235.375 C-77.94217389 235.4829587 -97.82181162 235.59494744 -117.70141983 235.71433926 C-126.93163029 235.76964357 -136.16184462 235.823121 -145.39208984 235.87231445 C-153.4361184 235.91519047 -161.48011882 235.96147712 -169.52410388 236.01187855 C-173.78426141 236.03845192 -178.04441347 236.06330433 -182.30460358 236.08407402 C-186.31331894 236.10367154 -190.32198088 236.12782466 -194.33064842 236.15549088 C-195.80283576 236.1648448 -197.27503481 236.17252603 -198.74724007 236.17841911 C-200.75585373 236.18670838 -202.76443706 236.20157386 -204.77301025 236.21678162 C-205.89759769 236.22323417 -207.02218513 236.22968672 -208.18085098 236.2363348 C-210.65093082 236.35519526 -212.70848571 236.65701869 -215.0625 237.375 C-215.90325734 241.05400789 -216.21031934 244.49629649 -216.26782227 248.2668457 C-216.28776749 249.42767166 -216.30771271 250.58849762 -216.32826233 251.78450012 C-216.34497482 253.02737289 -216.36168732 254.27024567 -216.37890625 255.55078125 C-216.4100779 257.47122505 -216.4100779 257.47122505 -216.44187927 259.4304657 C-216.49687572 262.82189729 -216.54638312 266.21338735 -216.59472656 269.60491943 C-216.64510616 273.07064979 -216.70070601 276.53629603 -216.75585938 280.00195312 C-216.86287429 286.7929016 -216.96467134 293.58391331 -217.0625 300.375 C-216.37882858 300.43916611 -215.69515717 300.50333221 -214.99076843 300.56944275 C-214.09235733 300.65601639 -213.19394623 300.74259003 -212.26831055 300.83178711 C-211.37838913 300.91657822 -210.48846771 301.00136932 -209.57157898 301.08872986 C-192.74333275 303.00872699 -178.57455706 312.59753529 -167.0625 324.375 C-166.25039062 325.16648437 -165.43828125 325.95796875 -164.6015625 326.7734375 C-150.84689417 340.90365991 -144.3218295 360.83064662 -143.8125 380.3125 C-144.46894117 404.25329552 -153.26229157 423.77331693 -170.0625 440.375 C-171.04669922 441.37466797 -171.04669922 441.37466797 -172.05078125 442.39453125 C-186.68152752 456.27337621 -207.85783269 462.82609335 -227.69067383 462.35180664 C-247.2840001 461.48803488 -265.5438698 454.69647999 -280.0625 441.375 C-280.81789063 440.71113281 -281.57328125 440.04726563 -282.3515625 439.36328125 C-293.03504033 429.43241956 -303.81331051 413.22383129 -304.75 398.1875 C-304.0625 394.375 -304.0625 394.375 -301.9375 391.8125 C-298.57614699 390.1318235 -296.76782093 389.74430708 -293.0625 390.375 C-288.87734502 393.60003119 -287.63197837 397.48694669 -286 402.3125 C-283.64386391 410.55522261 -283.64386391 410.55522261 -278.0625 416.375 C-277.80339844 415.64023437 -277.54429687 414.90546875 -277.27734375 414.1484375 C-273.35586579 405.19586724 -265.20002065 400.12079152 -257.0625 395.375 C-256.0725 394.715 -255.0825 394.055 -254.0625 393.375 C-254.46082031 392.8903125 -254.85914063 392.405625 -255.26953125 391.90625 C-262.00184739 383.38847775 -265.05659176 374.36523673 -264.0625 363.375 C-262.2047834 351.83511639 -257.41370861 342.93356984 -247.99609375 335.8125 C-237.73548443 328.59014217 -226.49990454 328.00549158 -214.34375 329.76953125 C-205.10737772 332.36307782 -197.0653187 339.07254996 -192.20703125 347.20703125 C-186.94980408 357.16526019 -185.22924533 367.58303238 -188.25 378.625 C-189.62180279 382.70102647 -191.54172634 386.14939217 -193.9765625 389.68359375 C-195.24130888 391.5006968 -195.24130888 391.5006968 -196.0625 394.375 C-195.44503906 394.7153125 -194.82757813 395.055625 -194.19140625 395.40625 C-185.8070849 400.20458307 -177.79253163 405.73755094 -173.0625 414.375 C-173.0625 415.035 -173.0625 415.695 -173.0625 416.375 C-164.64334135 408.7390189 -162.21517621 395.79444195 -161.25 385 C-160.41224902 367.38940487 -165.81873676 351.13568849 -177.34765625 337.71484375 C-190.01828654 324.40164583 -205.69053243 317.37510932 -223.95458984 316.41796875 C-241.86774627 316.05281754 -258.5443507 323.05424062 -271.4375 335.3125 C-278.74549819 343.06019103 -283.65720028 352.08328293 -287 362.125 C-288.19613449 365.46304975 -289.06318742 367.37581747 -291.375 370.125 C-295.04408335 371.8315504 -297.20611533 371.44621796 -301.0625 370.375 C-304.0048778 368.06899694 -304.05097612 367.46431008 -304.5625 363.5 C-303.98171361 346.51891221 -290.99293337 330.70710095 -279.3984375 319.46875 C-266.96425187 308.32372743 -249.92521764 300.16256025 -233.0625 300.375 C-233.06916183 299.64552155 -233.07582367 298.91604309 -233.08268738 298.16445923 C-233.14308613 291.25103713 -233.18861953 284.33765506 -233.21793652 277.42403603 C-233.23351602 273.87062849 -233.25461071 270.31744106 -233.28881836 266.76416016 C-233.32799776 262.66827418 -233.34227284 258.57261526 -233.35546875 254.4765625 C-233.37095261 253.2157486 -233.38643646 251.95493469 -233.40238953 250.65591431 C-233.40396306 242.31934911 -232.73382591 234.82720986 -228.375 227.5625 C-222.02049179 221.55147872 -216.34367406 219.24776433 -207.65911865 219.25474548 C-205.68195862 219.25268349 -205.68195862 219.25268349 -203.66485596 219.25057983 C-202.20593239 219.25411879 -200.74700905 219.25775359 -199.28808594 219.26147461 C-197.75056968 219.26175671 -196.21305329 219.26159831 -194.67553711 219.2610321 C-190.50234156 219.26074501 -186.32917471 219.26662757 -182.15598583 219.27360606 C-177.79444206 219.2798542 -173.43289765 219.28044456 -169.0713501 219.28163147 C-160.81247338 219.28474047 -152.5536099 219.29294806 -144.29473901 219.30298096 C-133.13428703 219.31624462 -121.97383144 219.32164549 -110.81337357 219.32748318 C-93.22973914 219.33688823 -75.64613262 219.35681004 -58.0625 219.375 C-58.0625 194.955 -58.0625 170.535 -58.0625 145.375 C-61.6925 145.045 -65.3225 144.715 -69.0625 144.375 C-71.84843357 143.5939951 -74.34530135 142.81797828 -77 141.75 C-77.6796582 141.48276123 -78.35931641 141.21552246 -79.05957031 140.94018555 C-101.55349713 131.8162385 -116.73963734 114.72078444 -126.23046875 92.66015625 C-127.85480148 88.19896071 -128.79601858 84.14287078 -128.0625 79.375 C-126.0625 76.375 -126.0625 76.375 -123.0625 74.375 C-120.16430415 74.00285812 -117.71614008 74.12035009 -115.0625 75.375 C-111.85913166 79.70518133 -110.2119924 84.85159551 -108.3125 89.84765625 C-106.85903757 93.59486408 -105.24463853 96.99788085 -103.0625 100.375 C-102.58941406 99.7459375 -102.11632812 99.116875 -101.62890625 98.46875 C-94.91373251 89.77698516 -88.22166226 82.80808899 -78.0625 78.375 C-78.46082031 77.7459375 -78.85914063 77.116875 -79.26953125 76.46875 C-86.30351757 65.10484022 -89.40712001 55.75830887 -86.8515625 42.3671875 C-84.01531673 31.6119189 -77.7790782 23.47744246 -68.390625 17.6640625 C-58.99998745 12.46454842 -48.05216088 11.55897956 -37.6796875 14.25390625 C-26.32814422 18.65226637 -18.49402934 25.4216666 -13.0625 36.375 C-9.66376585 46.10359138 -9.41114493 57.45916444 -13.3125 67.0625 C-15.24973539 71.07495051 -17.38968775 74.81125033 -20.0625 78.375 C-19.45664062 78.70371094 -18.85078125 79.03242187 -18.2265625 79.37109375 C-8.82014972 84.71104193 -0.91287967 91.20940518 4.9375 100.375 C14.4294031 83.66925054 17.77748566 66.08854086 12.84692383 47.23022461 C7.81887126 30.00053922 -2.84227539 17.63125239 -18.08203125 8.58203125 C-32.82773245 0.75502078 -50.36274404 -1.57037603 -66.62768555 2.8137207 C-83.73232638 8.15565413 -96.65475374 18.31343069 -105.46484375 33.84765625 C-108.19387253 39.08175096 -110.21413122 44.39520139 -111.97265625 50.02734375 C-113.254897 52.78944659 -114.45764676 53.84070197 -117.0625 55.375 C-121.03480815 56.05113756 -122.58469577 55.67998142 -126 53.5 C-128.53205155 49.66355825 -128.60293061 47.89550072 -127.8984375 43.44921875 C-125.01440261 32.8429783 -119.98838287 22.89804663 -113.0625 14.375 C-112.39605469 13.54613281 -111.72960937 12.71726562 -111.04296875 11.86328125 C-83.65642219 -20.35908795 -33.65878068 -25.72900015 0 0 Z M-65.98828125 36.3828125 C-71.18947424 43.11084734 -71.80956109 48.97589886 -71.0625 57.375 C-69.33822537 63.63847954 -65.32383051 67.75206627 -60.0625 71.375 C-54.46187844 74.50475911 -49.20513442 74.91538371 -43.0625 73.375 C-36.33852847 71.09568762 -31.76101037 67.13507935 -28.0625 61.125 C-25.89104044 52.98202665 -26.22808197 46.05036396 -30.36328125 38.609375 C-33.86316683 34.00722661 -38.63303925 31.18482025 -44.0625 29.375 C-52.48487146 28.29322752 -59.98434285 30.12312824 -65.98828125 36.3828125 Z M-84.8828125 103.39453125 C-87.93273479 107.24745241 -89.6189892 110.64162737 -91.0625 115.375 C-75.44866891 126.41775574 -59.06423189 132.64310262 -39.5625 129.87890625 C-28.35021698 127.70283816 -18.02947772 123.58799747 -9.0625 116.375 C-8.0725 114.89 -8.0725 114.89 -7.0625 113.375 C-12.94469187 102.30132817 -20.57398388 94.61711655 -32.82299805 90.83081055 C-37.98365963 89.78045023 -43.37890667 90.10299995 -48.625 90.0625 C-49.85025391 90.03349609 -51.07550781 90.00449219 -52.33789062 89.97460938 C-65.54298146 89.88315163 -75.91375549 93.44388216 -84.8828125 103.39453125 Z M-242.9375 353.1875 C-247.08107322 358.32439557 -248.3139657 362.81657127 -247.9375 369.375 C-246.93023115 376.92951636 -243.66549793 381.26573262 -237.94140625 386.11328125 C-232.31182394 389.89364525 -226.64606778 390.12292285 -220.0625 389.375 C-213.60036442 387.35898806 -209.11144969 383.37524776 -205.3125 377.8125 C-202.61976057 372.56165811 -202.21393183 367.00313006 -203.55859375 361.25390625 C-205.96316627 354.067359 -210.67459651 350.26328908 -217.0625 346.375 C-227.14197447 343.01517518 -235.83735636 345.66368524 -242.9375 353.1875 Z M-66.4375 352.8125 C-70.94806781 358.24282046 -71.51451885 363.49512553 -71.37109375 370.37109375 C-70.64556769 377.43349295 -67.28316441 381.71143188 -61.94140625 386.1484375 C-56.01543991 390.01694775 -49.94304902 390.2307028 -43.0625 389.375 C-37.49162288 387.38069192 -33.25883733 384.41537809 -30.0625 379.375 C-29.19625 378.1065625 -29.19625 378.1065625 -28.3125 376.8125 C-26.16839074 370.91619955 -25.9329798 364.81062394 -27.90625 358.80859375 C-31.12843147 352.37511656 -36.20201315 347.66182895 -43.0625 345.375 C-52.74499296 344.49998953 -59.75675626 345.45725809 -66.4375 352.8125 Z M110.015625 352.60546875 C105.5536251 359.11786384 104.09639694 364.50134084 104.9375 372.375 C107.1072639 379.19088877 111.4123647 384.08527789 117.5625 387.6875 C123.21874894 390.30218111 129.24659387 390.44860264 135.20703125 388.71484375 C141.878832 385.76802545 146.25826502 380.75400514 148.875 374 C150.45100415 368.44151829 150.35418766 363.50751653 147.95703125 358.20703125 C144.34833918 351.98232939 139.84333762 347.71786936 132.9375 345.375 C124.24549594 344.10658159 115.92983975 345.74161383 110.015625 352.60546875 Z M-258.61328125 415.71875 C-262.36228706 420.00332807 -267.0625 425.54629792 -267.0625 431.375 C-265.08857423 433.02199431 -263.22069657 434.38142955 -261.0625 435.75 C-260.43674072 436.14703125 -259.81098145 436.5440625 -259.16625977 436.953125 C-244.15408647 446.03948925 -227.11668414 448.13556982 -210.0625 444.375 C-200.10023304 441.67484458 -192.31938135 437.4693648 -184.0625 431.375 C-184.92275187 423.36535758 -189.5201166 418.36040488 -195.546875 413.28125 C-212.78564544 401.24471206 -242.50835864 401.32122606 -258.61328125 415.71875 Z M-84.30078125 418.10546875 C-87.22285427 421.86982446 -89.20074133 426.00702773 -91.0625 430.375 C-77.87994948 441.66967909 -61.81026989 447.18716686 -44.42578125 446.16015625 C-31.30099961 444.74381291 -19.58695768 440.46483815 -9.0625 432.375 C-8.0725 430.89 -8.0725 430.89 -7.0625 429.375 C-12.19051557 419.56138589 -19.24968829 411.01116677 -30.0625 407.375 C-48.55985457 402.6764019 -70.56300105 403.53171815 -84.30078125 418.10546875 Z M92 418.375 C87.50821489 423.72654099 87.50821489 423.72654099 86.0078125 430.296875 C88.6449252 436.19159751 99.33413417 440.3546226 105.1875 442.75 C122.21136817 448.29265475 139.76580452 447.05289423 155.9375 439.375 C160.43223655 436.93259977 164.68409979 434.21060014 168.9375 431.375 C167.92401525 424.3431675 163.81867976 418.9239185 158.56640625 414.27734375 C139.9576887 400.60385551 108.0808687 400.85355348 92 418.375 Z " fill="#000000" transform="translate(304.0625,33.625)"/>
</svg>
