<?xml version="1.0" encoding="UTF-8"?>
<svg version="1.1" xmlns="http://www.w3.org/2000/svg" width="512" height="512">
<path d="M0 0 C1.10824043 -0.00453111 2.21648085 -0.00906223 3.35830432 -0.01373065 C7.0675101 -0.02637898 10.77656913 -0.02475396 14.48579407 -0.02310181 C17.14713078 -0.02908683 19.80845605 -0.03583591 22.4697876 -0.04345703 C28.94660192 -0.06004524 35.42337983 -0.06556562 41.90021362 -0.06668179 C47.16787444 -0.06763343 52.43552328 -0.07174951 57.70318031 -0.07808304 C72.65284912 -0.09569057 87.60248926 -0.10492283 102.55216851 -0.10342209 C103.3575208 -0.10334218 104.1628731 -0.10326227 104.99263 -0.10317993 C105.79897099 -0.10309817 106.60531197 -0.10301641 107.43608753 -0.10293217 C120.4964353 -0.10211971 133.55666762 -0.12124844 146.61698201 -0.14945666 C160.04181709 -0.17822228 173.46659595 -0.19199489 186.89146262 -0.19026911 C194.42259175 -0.18960641 201.95359988 -0.1950457 209.48470116 -0.21662521 C215.8983728 -0.23488565 222.31186863 -0.23914477 228.72555508 -0.22560637 C231.99398676 -0.21910062 235.26201361 -0.221069 238.53042603 -0.23631287 C242.08413959 -0.25180954 245.63697833 -0.24242674 249.19067383 -0.22705078 C250.71858733 -0.24248147 250.71858733 -0.24248147 252.27736777 -0.25822389 C268.18080921 -0.10696806 280.966791 7.19435247 291.91279602 18.26742554 C301.74518684 28.99714135 306.22071573 41.56108584 306.20332336 55.98080444 C306.21004059 56.79992813 306.21675781 57.61905182 306.22367859 58.46299744 C306.24250185 61.14005784 306.24657379 63.81686581 306.24873352 66.49398804 C306.25516889 68.37007751 306.2618978 70.246166 306.26890564 72.12225342 C306.28083662 76.040785 306.28459043 79.95922866 306.28340149 83.8777771 C306.28319774 88.88906516 306.31057619 93.8997897 306.34494591 98.91094398 C306.36721323 102.78007585 306.37123919 106.64907158 306.37018204 110.51826096 C306.3725353 112.36577687 306.38134329 114.21329669 306.39684677 116.06074905 C306.41651772 118.64517855 306.41066643 121.22838509 306.39863586 123.81283569 C306.40987488 124.56834213 306.42111389 125.32384857 306.43269348 126.10224915 C306.36824663 131.5706764 305.00092677 134.74084765 301.91279602 139.26742554 C296.30431044 144.4552747 292.12019066 145.68946485 284.59638977 145.50961304 C278.23444376 144.93546362 275.00961225 141.65101661 271.11201477 136.98617554 C268.48002637 133.21394461 268.767642 129.3233681 268.77095032 124.92538452 C268.76573868 123.80765404 268.76573868 123.80765404 268.76042175 122.66734314 C268.75307018 121.04843835 268.74772161 119.42952351 268.74413109 117.810606 C268.73695174 115.24095942 268.72127162 112.67150226 268.70278931 110.10191345 C268.65040757 102.79537649 268.60240933 95.48894091 268.58686829 88.18222046 C268.57673571 83.71111936 268.54727373 79.24049208 268.50554848 74.76957893 C268.49330322 73.07252667 268.48810529 71.37540726 268.49034691 69.6783123 C268.68401769 56.4188185 268.68401769 56.4188185 263.91279602 44.26742554 C257.9102561 38.47391316 252.27063284 38.11891577 244.15565491 38.14717102 C243.26202279 38.1463166 242.36839068 38.14546217 241.4476788 38.14458185 C238.44742417 38.14293217 235.44722521 38.1484401 232.44697571 38.15390015 C230.29862977 38.15418215 228.15028374 38.15402402 226.00193787 38.15345764 C220.16350955 38.1531702 214.32510168 38.1590584 208.48667812 38.1660316 C202.3874465 38.17227393 196.28821443 38.17286963 190.1889801 38.17405701 C178.63642025 38.17716772 167.08386983 38.18537763 155.53131413 38.1954065 C142.38032411 38.20657568 129.22933364 38.21208012 116.07834005 38.21710193 C89.02315347 38.22756044 61.96797527 38.24515488 34.91279602 38.26742554 C35.60760574 38.65519669 36.30241547 39.04296783 37.01828003 39.44248962 C40.23501603 41.23853988 43.45086167 43.03617883 46.66670227 44.83383179 C48.3052417 45.74824036 48.3052417 45.74824036 49.97688293 46.68112183 C57.31137851 50.78296119 64.59811638 54.95931774 71.85029602 59.20492554 C72.95639221 59.85203491 74.0624884 60.49914429 75.20210266 61.16586304 C76.06698303 61.67375366 76.9318634 62.18164429 77.82295227 62.70492554 C84.12850294 66.39956024 90.45592643 70.05562563 96.78779602 73.70492554 C98.39497498 74.63220459 98.39497498 74.63220459 100.03462219 75.57821655 C105.05355521 78.47264202 110.07517759 81.36216135 115.10458374 84.23835754 C162.15321552 111.14565574 162.15321552 111.14565574 168.40498352 133.81820679 C169.78520025 140.47509823 170.05379372 146.81823475 170.03305054 153.60017395 C170.03433217 155.14047755 170.03433217 155.14047755 170.0356397 156.71189839 C170.03728389 160.14505747 170.0317905 163.57816745 170.02632141 167.01132202 C170.02603928 169.47537739 170.02619777 171.93943284 170.02676392 174.40348816 C170.02699147 179.70450405 170.02415912 185.00550472 170.01852608 190.30651665 C170.01038704 197.97081783 170.00779339 205.63511306 170.00653809 213.2994181 C170.00435135 225.73529049 169.9977015 238.17115632 169.98823547 250.60702515 C169.97905158 262.68482429 169.97197553 274.76262165 169.96772766 286.84042358 C169.96746494 287.58533341 169.96720221 288.33024324 169.96693153 289.0977261 C169.96562646 292.83484946 169.96436276 296.57197283 169.96311963 300.30909622 C169.95275878 331.29521077 169.93507622 362.28131715 169.91279602 393.26742554 C180.87472778 393.22934154 191.83631871 393.16994013 202.79798222 393.0835228 C207.88826832 393.04405861 212.9783817 393.01186487 218.06880188 392.99642944 C222.983825 392.98125598 227.89837325 392.94679797 232.81318474 392.89911652 C234.6857585 392.88430987 236.55840007 392.87638493 238.43103218 392.87554169 C241.05966095 392.87316811 243.68698154 392.84605783 246.31538391 392.81332397 C247.08502975 392.81835434 247.8546756 392.8233847 248.64764404 392.8285675 C255.19378445 392.70291632 259.51898854 390.66123302 264.22529602 385.95492554 C267.52512699 380.69963918 268.16213719 375.34072197 268.18403625 369.23397827 C268.189263 368.56959747 268.19448975 367.90521667 268.19987488 367.22070312 C268.21004482 365.79122184 268.21588293 364.36170426 268.21775627 362.93218803 C268.22144733 360.66567383 268.23824579 358.39958656 268.2585144 356.13316345 C268.31367899 349.6940302 268.3446279 343.25483678 268.36909485 336.81552124 C268.38500356 332.86508389 268.41524851 328.91495499 268.45385933 324.96467781 C268.46547115 323.46527449 268.47143934 321.965816 268.47154045 320.46636772 C268.47173337 318.3677446 268.49005912 316.26996909 268.51216125 314.17147827 C268.5172319 312.98013779 268.52230255 311.7887973 268.52752686 310.56135559 C269.14384077 305.29206565 270.98500029 302.15488232 274.78779602 298.51742554 C280.37853718 294.4920919 285.0899967 293.34634763 291.91279602 294.26742554 C298.10922176 296.28562758 301.5123255 299.50301903 304.99620056 304.96641541 C306.2923073 308.22014605 306.18311705 311.08545252 306.20332336 314.58358765 C306.21004059 315.31431488 306.21675781 316.04504211 306.22367859 316.7979126 C306.24266972 319.21360089 306.24658472 321.62901096 306.24873352 324.04476929 C306.25516569 325.73426932 306.26189436 327.42376826 306.26890564 329.11326599 C306.28088476 332.65987727 306.28458632 336.20639116 306.28340149 339.75302124 C306.28319941 344.26504561 306.31038259 348.77643222 306.34494591 353.28830624 C306.36736332 356.78281936 306.37123436 360.27718333 306.37018204 363.77176094 C306.37252032 365.43289936 306.38124216 367.09404302 306.39684677 368.75510979 C306.55090272 386.86453433 302.43494503 402.32814762 289.64326477 415.72445679 C278.13332161 426.44401758 263.77394288 431.45144808 248.24531555 431.38095093 C247.39587875 431.38109695 246.54644196 431.38124298 245.67126465 431.38139343 C242.87935279 431.3806999 240.08750865 431.3729338 237.29560852 431.36508179 C235.35362281 431.36321562 233.41163662 431.36179265 231.46965027 431.36079407 C226.37005808 431.35698456 221.27049459 431.34716767 216.1709137 431.33609009 C210.96248259 431.32584226 205.75404682 431.32128923 200.54560852 431.31625366 C190.33465845 431.30554397 180.12372962 431.28848639 169.91279602 431.26742554 C169.93636169 432.56607544 169.93636169 432.56607544 169.96040344 433.89096069 C170.01224353 437.17504134 170.04948444 440.45867296 170.07759094 443.74301147 C170.09246364 445.15095988 170.11276821 446.55886384 170.13911438 447.96664429 C170.47099297 466.1874296 167.28861376 482.32415524 154.42988586 496.03158569 C143.0897637 507.40191798 129.38235574 512.5914599 113.53779602 512.82992554 C95.34380637 512.57538578 82.3370536 504.45200102 67.07003784 495.33634949 C61.05608143 491.74607421 54.98603684 488.25610319 48.91279602 484.76742554 C46.74587174 483.51787218 44.57920547 482.26787128 42.41279602 481.01742554 C41.34029602 480.39867554 40.26779602 479.77992554 39.16279602 479.14242554 C35.91279602 477.26742554 32.66279602 475.39242554 29.41279602 473.51742554 C27.80295837 472.58869629 27.80295837 472.58869629 26.16059875 471.64120483 C24.00120207 470.39536784 21.84185933 469.14943736 19.68257141 467.90341187 C13.02430147 464.06142578 6.36397352 460.22303736 -0.29789734 456.38729858 C-3.57636817 454.49720487 -6.85148653 452.60140493 -10.12626648 450.70492554 C-13.77322425 448.59444441 -17.43118206 446.50816209 -21.11064148 444.45492554 C-37.65155482 435.15077288 -49.63299487 424.09324409 -55.08720398 405.26742554 C-55.97517916 401.50563414 -56.21494731 398.02226 -56.22142506 394.15995026 C-56.2258829 392.92489007 -56.23034074 391.68982987 -56.23493367 390.41734362 C-56.23484439 389.04970327 -56.23465455 387.68206293 -56.234375 386.31442261 C-56.2376756 384.85919201 -56.24140159 383.40396233 -56.24551648 381.94873381 C-56.25552236 377.94897001 -56.259251 373.94922122 -56.26190579 369.94944668 C-56.26581306 365.63567405 -56.27539114 361.32191326 -56.28411865 357.00814819 C-56.30387161 346.58961391 -56.31394801 336.17107867 -56.32284644 325.75253034 C-56.32723145 320.84395615 -56.33259773 315.93538303 -56.33783531 311.02680969 C-56.35484679 294.70544916 -56.36934025 278.38408929 -56.37658405 262.06272125 C-56.37849389 257.82822163 -56.38041423 253.59372201 -56.38237 249.35922241 C-56.38285374 248.30678233 -56.38333748 247.25434224 -56.38383587 246.17001003 C-56.39213354 229.12684635 -56.41746638 212.08375292 -56.44995067 195.04061991 C-56.4830432 177.53537534 -56.50103482 160.03016644 -56.50422829 142.52489042 C-56.50639141 132.69936485 -56.51511094 122.8739417 -56.54068947 113.04844666 C-56.56242647 104.67935413 -56.57043215 96.31038892 -56.56072269 87.94127136 C-56.55618661 83.6743151 -56.55802366 79.40762134 -56.57748413 75.14070129 C-56.59517858 71.22704367 -56.59406773 67.31383884 -56.57858684 63.40017599 C-56.57622023 61.99161878 -56.58048469 60.5830297 -56.59241549 59.17452103 C-56.73913233 40.69459119 -50.88508477 27.31056189 -38.08720398 14.26742554 C-37.5329071 13.68863647 -36.97861023 13.10984741 -36.40751648 12.51351929 C-26.5268382 3.09983824 -13.16483818 -0.03959572 0 0 Z " fill="#000000" transform="translate(83.08720397949219,-0.267425537109375)"/>
<path d="M0 0 C6.63041869 3.41007063 11.63249975 9.1667234 16.82666016 14.40356445 C17.99333449 15.56753955 19.16060166 16.7309207 20.32843018 17.89373779 C22.76554511 20.3249781 25.19533679 22.76324673 27.62011719 25.20678711 C30.7154991 28.32495686 33.82849626 31.42482003 36.94723129 34.51961136 C39.35840128 36.9162684 41.75989091 39.3224442 44.158638 41.73152924 C45.30228105 42.87782438 46.44885799 44.02120071 47.59850311 45.16147614 C60.47218506 57.95316725 60.47218506 57.95316725 62.15869141 66.60668945 C62.15675781 67.8905957 62.15675781 67.8905957 62.15478516 69.20043945 C62.17669922 70.05637695 62.19861328 70.91231445 62.22119141 71.79418945 C60.13959869 81.41347503 51.32833893 88.47278291 44.64306641 95.1887207 C43.46333539 96.38065455 42.28374702 97.5727296 41.10429382 98.76493835 C38.63935023 101.25225964 36.16811542 103.73313685 33.69311523 106.21044922 C30.53676948 109.37208522 27.40413079 112.55614502 24.27671528 115.74636555 C21.85126034 118.21284205 19.41000077 120.66320702 16.96419334 123.10948753 C15.80274934 124.27628511 14.64699082 125.4487731 13.49733925 126.62719154 C1.48085958 138.91914353 1.48085958 138.91914353 -7.40771484 139.70043945 C-13.74357884 139.3911884 -18.4071118 137.87481813 -23.00146484 133.3996582 C-26.66327541 128.97497043 -27.95544385 124.29320272 -27.68505859 118.66918945 C-26.25211376 108.49729937 -17.52979189 101.78227651 -10.64990234 94.92700195 C-10.04847412 94.32670166 -9.4470459 93.72640137 -8.82739258 93.10791016 C-7.35473807 91.63818049 -5.88130525 90.16923076 -4.40771484 88.70043945 C-5.10640182 88.69897289 -5.80508881 88.69750633 -6.52494812 88.69599533 C-23.54374665 88.65890628 -40.56232811 88.59986384 -57.58096313 88.51653671 C-65.81114011 88.47676653 -74.04122174 88.44436382 -82.27148438 88.42944336 C-89.44692966 88.41641631 -96.622165 88.38942495 -103.79749203 88.34582639 C-107.59506753 88.32323502 -111.3923843 88.30752736 -115.19003296 88.3085556 C-118.76888029 88.30930361 -122.34715622 88.29129739 -125.92585564 88.25927162 C-127.85658174 88.24677015 -129.78740391 88.25382572 -131.71815491 88.26158142 C-139.42576989 88.16943462 -145.4646807 87.51789926 -151.24755859 81.91918945 C-151.79089844 81.0684082 -151.79089844 81.0684082 -152.34521484 80.20043945 C-152.915625 79.3496582 -152.915625 79.3496582 -153.49755859 78.48168945 C-155.99983815 73.58452431 -156.40648067 67.79946712 -154.72412109 62.5793457 C-152.0544124 56.71927974 -148.66112973 52.95728987 -142.52696228 50.58755493 C-136.90899578 49.09761023 -131.08165957 49.3917422 -125.31225586 49.3815918 C-124.00425522 49.37154617 -122.69625458 49.36150055 -121.34861755 49.35115051 C-117.77891029 49.32395421 -114.20924226 49.30873206 -110.63945889 49.29572248 C-106.90249229 49.28004633 -103.16560526 49.2532705 -99.42869568 49.22769165 C-92.35993177 49.18098303 -85.29115276 49.14420072 -78.22231382 49.11101878 C-70.17146941 49.07274131 -62.12070509 49.02334595 -54.06992829 48.97303462 C-37.51591474 48.86983257 -20.96185667 48.78053421 -4.40771484 48.70043945 C-4.99786377 48.13123779 -5.5880127 47.56203613 -6.19604492 46.97558594 C-8.88138421 44.37374239 -11.55080527 41.75611978 -14.22021484 39.13793945 C-15.14898437 38.24268555 -16.07775391 37.34743164 -17.03466797 36.42504883 C-22.38158006 31.15534846 -26.43080374 27.06387299 -27.80615234 19.51293945 C-27.72633319 13.34025798 -26.13647183 8.75625857 -22.09521484 3.95043945 C-15.24330202 -1.7860457 -8.39289304 -3.20069993 0 0 Z " fill="#000000" transform="translate(423.40771484375,146.299560546875)"/>
</svg>
