<?xml version="1.0" encoding="UTF-8"?>
<svg version="1.1" xmlns="http://www.w3.org/2000/svg" width="512" height="512">
<path d="M0 0 C0 52.8 0 105.6 0 160 C-16.768125 165.61 -33.53625 171.22 -50.8125 177 C-56.11030518 178.77503906 -61.40811035 180.55007812 -66.86645508 182.37890625 C-73.32751465 184.53710938 -73.32751465 184.53710938 -76.35063171 185.5456543 C-78.4660535 186.25233253 -80.58087948 186.96079579 -82.69523621 187.6706543 C-85.89415814 188.74425413 -89.09491274 189.81221115 -92.29614258 190.87890625 C-93.24092122 191.19743057 -94.18569986 191.5159549 -95.15910816 191.84413147 C-96.44997601 192.27235451 -96.44997601 192.27235451 -97.766922 192.70922852 C-98.51633969 192.95995621 -99.26575739 193.2106839 -100.03788471 193.4690094 C-102 194 -102 194 -105 194 C-105 141.53 -105 89.06 -105 35 C-80.69893088 26.70207396 -56.40273791 18.41142916 -32.03863525 10.30389404 C-29.2253774 9.36703984 -26.41289061 8.42788119 -23.60037231 7.48880959 C-20.8625651 6.57501248 -18.1242908 5.66262208 -15.38586426 4.75068283 C-13.47930432 4.1154901 -11.57314364 3.47909937 -9.66699219 2.84268188 C-8.5380957 2.46743378 -7.40919922 2.09218567 -6.24609375 1.70556641 C-4.75613892 1.20931259 -4.75613892 1.20931259 -3.23608398 0.70303345 C-1 0 -1 0 0 0 Z " fill="#000000" transform="translate(376,70)"/>
<path d="M0 0 C23.36777784 7.57873876 46.71845018 15.18475746 70.019104 22.96405029 C72.99116736 23.95563041 75.96399134 24.94492022 78.93679333 25.93428326 C81.82721231 26.89655891 84.717159 27.8602463 87.60695839 28.82438087 C88.96999782 29.27894852 90.33318398 29.73307646 91.69652367 30.18674278 C93.56533604 30.80883899 95.43344407 31.43304994 97.30151367 32.05737305 C98.35795578 32.40978561 99.41439789 32.76219818 100.50285339 33.12528992 C103 34 103 34 105 35 C105 87.47 105 139.94 105 194 C94.875 191.75 94.875 191.75 91.2731781 190.54464722 C90.04548155 190.13748128 90.04548155 190.13748128 88.79298306 189.72208977 C87.92600324 189.42949839 87.05902342 189.13690701 86.16577148 188.83544922 C85.21311685 188.51801821 84.26046221 188.2005872 83.27893925 187.87353706 C80.22490295 186.8547843 77.17297197 185.82988465 74.12109375 184.8046875 C72.2241357 184.17089611 70.32704144 183.53751226 68.42980957 182.90454102 C61.43072429 180.56629013 54.43426771 178.22017667 47.4375 175.875 C31.783125 170.63625 16.12875 165.3975 0 160 C0 107.2 0 54.4 0 0 Z " fill="#000000" transform="translate(136,70)"/>
<path d="M0 0 C7.0146294 1.91308075 13.89248765 3.86669718 20.77001953 6.17041016 C22.13064262 6.62219887 22.13064262 6.62219887 23.51875305 7.08311462 C26.4744433 8.06544361 29.42867219 9.05208317 32.3828125 10.0390625 C34.44971988 10.72758203 36.51668659 11.41592349 38.58370972 12.10409546 C42.89272181 13.53945456 47.20100968 14.97696131 51.50878906 16.41601562 C57.0413875 18.26403594 62.57578293 20.10660752 68.11071968 21.94761086 C72.36805005 23.3643195 76.62442922 24.7838679 80.88051987 26.20429611 C82.92246994 26.88539176 84.96471901 27.56559166 87.007267 28.24489212 C89.84712855 29.18982956 92.68568951 30.13857283 95.52392578 31.08837891 C96.37266769 31.36994339 97.22140961 31.65150787 98.09587097 31.94160461 C103.88572991 33.88572991 103.88572991 33.88572991 105 35 C105.09674566 37.01228045 105.12187008 39.02801369 105.12025452 41.0426178 C105.12231651 43.01359184 105.12231651 43.01359184 105.12442017 45.02438354 C105.12088054 46.49420188 105.11724573 47.96402 105.11352539 49.43383789 C105.11324353 50.97091164 105.11340123 52.50798553 105.1139679 54.0450592 C105.11425591 58.2308286 105.10835852 62.41656959 105.10139394 66.60233235 C105.09516109 70.97190156 105.09455666 75.34147135 105.09336853 79.71104431 C105.09025501 87.99127047 105.08204135 96.2714835 105.07201904 104.55170387 C105.06085854 113.97597159 105.05534761 123.40023992 105.05032361 132.8245126 C105.03985875 152.21634919 105.02225891 171.60817354 105 191 C98.55106235 189.6684793 92.40139036 187.93986768 86.16577148 185.83544922 C85.21311685 185.51801821 84.26046221 185.2005872 83.27893925 184.87353706 C80.22490295 183.8547843 77.17297197 182.82988465 74.12109375 181.8046875 C72.2241357 181.17089611 70.32704144 180.53751226 68.42980957 179.90454102 C61.43072429 177.56629013 54.43426771 175.22017667 47.4375 172.875 C31.783125 167.63625 16.12875 162.3975 0 157 C0 105.19 0 53.38 0 0 Z " fill="#000000" transform="translate(271,321)"/>
<path d="M0 0 C7.00093715 1.84898818 13.90448773 3.87071675 20.77001953 6.17041016 C22.13064262 6.62219887 22.13064262 6.62219887 23.51875305 7.08311462 C26.4744433 8.06544361 29.42867219 9.05208317 32.3828125 10.0390625 C34.44971988 10.72758203 36.51668659 11.41592349 38.58370972 12.10409546 C42.89272181 13.53945456 47.20100968 14.97696131 51.50878906 16.41601562 C57.0413875 18.26403594 62.57578293 20.10660752 68.11071968 21.94761086 C72.36805005 23.3643195 76.62442922 24.7838679 80.88051987 26.20429611 C82.92246994 26.88539176 84.96471901 27.56559166 87.007267 28.24489212 C89.84712855 29.18982956 92.68568951 30.13857283 95.52392578 31.08837891 C96.37266769 31.36994339 97.22140961 31.65150787 98.09587097 31.94160461 C103.88572991 33.88572991 103.88572991 33.88572991 105 35 C105.09674566 37.01228045 105.12187008 39.02801369 105.12025452 41.0426178 C105.12231651 43.01359184 105.12231651 43.01359184 105.12442017 45.02438354 C105.12088054 46.49420188 105.11724573 47.96402 105.11352539 49.43383789 C105.11324353 50.97091164 105.11340123 52.50798553 105.1139679 54.0450592 C105.11425591 58.2308286 105.10835852 62.41656959 105.10139394 66.60233235 C105.09516109 70.97190156 105.09455666 75.34147135 105.09336853 79.71104431 C105.09025501 87.99127047 105.08204135 96.2714835 105.07201904 104.55170387 C105.06085854 113.97597159 105.05534761 123.40023992 105.05032361 132.8245126 C105.03985875 152.21634919 105.02225891 171.60817354 105 191 C98.88646132 189.75115278 93.00333722 188.14985026 87.0871582 186.17431641 C85.82680252 185.75923576 85.82680252 185.75923576 84.54098511 185.33576965 C81.79266492 184.42908224 79.0466117 183.51575991 76.30078125 182.6015625 C74.37749992 181.96368589 72.45417461 181.32594187 70.5308075 180.68832397 C66.51287641 179.35498107 62.49619052 178.0179605 58.48022461 176.67871094 C53.34209596 174.96589951 48.19994134 173.26553697 43.05665302 171.56829262 C39.08857038 170.2567274 35.12324803 168.93697106 31.15865135 167.61491013 C29.26385644 166.98448915 27.36809159 166.35697544 25.47133827 165.73247147 C22.81950763 164.85835267 20.17174006 163.97285148 17.5246582 163.08447266 C16.74685501 162.83082443 15.96905182 162.57717621 15.16767883 162.31584167 C9.76484206 160.48373566 4.84538934 158.51156397 1.35662842 153.763381 C-0.25137445 150.48796341 -0.36983955 148.30566144 -0.36076355 144.66618347 C-0.36488754 143.38877289 -0.36901154 142.1113623 -0.3732605 140.79524231 C-0.36264441 139.38717438 -0.35174 137.97910861 -0.34057617 136.57104492 C-0.3397296 135.08264178 -0.34020562 133.59423738 -0.34190369 132.10583496 C-0.34276391 128.07102571 -0.32513385 124.03648438 -0.30418181 120.00173736 C-0.28541952 115.78301717 -0.28366493 111.56429075 -0.28010559 107.34553528 C-0.27078381 99.35934197 -0.24616823 91.37327197 -0.21605712 83.38713294 C-0.18251726 74.29409978 -0.16602814 65.20106071 -0.15097082 56.10798109 C-0.11961879 37.40525084 -0.0668557 18.70263533 0 0 Z " fill="#000000" transform="translate(1,321)"/>
<path d="M0 0 C0 51.81 0 103.62 0 157 C-16.768125 162.61 -33.53625 168.22 -50.8125 174 C-56.11030518 175.77503906 -61.40811035 177.55007813 -66.86645508 179.37890625 C-73.32751465 181.53710938 -73.32751465 181.53710938 -76.35063171 182.5456543 C-78.4660535 183.25233253 -80.58087948 183.96079579 -82.69523621 184.6706543 C-85.89415814 185.74425413 -89.09491274 186.81221115 -92.29614258 187.87890625 C-93.24092122 188.19743057 -94.18569986 188.5159549 -95.15910816 188.84413147 C-96.44997601 189.27235451 -96.44997601 189.27235451 -97.766922 189.70922852 C-98.51633969 189.95995621 -99.26575739 190.2106839 -100.03788471 190.4690094 C-102 191 -102 191 -105 191 C-105 139.52 -105 88.04 -105 35 C-80.54397336 26.64916164 -56.09052149 18.31944004 -31.5625 10.1875 C-27.57840679 8.86635433 -23.59448903 7.54468767 -19.61131287 6.22077942 C-17.18231121 5.41360138 -14.75286006 4.60777431 -12.32289124 3.80351257 C-11.25413254 3.44836075 -10.18537384 3.09320892 -9.08422852 2.72729492 C-8.14644058 2.41644455 -7.20865265 2.10559418 -6.2424469 1.7853241 C-1.14455865 0 -1.14455865 0 0 0 Z " fill="#000000" transform="translate(241,321)"/>
<path d="M0 0 C0.09345443 19.58428704 0.16398464 39.16852882 0.20724869 58.75299263 C0.22787117 67.84647197 0.25598574 76.93981273 0.30175781 86.03320312 C0.34163523 93.95930063 0.3674351 101.88529777 0.37635398 109.8114928 C0.38156722 114.00813336 0.39381351 118.2044868 0.42292023 122.40103531 C0.45010374 126.35237562 0.45843915 130.303311 0.45243073 134.25473595 C0.45352966 135.70353967 0.46146639 137.15235717 0.4768219 138.60107994 C0.49679153 140.58259615 0.48953876 142.56433044 0.48101807 144.54592896 C0.48470524 145.65392412 0.48839241 146.76191929 0.49219131 147.90349007 C-0.21874288 152.37617115 -2.15637753 155.63428474 -5.81991863 158.34815598 C-6.43369775 158.62084934 -7.04747686 158.89354271 -7.67985535 159.17449951 C-8.37868017 159.487145 -9.077505 159.7997905 -9.79750633 160.1219101 C-13.5344831 161.61176754 -17.30146694 162.94962946 -21.12231445 164.20800781 C-21.99648514 164.50119904 -22.87065582 164.79439026 -23.77131653 165.09646606 C-26.63336271 166.05461815 -29.49819379 167.00410954 -32.36328125 167.953125 C-34.36261424 168.61962102 -36.36181371 169.2865177 -38.36088562 169.95379639 C-42.53628934 171.34605772 -46.71304998 172.73414478 -50.89086914 174.11914062 C-56.25117187 175.89641227 -61.60828724 177.68307549 -66.96447468 179.47270584 C-71.08534998 180.84864532 -75.20768352 182.22017049 -79.33049583 183.59029388 C-81.30731726 184.24772758 -83.28372052 184.90642003 -85.25969887 185.56638336 C-88.01324206 186.48519819 -90.7686482 187.39818596 -93.5246582 188.30957031 C-94.34287048 188.58380829 -95.16108276 188.85804626 -96.00408936 189.14059448 C-99.11015859 190.16227481 -101.70756309 191 -105 191 C-105 139.52 -105 88.04 -105 35 C-80.54397336 26.64916164 -56.09052149 18.31944004 -31.5625 10.1875 C-27.57840679 8.86635433 -23.59448903 7.54468767 -19.61131287 6.22077942 C-17.18231121 5.41360138 -14.75286006 4.60777431 -12.32289124 3.80351257 C-11.25413254 3.44836075 -10.18537384 3.09320892 -9.08422852 2.72729492 C-8.14644058 2.41644455 -7.20865265 2.10559418 -6.2424469 1.7853241 C-1.14455865 0 -1.14455865 0 0 0 Z " fill="#000000" transform="translate(511,321)"/>
<path d="M0 0 C1.11365936 0.37063568 2.22731873 0.74127136 3.37472534 1.12313843 C7.01652082 2.33983397 10.64916037 3.58172622 14.28222656 4.82421875 C16.82046983 5.67776832 19.35915087 6.5298824 21.89849854 7.38012695 C27.87417476 9.38438995 33.84349961 11.40690551 39.81069589 13.43625736 C46.61133844 15.74804066 53.41890943 18.03907944 60.22710371 20.32850838 C74.21677017 25.03340123 88.19767944 29.76394021 102.17285156 34.51171875 C102.17285156 35.17171875 102.17285156 35.83171875 102.17285156 36.51171875 C92.21107454 39.95298988 82.23593778 43.35339872 72.2538147 46.7351532 C64.57151829 49.34298811 56.90279323 51.98789333 49.2382946 54.64748383 C42.25632316 57.06820322 35.26615463 59.46439373 28.27122688 61.84740448 C23.84419965 63.35668243 19.42153691 64.87677998 15.00701904 66.42230225 C10.77156314 67.90470471 6.5270386 69.35759319 2.27448273 70.79017067 C0.69008714 71.32956046 -0.89081383 71.87934452 -2.46772003 72.4402523 C-4.65950177 73.2180017 -6.86115462 73.95660039 -9.06884766 74.68774414 C-10.30641815 75.11406631 -11.54398865 75.54038849 -12.81906128 75.97962952 C-18.09152471 77.13820822 -22.84680531 75.17393952 -27.82714844 73.51171875 C-29.1656485 73.08793552 -29.1656485 73.08793552 -30.53118896 72.65559101 C-33.34867374 71.75516399 -36.1538145 70.82256809 -38.95825195 69.88232422 C-40.01003128 69.53236389 -41.06181061 69.18240356 -42.14546204 68.82183838 C-45.5833073 67.67711393 -49.01970467 66.52811069 -52.45605469 65.37890625 C-54.85685544 64.57824156 -57.25773043 63.77779946 -59.65867615 62.97756958 C-64.6696386 61.30672931 -69.67995218 59.63395889 -74.68969727 57.95947266 C-80.48126002 56.0236867 -86.27387629 54.09108123 -92.06709343 52.16025245 C-97.65523737 50.29774104 -103.24279815 48.43348588 -108.83006096 46.56833267 C-111.20350042 45.77612373 -113.5770621 44.98428088 -115.95074654 44.19280624 C-119.25453675 43.09082341 -122.55766206 41.98687133 -125.8605957 40.88232422 C-126.84600342 40.55400604 -127.83141113 40.22568787 -128.84667969 39.88742065 C-129.74226089 39.58747192 -130.6378421 39.28752319 -131.56056213 38.97848511 C-132.34086068 38.71782698 -133.12115923 38.45716885 -133.92510319 38.18861198 C-135.82714844 37.51171875 -135.82714844 37.51171875 -137.82714844 36.51171875 C-137.82714844 35.85171875 -137.82714844 35.19171875 -137.82714844 34.51171875 C-123.17808322 29.53499883 -108.52204843 24.57924855 -93.85763168 19.64796448 C-87.04788436 17.35747762 -80.24052138 15.06034133 -73.43847656 12.74707031 C-67.50552351 10.7293834 -61.56837278 8.72465447 -55.62596726 6.73497105 C-52.48347017 5.68228534 -49.34406564 4.62160081 -46.20824432 3.54916382 C-42.69571865 2.34911953 -39.17622035 1.17212727 -35.65429688 0 C-34.63145599 -0.35532806 -33.60861511 -0.71065613 -32.55477905 -1.07675171 C-20.90429448 -4.89458971 -11.4520885 -3.97837876 0 0 Z " fill="#000000" transform="translate(273.8271484375,3.48828125)"/>
<path d="M0 0 C1.11322128 0.37078171 2.22644257 0.74156342 3.37339783 1.12358093 C7.0284554 2.34331956 10.67910256 3.57572945 14.32983398 4.80834961 C16.87261961 5.6596775 19.41563263 6.51029274 21.95896912 7.35997009 C27.95349096 9.36433939 33.94489648 11.3778588 39.93521494 13.39475101 C46.75998431 15.69209399 53.58819827 17.97911314 60.41670907 20.26530659 C74.45278637 24.9648569 88.48453307 29.67724361 102.51342773 34.39819336 C102.51342773 35.05819336 102.51342773 35.71819336 102.51342773 36.39819336 C87.42134327 41.5224614 72.32239133 46.62591482 57.21502018 51.70491123 C50.20005378 54.06383076 43.18747404 56.42942362 36.18017578 58.81103516 C30.07033623 60.88760294 23.95633836 62.95134314 17.83707994 64.9999966 C14.59913056 66.08451332 11.36357243 67.17519541 8.13292122 68.28128242 C4.51916801 69.5149452 0.89850253 70.72578901 -2.72460938 71.93164062 C-3.7862883 72.2999147 -4.84796722 72.66818878 -5.94181824 73.04762268 C-16.82346791 76.61481438 -24.36779283 74.40528139 -34.97314453 70.79638672 C-36.08636581 70.42560501 -37.1995871 70.0548233 -38.34654236 69.67280579 C-42.00159993 68.45306716 -45.65224709 67.22065727 -49.30297852 65.98803711 C-51.84576414 65.13670922 -54.38877716 64.28609397 -56.93211365 63.43641663 C-62.92663549 61.43204733 -68.91804101 59.41852792 -74.90835947 57.40163571 C-81.73312884 55.10429273 -88.5613428 52.81727358 -95.3898536 50.53108013 C-109.42593091 45.83152981 -123.4576776 41.11914311 -137.48657227 36.39819336 C-137.48657227 35.73819336 -137.48657227 35.07819336 -137.48657227 34.39819336 C-122.3944878 29.27392532 -107.29553586 24.1704719 -92.18816471 19.09147549 C-85.17319831 16.73255596 -78.16061857 14.3669631 -71.15332031 11.98535156 C-65.04348077 9.90878378 -58.92948289 7.84504358 -52.81022447 5.79639012 C-49.57227509 4.7118734 -46.33671697 3.62119131 -43.10606575 2.51510429 C-39.49231254 1.28144152 -35.87164707 0.07059771 -32.24853516 -1.13525391 C-31.18685623 -1.50352798 -30.12517731 -1.87180206 -29.03132629 -2.25123596 C-18.14967662 -5.81842766 -10.6053517 -3.60889467 0 0 Z " fill="#000000" transform="translate(408.486572265625,254.601806640625)"/>
<path d="M0 0 C1.11322128 0.37078171 2.22644257 0.74156342 3.37339783 1.12358093 C7.0284554 2.34331956 10.67910256 3.57572945 14.32983398 4.80834961 C16.87261961 5.6596775 19.41563263 6.51029274 21.95896912 7.35997009 C27.95349096 9.36433939 33.94489648 11.3778588 39.93521494 13.39475101 C46.75998431 15.69209399 53.58819827 17.97911314 60.41670907 20.26530659 C74.45278637 24.9648569 88.48453307 29.67724361 102.51342773 34.39819336 C102.51342773 35.05819336 102.51342773 35.71819336 102.51342773 36.39819336 C87.42134327 41.5224614 72.32239133 46.62591482 57.21502018 51.70491123 C50.20005378 54.06383076 43.18747404 56.42942362 36.18017578 58.81103516 C30.07033623 60.88760294 23.95633836 62.95134314 17.83707994 64.9999966 C14.59913056 66.08451332 11.36357243 67.17519541 8.13292122 68.28128242 C4.51916801 69.5149452 0.89850253 70.72578901 -2.72460938 71.93164062 C-3.7862883 72.2999147 -4.84796722 72.66818878 -5.94181824 73.04762268 C-16.82346791 76.61481438 -24.36779283 74.40528139 -34.97314453 70.79638672 C-36.08636581 70.42560501 -37.1995871 70.0548233 -38.34654236 69.67280579 C-42.00159993 68.45306716 -45.65224709 67.22065727 -49.30297852 65.98803711 C-51.84576414 65.13670922 -54.38877716 64.28609397 -56.93211365 63.43641663 C-62.92663549 61.43204733 -68.91804101 59.41852792 -74.90835947 57.40163571 C-81.73312884 55.10429273 -88.5613428 52.81727358 -95.3898536 50.53108013 C-109.42593091 45.83152981 -123.4576776 41.11914311 -137.48657227 36.39819336 C-137.48657227 35.73819336 -137.48657227 35.07819336 -137.48657227 34.39819336 C-122.3944878 29.27392532 -107.29553586 24.1704719 -92.18816471 19.09147549 C-85.17319831 16.73255596 -78.16061857 14.3669631 -71.15332031 11.98535156 C-65.04348077 9.90878378 -58.92948289 7.84504358 -52.81022447 5.79639012 C-49.57227509 4.7118734 -46.33671697 3.62119131 -43.10606575 2.51510429 C-39.49231254 1.28144152 -35.87164707 0.07059771 -32.24853516 -1.13525391 C-31.18685623 -1.50352798 -30.12517731 -1.87180206 -29.03132629 -2.25123596 C-18.14967662 -5.81842766 -10.6053517 -3.60889467 0 0 Z " fill="#000000" transform="translate(138.486572265625,254.601806640625)"/>
</svg>
