<?xml version="1.0" encoding="UTF-8"?>
<svg version="1.1" xmlns="http://www.w3.org/2000/svg" width="512" height="512">
<path d="M0 0 C1.14150009 -0.00151062 1.14150009 -0.00151062 2.30606079 -0.00305176 C19.22262276 0.01210425 34.40108205 2.53597074 50.625 7.25 C50.625 8.24 50.625 9.23 50.625 10.25 C49.77679688 10.57871094 48.92859375 10.90742187 48.0546875 11.24609375 C17.80690401 23.51140376 -6.30456947 47.36013147 -19.49609375 77.15527344 C-22.24782129 83.71355741 -24.44196726 90.40991742 -26.375 97.25 C-26.71660156 98.43980469 -27.05820313 99.62960938 -27.41015625 100.85546875 C-31.99480903 120.40954597 -31.35336888 144.08254771 -25.375 163.25 C-25.13362305 164.0322998 -24.89224609 164.81459961 -24.64355469 165.62060547 C-19.37079192 182.17840705 -11.41395895 196.80800236 -0.375 210.25 C0.38296875 211.17296875 1.1409375 212.0959375 1.921875 213.046875 C23.8815046 238.45115238 56.49609596 252.760145 89.625 255.25 C111.84312883 256.69340512 133.94981402 251.4789523 153.74609375 241.60546875 C156.625 240.25 156.625 240.25 158.625 240.25 C158.625 265.66 158.625 291.07 158.625 317.25 C147.20519531 317.28738281 135.78539062 317.32476562 124.01953125 317.36328125 C116.79621169 317.39354773 109.57290835 317.42456445 102.34960938 317.45898438 C90.87786307 317.51350846 79.40616184 317.56491958 67.93432617 317.59643555 C59.58004112 317.61940093 51.22587394 317.65278258 42.87168235 317.69870156 C38.4477044 317.72265351 34.02384334 317.74136935 29.59980202 317.74761391 C25.43585405 317.75365586 21.27220522 317.77362336 17.10836792 317.80427551 C15.58017236 317.81307003 14.05193773 317.81677539 12.52371788 317.81500816 C10.43630832 317.81335642 8.34981177 317.83004441 6.26252747 317.85127258 C5.09461576 317.85588155 3.92670404 317.86049051 2.72340107 317.86523914 C-0.73549535 318.29476648 -2.62768486 319.12819775 -5.375 321.25 C-6.53948881 324.15351124 -6.53948881 324.15351124 -6.375 327.25 C-5.13192988 329.67071549 -4.31099447 330.91176348 -1.72220898 331.84726238 C1.51662946 332.40298711 4.71756007 332.38955962 7.99284363 332.38130188 C8.73720132 332.38341759 9.48155901 332.38553331 10.24847299 332.38771313 C12.74403257 332.39370706 15.23954151 332.39271341 17.73510742 332.3918457 C19.52402838 332.39487765 21.31294857 332.3983992 23.10186768 332.40237427 C26.95580824 332.41026168 30.80973955 332.41540763 34.66368675 332.41866493 C40.76160383 332.42457792 46.85946263 332.44112161 52.95735168 332.46000671 C55.04569908 332.46634412 57.13404652 332.47266974 59.22239399 332.47898388 C60.26826667 332.48214969 61.31413936 332.4853155 62.39170516 332.48857725 C76.58770519 332.53063702 90.78367814 332.56362256 104.97973633 332.57592773 C114.55584773 332.5843136 124.13181486 332.60682427 133.70785409 332.6452834 C138.77357316 332.66502703 143.83907665 332.67745424 148.90483665 332.67244911 C153.67296804 332.66779546 158.44069112 332.68164733 163.20874023 332.70946121 C164.9545743 332.71636102 166.7004507 332.71651262 168.44628334 332.70926094 C185.14417425 332.64693089 185.14417425 332.64693089 192.625 337.25 C193.65625 337.78625 194.6875 338.3225 195.75 338.875 C203.47485574 345.25640257 207.4091369 353.38231103 208.625 363.25 C208.9301693 372.94907651 206.16441797 382.46949671 199.45703125 389.65234375 C189.18533684 398.60996212 179.29452397 399.548688 166.19024658 399.51742554 C164.70711433 399.52116428 163.22398405 399.5257667 161.74085689 399.53115618 C157.67331982 399.54337393 153.60586509 399.54312716 149.53831387 399.54076743 C145.14826125 399.54035895 140.75823492 399.55140138 136.36819458 399.56088257 C127.77012147 399.57748691 119.17207579 399.58299186 110.57398799 399.58410732 C103.58387489 399.58505808 96.59377083 399.58916978 89.60366058 399.59550858 C69.7792251 399.61311959 49.95481126 399.62234769 30.1303679 399.62084763 C28.52766196 399.62072776 28.52766196 399.62072776 26.89257812 399.62060547 C25.82280073 399.62052371 24.75302334 399.62044195 23.65082845 399.62035771 C6.31544339 399.61954489 -11.01985476 399.63868189 -28.35521469 399.6668822 C-46.161101 399.69561904 -63.96694495 399.70942205 -81.77285504 399.70769465 C-91.76707202 399.70703102 -101.7611979 399.71251163 -111.75539398 399.73405075 C-120.26503712 399.75227307 -128.77454786 399.75660125 -137.28420207 399.7430319 C-141.62382718 399.73650752 -145.96319836 399.73636583 -150.30279922 399.7537384 C-154.28042637 399.76949777 -158.25759885 399.76657658 -162.2352151 399.74917014 C-163.66924528 399.74610651 -165.10330963 399.74970853 -166.53729948 399.76089029 C-178.59482705 399.84863597 -189.47649317 397.9728784 -198.375 389.25 C-205.09248803 381.57068982 -207.78194535 372.384642 -207.4375 362.25 C-206.39403149 353.78014387 -202.81635053 346.1161118 -196.5625 340.25 C-188.84346104 334.28660712 -181.38682248 332.71507428 -171.828125 331.83984375 C-168.30118286 331.23739096 -166.31920693 330.20397906 -163.375 328.25 C-162.715 328.25 -162.055 328.25 -161.375 328.25 C-159.24906437 323.00602545 -158.24851966 319.08277202 -158.23696899 313.38687134 C-158.23273707 312.33331925 -158.23273707 312.33331925 -158.22841966 311.25848329 C-158.22006902 308.89838531 -158.21873491 306.53833422 -158.21728516 304.17822266 C-158.21261664 302.48773568 -158.20747302 300.79724995 -158.20188904 299.10676575 C-158.19059916 295.45964297 -158.18216866 291.81252841 -158.17576981 288.16539383 C-158.16507206 282.37930533 -158.14481638 276.59327497 -158.12265015 270.80722046 C-158.06080527 254.3506745 -158.00692113 237.89413026 -157.97363281 221.4375 C-157.95517645 212.35314929 -157.92609394 203.26889454 -157.8856281 194.18461454 C-157.8647204 189.38569291 -157.8491244 184.58689144 -157.84682083 179.78792191 C-157.8184294 133.67786914 -157.8184294 133.67786914 -151.6875 113.5625 C-151.43403809 112.70712646 -151.18057617 111.85175293 -150.91943359 110.97045898 C-138.320889 70.07242416 -109.52561699 36.78318333 -71.9375 16.875 C-49.22056903 5.18325826 -25.45910778 0.02329256 0 0 Z M-86.375 68.25 C-87.18839844 68.98734375 -88.00179687 69.7246875 -88.83984375 70.484375 C-108.0927176 88.6118834 -118.712055 113.62010648 -123.375 139.25 C-123.57416016 140.33667969 -123.57416016 140.33667969 -123.77734375 141.4453125 C-125.55566575 152.94970699 -125.55566575 152.94970699 -122.3125 163.625 C-119.40567393 165.53285207 -119.40567393 165.53285207 -115.75 165.3125 C-111.98088453 164.12592661 -111.31725661 163.55552362 -109.375 160.25 C-108.77449153 157.6390087 -108.77449153 157.6390087 -108.6015625 154.76953125 C-108.50206299 153.69622559 -108.40256348 152.62291992 -108.30004883 151.51708984 C-108.20103271 150.3770752 -108.1020166 149.23706055 -108 148.0625 C-105.26568734 121.44461636 -94.75348036 94.57613036 -73.69482422 76.83447266 C-71.27136572 74.87948458 -68.82362682 72.96297105 -66.33520508 71.09130859 C-59.40991132 66.3030207 -59.40991132 66.3030207 -55.8125 59.1875 C-56.51036986 55.54306849 -57.31876723 54.34110663 -60.375 52.25 C-70.86727069 51.20077293 -79.29515004 61.55793525 -86.375 68.25 Z " fill="#000000" transform="translate(260.375,31.75)"/>
<path d="M0 0 C19.67805419 15.57561478 33.64493817 36.87903558 40.1875 61.125 C40.50589844 62.27097656 40.82429687 63.41695313 41.15234375 64.59765625 C47.81287762 93.29626994 43.26188474 123.84607279 28.25 149.0625 C18.38295752 164.27891608 6.28614757 176.24193251 -8.8125 186.125 C-10.29556641 187.09953125 -10.29556641 187.09953125 -11.80859375 188.09375 C-36.40171574 203.31011856 -65.59488027 205.95834848 -93.53125 200.3828125 C-112.52568285 195.79654987 -128.88992834 186.59386021 -143.8125 174.125 C-144.47765625 173.60679687 -145.1428125 173.08859375 -145.828125 172.5546875 C-165.25877068 156.83640096 -176.69034802 131.25785176 -180.8125 107.125 C-182.54322985 73.18958339 -176.51848572 43.94304965 -154.8125 17.125 C-154.27753906 16.44824219 -153.74257813 15.77148438 -153.19140625 15.07421875 C-116.63505815 -29.60576226 -44.7557391 -34.18665768 0 0 Z M-77.92578125 14.28125 C-78.48933319 14.61533371 -79.05288513 14.94941742 -79.6335144 15.29362488 C-81.47322999 16.38947158 -83.29885784 17.50670683 -85.125 18.625 C-86.40788605 19.39549383 -87.6915073 20.16476475 -88.97583008 20.93286133 C-92.934927 23.30824555 -96.87482158 25.71433029 -100.8125 28.125 C-102.05689427 28.88472061 -103.30135887 29.64432604 -104.54589844 30.40380859 C-111.05536482 34.37997131 -117.54568411 38.3863334 -124.02490234 42.41162109 C-127.6046368 44.61188177 -131.2194986 46.7503534 -134.8449707 48.87426758 C-137.0378036 50.26822252 -138.53148907 51.34416345 -139.42842102 53.83644104 C-139.93060196 56.82871805 -139.94799302 59.70691113 -139.95776367 62.74194336 C-139.96112228 63.3977388 -139.9644809 64.05353424 -139.96794128 64.72920227 C-139.97741873 66.89110218 -139.97939269 69.05292438 -139.98046875 71.21484375 C-139.98368325 72.72172579 -139.98704747 74.22860751 -139.99055481 75.73548889 C-139.99653782 78.89194462 -139.99839553 82.04837299 -139.99780273 85.20483398 C-139.99770109 89.2443933 -140.01135957 93.28377696 -140.02857494 97.32329464 C-140.03970611 100.43486839 -140.04172161 103.54639979 -140.04119301 106.65799141 C-140.04237119 108.14709644 -140.04678393 109.63620263 -140.05452538 111.12528801 C-140.0643492 113.20987051 -140.06143815 115.29407318 -140.05541992 117.37866211 C-140.05684494 118.56350693 -140.05826996 119.74835175 -140.05973816 120.96910095 C-139.73486704 125.11595459 -139.0154462 128.02778871 -135.90429688 130.86547852 C-129.4531821 135.14962932 -122.85705203 139.14379219 -116.14672852 143.0065918 C-107.80032009 147.81135906 -99.48655389 152.66034529 -91.3125 157.75390625 C-90.71747681 158.12418442 -90.12245361 158.49446259 -89.50939941 158.8759613 C-86.67421538 160.64325634 -83.84638868 162.42075082 -81.02539062 164.21069336 C-79.51235352 165.15827515 -79.51235352 165.15827515 -77.96875 166.125 C-77.09025391 166.681875 -76.21175781 167.23875 -75.30664062 167.8125 C-72.6867021 169.19119905 -70.76305193 169.8965475 -67.8125 170.125 C-65.52130292 169.45218207 -65.52130292 169.45218207 -63.3046875 168.171875 C-62.43166992 167.70330078 -61.55865234 167.23472656 -60.65917969 166.75195312 C-55.35874278 163.72261251 -50.13636073 160.57471717 -44.9375 157.375 C-43.10243199 156.2499478 -41.26676477 155.12587879 -39.43096924 154.00201416 C-38.16436097 153.22657056 -36.89804651 152.45064686 -35.63201904 151.67425537 C-31.07451675 148.88348461 -26.49190838 146.13731805 -21.8984375 143.40625 C-19.98669006 142.26451403 -18.07547605 141.12189125 -16.16448975 139.97888184 C-14.93909522 139.24848321 -13.71178027 138.52129603 -12.48248291 137.79748535 C-10.76439474 136.78518444 -9.05390544 135.76002039 -7.34375 134.734375 C-6.36986328 134.15655273 -5.39597656 133.57873047 -4.39257812 132.98339844 C-1.49515178 130.89641799 0.21337303 129.10814952 2.1875 126.125 C2.79025413 122.75520532 2.79025413 122.75520532 2.70507812 119.02734375 C2.7120874 118.332388 2.71909668 117.63743225 2.72631836 116.92141724 C2.74385778 114.63469949 2.73229139 112.34922932 2.71875 110.0625 C2.72144611 108.46736413 2.72532953 106.87222987 2.73034668 105.27709961 C2.73623619 101.93815423 2.72769686 98.59963763 2.70898438 95.26074219 C2.68619463 90.98664723 2.69932072 86.71355702 2.72327423 82.4394989 C2.73774732 79.14685533 2.73311941 75.85444891 2.72276306 72.5617981 C2.72009993 70.98617432 2.72335101 69.41052882 2.73268127 67.83493042 C2.74287246 65.63026123 2.72731306 63.42720562 2.70507812 61.22265625 C2.70189575 59.96976807 2.69871338 58.71687988 2.69543457 57.42602539 C1.98255101 52.7930532 -0.12465676 50.36529674 -3.84179688 47.63378906 C-4.56431641 47.22354492 -5.28683594 46.81330078 -6.03125 46.390625 C-6.8672876 45.90746826 -7.7033252 45.42431152 -8.56469727 44.92651367 C-9.47147217 44.41451416 -10.37824707 43.90251465 -11.3125 43.375 C-13.29142438 42.23230214 -15.26923361 41.08767152 -17.24609375 39.94140625 C-18.30296387 39.33055176 -19.35983398 38.71969727 -20.44873047 38.09033203 C-26.46941776 34.57265656 -32.41989477 30.93970778 -38.375 27.3125 C-39.5259886 26.61286842 -40.67702918 25.91332234 -41.828125 25.21386719 C-42.93800781 24.5387207 -44.04789062 23.86357422 -45.19140625 23.16796875 C-46.28211426 22.50845215 -47.37282227 21.84893555 -48.49658203 21.16943359 C-50.79173562 19.75435363 -53.04913067 18.32074481 -55.29638672 16.83447266 C-56.15610329 16.27654778 -56.15610329 16.27654778 -57.03318787 15.70735168 C-58.61511228 14.67816566 -60.18672018 13.63317193 -61.75756836 12.5871582 C-67.91237633 9.64133027 -72.29232179 10.88620674 -77.92578125 14.28125 Z " fill="#000000" transform="translate(425.8125,69.875)"/>
<path d="M0 0 C3.50025512 1.72610675 6.88481453 3.57985201 10.22314453 5.59667969 C10.89883987 5.99897293 11.57453522 6.40126617 12.27070618 6.81575012 C13.69681311 7.66621667 15.12128157 8.51943606 16.54418945 9.37524414 C18.68444649 10.66248446 20.82922466 11.94187486 22.97509766 13.21972656 C27.00365008 15.62352466 31.01669723 18.05206816 35.02392578 20.49121094 C35.61240295 20.84733459 36.20088013 21.20345825 36.80718994 21.57037354 C38.39091274 22.53194611 39.96745616 23.50531513 41.54345703 24.47949219 C42.41719971 25.01743408 43.29094238 25.55537598 44.19116211 26.10961914 C45.09838013 26.79350708 45.09838013 26.79350708 46.02392578 27.49121094 C46.02392578 28.15121094 46.02392578 28.81121094 46.02392578 29.49121094 C43.89351094 30.934159 41.77562618 32.24182494 39.55126953 33.52636719 C38.8765712 33.92391708 38.20187286 34.32146698 37.50672913 34.73106384 C35.32897167 36.01225859 33.14542125 37.28318463 30.96142578 38.55371094 C28.8410596 39.79643328 26.72192023 41.04122061 24.60317993 42.28671265 C23.19237873 43.11384919 21.77958651 43.93759898 20.36483765 44.75796509 C16.7933784 46.8337811 13.2684018 48.95497167 9.79394531 51.18994141 C9.11787735 51.61786484 8.44180939 52.04578827 7.74525452 52.48667908 C6.46553582 53.30015406 5.19485873 54.12809228 3.93528748 54.97242737 C-0.29356576 57.6371379 -0.29356576 57.6371379 -3.50415039 56.95068359 C-4.31988525 56.46905762 -5.13562012 55.98743164 -5.97607422 55.49121094 C-6.96333496 54.94843506 -7.9505957 54.40565918 -8.96777344 53.84643555 C-10.06105957 53.20198486 -11.1543457 52.55753418 -12.28076172 51.89355469 C-12.87767319 51.54298004 -13.47458466 51.1924054 -14.08958435 50.83120728 C-16.01225248 49.70068135 -17.93183548 48.56504755 -19.85107422 47.42871094 C-21.16503206 46.65308919 -22.47907843 45.87761738 -23.79321289 45.10229492 C-26.36332211 43.58515617 -28.93204865 42.06570967 -31.5 40.54492188 C-34.39985312 38.82903362 -37.30862689 37.12909054 -40.22216797 35.43652344 C-41.57777551 34.6424895 -42.93326073 33.84824667 -44.28857422 33.05371094 C-45.41908203 32.395 -46.54958984 31.73628906 -47.71435547 31.05761719 C-48.46072266 30.54070312 -49.20708984 30.02378906 -49.97607422 29.49121094 C-49.97607422 28.83121094 -49.97607422 28.17121094 -49.97607422 27.49121094 C-47.84565938 26.04826288 -45.72777462 24.74059694 -43.50341797 23.45605469 C-42.82871964 23.05850479 -42.1540213 22.6609549 -41.45887756 22.25135803 C-39.2811201 20.97016329 -37.09756969 19.69923724 -34.91357422 18.42871094 C-32.7932683 17.18602392 -30.67418974 15.94127277 -28.55557251 14.69570923 C-27.14412311 13.86828819 -25.73051392 13.04454058 -24.31478882 12.22445679 C-20.75068235 10.15458087 -17.23862378 8.0367904 -13.78125 5.79248047 C-13.10969376 5.36455704 -12.43813751 4.93663361 -11.74623108 4.4957428 C-10.47826117 3.68409589 -9.22043379 2.85629607 -7.97532654 2.00999451 C-5.03396955 0.14609154 -3.4812338 -0.59515104 0 0 Z " fill="#000000" transform="translate(358.97607421875,97.5087890625)"/>
<path d="M0 0 C34.98 0 69.96 0 106 0 C103.85595156 6.43214531 101.31833464 9.96051206 97 15 C96.42378906 15.68449219 95.84757812 16.36898438 95.25390625 17.07421875 C85.84064052 27.3782021 72.72812854 33.60709108 58.8828125 34.30859375 C41.13231291 34.86931275 25.94441749 31.58374533 12.55249023 19.08789062 C7.39141332 14.02479208 3.05360323 8.58392932 0 2 C0 1.34 0 0.68 0 0 Z " fill="#000000" transform="translate(208,446)"/>
<path d="M0 0 C4.35319874 0.76055774 7.267963 2.13612555 11.05078125 4.46484375 C11.62724899 4.81704483 12.20371674 5.16924591 12.7976532 5.53211975 C14.64029736 6.66031511 16.47637643 7.7987305 18.3125 8.9375 C20.10080798 10.03494278 21.89031587 11.13033838 23.68161011 12.22290039 C24.89514824 12.97314947 26.10050624 13.73677958 27.29763794 14.51293945 C30.60111383 16.63748236 33.81680984 18.39491123 37.45068359 19.89648438 C41.97550476 21.91681964 46.06241491 23.88225594 49 28 C51.59078032 36.20040079 50.4987523 45.17326583 50 53.625 C49.91966633 55.98804075 49.84667562 58.35134325 49.78125 60.71484375 C49.60565672 66.48230845 49.33872002 72.23993541 49 78 C44.64680126 77.23944226 41.732037 75.86387445 37.94921875 73.53515625 C37.37275101 73.18295517 36.79628326 72.83075409 36.2023468 72.46788025 C34.35970264 71.33968489 32.52362357 70.2012695 30.6875 69.0625 C28.89919202 67.96505722 27.10968413 66.86966162 25.31838989 65.77709961 C24.10485176 65.02685053 22.89949376 64.26322042 21.70236206 63.48706055 C18.39888617 61.36251764 15.18319016 59.60508877 11.54931641 58.10351562 C7.02449524 56.08318036 2.93758509 54.11774406 0 50 C-2.59078032 41.79959921 -1.4987523 32.82673417 -1 24.375 C-0.91966633 22.01195925 -0.84667562 19.64865675 -0.78125 17.28515625 C-0.60565672 11.51769155 -0.33872002 5.76006459 0 0 Z " fill="#000000" transform="translate(301,140)"/>
<path d="M0 0 C0.22852429 7.01026615 0.38593408 14.01957041 0.49438477 21.03271484 C0.53959816 23.4171945 0.60098271 25.80142528 0.67895508 28.18505859 C0.78836778 31.61618381 0.83921548 35.04400912 0.87890625 38.4765625 C0.92535782 39.53928375 0.97180939 40.602005 1.01966858 41.69692993 C1.02457798 48.92321028 1.02457798 48.92321028 -1.79269409 51.88404846 C-4.12510366 53.46541634 -6.47818495 54.74586644 -9 56 C-10.29983579 56.78178723 -11.59363666 57.57373581 -12.87988281 58.37768555 C-14.15282241 59.13318648 -15.42727021 59.88615135 -16.703125 60.63671875 C-17.38880554 61.0428389 -18.07448608 61.44895905 -18.78094482 61.86738586 C-20.93592964 63.14308564 -23.09289916 64.41538224 -25.25 65.6875 C-26.70847039 66.54989847 -28.16680471 67.41252708 -29.625 68.27539062 C-32.29505026 69.8552015 -34.96601027 71.43345379 -37.63769531 73.01049805 C-39.71345958 74.23874398 -41.77805256 75.48638377 -43.82324219 76.76489258 C-46 78 -46 78 -48 78 C-52.87895192 32.45281499 -52.87895192 32.45281499 -45.41162109 23.07714844 C-39.19054734 17.00462745 -30.67947175 14.0568079 -22.59082031 11.3203125 C-17.68407809 9.51614729 -13.63886299 6.91319156 -9.375 3.9375 C-3.44234694 0 -3.44234694 0 0 0 Z " fill="#000000" transform="translate(413,140)"/>
<path d="M0 0 C2.81831785 2.59581908 3.85564038 4.23008205 4.5625 8 C3.79401343 12.09859503 2.16355032 13.31959482 -1 16 C-3.56659767 17.10792394 -5.98145608 18.02710637 -8.625 18.875 C-24.59332112 24.48008791 -37.21741341 34.75167513 -45 50 C-48.5992798 58.69436419 -51.19750745 66.46846739 -50.95703125 75.91015625 C-50.93576172 77.22951172 -50.91449219 78.54886719 -50.89257812 79.90820312 C-50.8554235 81.99107654 -50.81219836 84.07314175 -50.75317383 86.15551758 C-50.69864188 88.17748613 -50.67123455 90.20012875 -50.64453125 92.22265625 C-50.61721924 93.42672119 -50.58990723 94.63078613 -50.56176758 95.87133789 C-51.08526087 99.60870084 -52.04477198 100.73785925 -55 103 C-57.74689894 103.72964503 -60.22119273 103.5489002 -63 103 C-66.80360249 100.59772474 -67.58110286 97.70772809 -68.58544922 93.44384766 C-69.401616 88.6324051 -69.38235926 83.80675648 -69.375 78.9375 C-69.37338867 77.83075928 -69.37177734 76.72401855 -69.37011719 75.58374023 C-69.23905112 66.79010659 -68.03353381 59.30008557 -65 51 C-64.71125 50.10796875 -64.4225 49.2159375 -64.125 48.296875 C-60.13093873 36.95659389 -52.32956984 27.47751957 -44 19 C-43.38769531 18.37480469 -42.77539062 17.74960937 -42.14453125 17.10546875 C-32.54326599 8.0364698 -13.64842188 -4.06548737 0 0 Z " fill="#000000" transform="translate(112,34)"/>
<path d="M0 0 C2.9375 2.0625 2.9375 2.0625 5 5 C5.51089595 8.64013368 5.6436652 10.88292942 3.7890625 14.1015625 C1.59605749 16.42863769 -0.07024618 16.92914526 -3.125 17.8125 C-12.24943957 20.93433599 -18.25393359 25.98407933 -22.84765625 34.484375 C-26.15432144 41.70299324 -26.21193242 48.57399483 -25.75146484 56.41650391 C-25.62975625 59.8235166 -25.74330892 61.64234377 -27.7578125 64.44921875 C-30.76313796 66.52781493 -32.54814142 66.59175314 -36.1015625 66.3671875 C-38 66 -38 66 -40.375 64.625 C-45.79285661 55.87307778 -44.43317469 44.40255214 -42.28125 34.7890625 C-40.12309195 27.55179111 -36.77540638 21.81910344 -32 16 C-31.42636719 15.28972656 -30.85273437 14.57945313 -30.26171875 13.84765625 C-23.12885514 5.89000755 -10.83475354 -1.12083657 0 0 Z " fill="#000000" transform="translate(119,65)"/>
</svg>
