<?xml version="1.0" encoding="UTF-8"?>
<svg version="1.1" xmlns="http://www.w3.org/2000/svg" width="512" height="512">
<path d="M0 0 C0.75659912 0.00491455 1.51319824 0.0098291 2.29272461 0.01489258 C15.11803827 0.28529329 23.95220211 7.18325722 32.72167969 15.98925781 C33.4869548 16.74606339 34.25222992 17.50286896 35.04069519 18.28260803 C37.55057109 20.76921766 40.04922322 23.26674134 42.546875 25.765625 C44.29676681 27.50841021 46.04695461 29.25089827 47.79742432 30.99310303 C51.45722711 34.63948564 55.1110677 38.29172242 58.76123047 41.94775391 C63.43045677 46.6228807 68.11768606 51.27948575 72.810009 55.93141556 C76.4269887 59.52250241 80.03238968 63.12504323 83.63462067 66.73091888 C85.35778219 68.45239141 87.08491272 70.16990084 88.81612396 71.88327789 C91.23818783 74.28311796 93.64373725 76.69842379 96.04589844 79.11816406 C96.75765732 79.8166597 97.4694162 80.51515533 98.20274353 81.2348175 C104.97704599 88.12440299 108.22278318 95.37980188 108.875 105 C108.73902484 113.99135737 105.21234683 121.34753771 99.25 127.9375 C92.20394737 134.3125 92.20394737 134.3125 88.625 134.3125 C87.53194608 140.54752586 87.19951521 146.35202232 89.625 152.3125 C93.72777211 157.83285944 98.68085496 162.44083307 103.76220703 167.04931641 C104.26301788 167.50352966 104.76382874 167.95774292 105.27981567 168.42572021 C106.67480562 169.67485517 108.09079217 170.90042493 109.5078125 172.12451172 C113.82102729 176.58196455 112.80828759 182.38210794 112.8125 188.25 C112.82474609 189.14396484 112.83699219 190.03792969 112.84960938 190.95898438 C112.86168349 196.38025985 112.49455467 200.40430385 109.5 205.0625 C106.44906419 207.09645721 103.20657797 207.42759797 99.625 207.3125 C96.47304578 206.20347907 94.41266288 205.41785358 92.453125 202.66796875 C91.50809447 199.97998097 91.60223856 197.70109867 91.70288086 194.87890625 C91.83034875 189.28881199 91.60369217 185.005032 87.89453125 180.59375 C85.00032784 177.58926641 81.88621229 174.90966454 78.625 172.3125 C77.58041681 173.18401615 76.53953593 174.05996967 75.5 174.9375 C74.91992188 175.42476562 74.33984375 175.91203125 73.7421875 176.4140625 C73.04351562 177.04054687 72.34484375 177.66703125 71.625 178.3125 C71.11050293 178.71879639 70.59600586 179.12509277 70.06591797 179.54370117 C67.63716562 181.6316203 65.88984988 183.2261838 65.11572266 186.40136719 C64.9553065 188.74232978 64.93842808 191.0294948 65 193.375 C65.13283335 201.51104284 65.13283335 201.51104284 62.7265625 205.30859375 C59.24208488 208.63115327 56.55085045 208.70552215 51.88671875 208.66796875 C48.26798801 208.09922178 46.74469777 206.16084388 44.625 203.3125 C43.1041063 198.74981889 43.44057519 194.21634735 43.4375 189.4375 C43.42525391 188.44363281 43.41300781 187.44976562 43.40039062 186.42578125 C43.39845703 185.46285156 43.39652344 184.49992188 43.39453125 183.5078125 C43.39042236 182.63141113 43.38631348 181.75500977 43.38208008 180.85205078 C43.92480672 175.17823916 46.16302185 172.47322491 50.4140625 168.828125 C61.81049361 159.6408435 61.81049361 159.6408435 68.01171875 147.15234375 C68.15823593 143.06158419 67.6069708 139.27675249 66.625 135.3125 C65.5525 134.879375 64.48 134.44625 63.375 134 C49.56602872 126.99406556 38.15006753 111.95503179 27.375 101.125 C25.64737054 99.39234365 23.91950768 97.65991999 22.19140625 95.92773438 C17.9999118 91.72533286 13.81129891 87.52007684 9.625 83.3125 C-3.86054748 89.59122848 -15.86720378 100.01699016 -27.0625 109.625 C-28.21090929 110.60808702 -28.21090929 110.60808702 -29.38251877 111.61103439 C-50.63139839 130.14061926 -61.61181993 149.42248426 -63.54352611 177.44567329 C-64.40751171 191.92648679 -64.35570336 206.38050075 -63.9375 220.875 C-63.91606288 221.64201123 -63.89462577 222.40902246 -63.87253904 223.19927645 C-63.29746062 243.29020592 -62.05882193 263.28381214 -60.375 283.3125 C-48.825 283.3125 -37.275 283.3125 -25.375 283.3125 C-25.46201172 276.37863281 -25.46201172 276.37863281 -25.55078125 269.3046875 C-25.57634021 266.36975641 -25.60041021 263.43496323 -25.61914062 260.5 C-25.64898861 255.84508641 -25.68423268 251.19066627 -25.75219727 246.53613281 C-25.80667052 242.78189832 -25.83645222 239.0281932 -25.84938622 235.2735939 C-25.85859892 233.84384964 -25.87658988 232.41413317 -25.90365028 230.98461533 C-26.13272582 218.37768839 -26.13272582 218.37768839 -23.03198242 214.44970703 C-18.82978288 211.06956784 -15.20300359 211.15958752 -10.04541016 211.15136719 C-9.30197861 211.14640228 -8.55854706 211.14143738 -7.79258728 211.13632202 C-5.33306961 211.12171645 -2.87361642 211.1149013 -0.4140625 211.109375 C1.2960307 211.10362248 3.00612388 211.09786476 4.71621704 211.09210205 C8.30235087 211.08159681 11.88846232 211.07575094 15.47460938 211.07226562 C20.06690923 211.0667801 24.65891272 211.04274892 29.25111961 211.01429367 C32.78389345 210.9956591 36.31659599 210.99046127 39.84941483 210.98892975 C41.54227952 210.98590484 43.23514302 210.97788172 44.92795944 210.96474457 C47.29774207 210.9476657 49.66680168 210.94956847 52.03662109 210.95605469 C53.08259712 210.94223251 53.08259712 210.94223251 54.14970398 210.9281311 C58.48913668 210.9652866 61.23259067 211.56846685 64.625 214.3125 C67.60955064 218.11953156 67.99382362 220.98130765 67.96557617 225.75512695 C67.96534958 227.03607742 67.96512299 228.31702789 67.96488953 229.63679504 C67.94957193 231.02479404 67.93392398 232.41278943 67.91796875 233.80078125 C67.91236926 235.22852634 67.90810083 236.65627722 67.90510559 238.08403015 C67.89368449 241.83078088 67.8642414 245.57717936 67.83099365 249.3237915 C67.79481945 253.82503226 67.78111854 258.3263912 67.76363373 262.8277359 C67.73460184 269.65623513 67.67709678 276.48396239 67.625 283.3125 C80.825 283.3125 94.025 283.3125 107.625 283.3125 C107.56699219 278.60613281 107.50898438 273.89976562 107.44921875 269.05078125 C107.42366499 266.06572066 107.39959534 263.08079528 107.38085938 260.09570312 C107.35099147 255.35949633 107.31569342 250.62377372 107.24780273 245.88793945 C107.19339821 242.06887198 107.16356214 238.2503238 107.15061378 234.43089867 C107.14138881 232.97520969 107.12337382 231.51954854 107.09634972 230.06408119 C107.05994257 228.02167421 107.05505884 225.98140097 107.05737305 223.9387207 C107.04626999 222.77734085 107.03516693 221.615961 107.02372742 220.41938782 C107.81084008 216.35222956 109.45001428 214.88450459 112.625 212.3125 C115.82847459 211.24467514 118.10687823 211.19191694 121.47338867 211.19897461 C123.27491646 211.19908791 123.27491646 211.19908791 125.11283875 211.19920349 C127.0582531 211.20694542 127.0582531 211.20694542 129.04296875 211.21484375 C130.38389534 211.21670923 131.72482261 211.21813252 133.06575012 211.21913147 C136.59209073 211.22294644 140.11839004 211.23276801 143.64471436 211.24383545 C147.24425701 211.2540715 150.84380635 211.25863379 154.44335938 211.26367188 C161.50392313 211.2743912 168.56445887 211.29145538 175.625 211.3125 C175.67833496 210.57572021 175.73166992 209.83894043 175.78662109 209.07983398 C175.86477051 208.10344971 175.94291992 207.12706543 176.0234375 206.12109375 C176.09739746 205.15743896 176.17135742 204.19378418 176.24755859 203.20092773 C177.85884895 190.87028335 186.1266024 178.05193508 195.625 170.3125 C203.04891517 164.75908615 210.89278566 161.32504453 219.625 158.3125 C219.27566406 157.56484375 218.92632812 156.8171875 218.56640625 156.046875 C218.11136719 155.06203125 217.65632813 154.0771875 217.1875 153.0625 C216.50880859 151.60070312 216.50880859 151.60070312 215.81640625 150.109375 C214.07735375 146.02687799 213.50885862 142.68316681 213.484375 138.25 C213.45537109 136.80753906 213.45537109 136.80753906 213.42578125 135.3359375 C213.39193047 133.32051433 213.37369802 131.30476825 213.37109375 129.2890625 C213.36989494 123.40960077 213.36989494 123.40960077 210.140625 118.75 C209.31046875 118.275625 208.4803125 117.80125 207.625 117.3125 C203.79217087 109.64684174 206.91328605 98.26561817 209.359375 90.57421875 C211.23775497 85.7333321 213.60741743 81.52801736 216.625 77.3125 C217.07617188 76.67828125 217.52734375 76.0440625 217.9921875 75.390625 C225.79461147 65.42820796 238.23268937 59.21752912 250.625 57.3125 C264.6539925 56.21956444 277.12943072 59.08365724 288.625 67.3125 C289.25921875 67.76367188 289.8934375 68.21484375 290.546875 68.6796875 C298.58598138 74.97580179 303.46497903 83.75303957 306.625 93.3125 C307.0375 94.55 307.45 95.7875 307.875 97.0625 C309.19986208 102.95211415 309.46521665 109.35265814 308.625 115.3125 C306.81814574 118.03765263 305.55822187 119.84588906 302.625 121.3125 C302.61098145 122.2257605 302.61098145 122.2257605 302.59667969 123.1574707 C302.16677352 145.43461817 302.16677352 145.43461817 297.625 154.3125 C297.25246094 155.06273437 296.87992187 155.81296875 296.49609375 156.5859375 C296.20863281 157.15570313 295.92117188 157.72546875 295.625 158.3125 C296.43582031 158.59222656 297.24664062 158.87195313 298.08203125 159.16015625 C313.0674931 164.58562614 326.04975367 172.84677536 333.625 187.3125 C335.48772888 191.92401258 337.09761321 196.57820949 338.625 201.3125 C338.955 202.3025 339.285 203.2925 339.625 204.3125 C339.72106866 205.68371237 339.76409948 207.05904386 339.77217102 208.43359375 C339.77932632 209.27165054 339.78648163 210.10970734 339.79385376 210.97315979 C339.79788712 212.34769569 339.79788712 212.34769569 339.80200195 213.75 C339.81185875 215.20181923 339.81185875 215.20181923 339.82191467 216.68296814 C339.84165633 219.89281288 339.85331509 223.10261071 339.86328125 226.3125 C339.86735678 227.41030792 339.8714323 228.50811584 339.87563133 229.63919067 C339.89650036 235.4549338 339.91079589 241.2706533 339.92016602 247.08642578 C339.93120432 253.07718484 339.9655723 259.06756979 340.00533772 265.05819702 C340.03156489 269.67723247 340.03986351 274.29617985 340.04344749 278.9152832 C340.04830128 281.12234002 340.05988056 283.32939322 340.07848549 285.53637695 C340.20105708 301.04611483 339.89933946 313.50787464 328.625 325.3125 C321.74010311 331.7250443 313.82437489 334.84928612 304.625 336.3125 C304.62445523 337.18917926 304.62391047 338.06585852 304.62334919 338.96910381 C304.60838701 360.29295569 304.56596296 381.61659835 304.49290943 402.94033337 C304.45824475 413.25231991 304.43290197 423.56417258 304.42944336 433.8762207 C304.42640552 442.86339801 304.40593937 451.85033697 304.36447543 460.83742219 C304.34312733 465.59682732 304.3305541 470.35589345 304.33884621 475.11534691 C304.34637492 479.59460739 304.33061198 484.07318033 304.29693985 488.55231476 C304.28869228 490.19661495 304.28897349 491.84098333 304.29840279 493.48527718 C304.31000555 495.73079898 304.29094078 497.97406018 304.26423645 500.21940613 C304.26147107 501.47580997 304.25870569 502.7322138 304.25585651 504.02669048 C303.42855267 508.33569386 302.04770752 509.6073014 298.625 512.3125 C295.79565881 512.80463358 293.56925412 512.98678813 290.74603271 512.9417057 C289.95497934 512.94897291 289.16392596 512.95624011 288.34890127 512.96372753 C285.68752429 512.98203355 283.02757836 512.96459687 280.36621094 512.94741821 C278.44329464 512.9531772 276.52038383 512.96111681 274.59748459 512.97105443 C269.30515194 512.99198152 264.01326846 512.98158589 258.72093391 512.96612334 C253.01668332 512.95483775 247.31251145 512.97225867 241.60827637 512.98602295 C230.43041777 513.00828972 219.25272677 513.00343882 208.07486153 512.98895974 C198.99272406 512.97768104 189.91063366 512.97613068 180.82849121 512.98157883 C179.53729394 512.98234499 178.24609666 512.98311116 176.9157722 512.98390054 C174.29296651 512.98549912 171.67016084 512.98712018 169.04735518 512.9887635 C145.1385831 513.00262412 121.22990641 512.98823499 97.32114953 512.96205051 C75.48879024 512.93832191 53.65657676 512.94044503 31.82421875 512.96435547 C7.30326873 512.99112056 -17.21758763 513.00165769 -41.73855209 512.98629415 C-44.35186512 512.98470136 -46.96517816 512.9831295 -49.57849121 512.98157883 C-50.8643881 512.98080745 -52.15028498 512.98003607 -53.47514844 512.97924132 C-62.54941083 512.97491897 -71.62362158 512.9822224 -80.69787598 512.99397659 C-91.75204392 513.00798028 -102.80603428 513.00424646 -113.86018181 512.97757287 C-119.50332797 512.96440609 -125.14617774 512.95933113 -130.7893219 512.97581863 C-135.95103848 512.99067179 -141.11218276 512.98260657 -146.2738471 512.95593087 C-148.14523548 512.95032621 -150.01667179 512.95323053 -151.88802958 512.96530981 C-154.42472589 512.98043301 -156.95944127 512.96500872 -159.49603271 512.9417057 C-160.22909338 512.95341153 -160.96215405 512.96511737 -161.71742868 512.97717792 C-165.58823703 512.9057054 -167.25566676 512.4070057 -170.32845926 509.9735145 C-172.94082712 506.57678331 -172.99894968 504.67253603 -172.99645996 500.41404724 C-173.00284878 499.73220511 -173.0092376 499.05036298 -173.01582003 498.34785897 C-173.0310481 496.0691131 -173.01062548 493.7921123 -172.99023438 491.51342773 C-172.9937365 489.87700322 -172.99939611 488.24058212 -173.00704956 486.60417175 C-173.02130208 482.16142909 -173.00422673 477.71930512 -172.98076439 473.27662158 C-172.96063958 468.61907365 -172.96653621 463.96155106 -172.96887207 459.30397034 C-172.96881848 451.47492295 -172.94905872 443.64611671 -172.91699219 435.81713867 C-172.88018866 426.78823741 -172.87130414 417.75965308 -172.8782897 408.7306866 C-172.88461693 400.02805168 -172.87379366 391.32552459 -172.85432434 382.62291145 C-172.84618639 378.92904171 -172.84343417 375.23522736 -172.84501648 371.54134941 C-172.84590173 367.17869723 -172.83150872 362.81634162 -172.80578995 358.45376778 C-172.79868417 356.86077438 -172.79651724 355.26774929 -172.79990768 353.67474365 C-172.83496451 333.30346531 -167.18930696 317.50542415 -153.375 302.3125 C-152.715 301.6525 -152.055 300.9925 -151.375 300.3125 C-151.19025531 297.64942702 -151.12225899 295.08129525 -151.13671875 292.41796875 C-151.12129545 290.80663224 -151.10499155 289.19530396 -151.08789062 287.58398438 C-151.07145094 285.04270287 -151.06249436 282.50202354 -151.06958008 279.96069336 C-151.07220453 277.50825921 -151.04404528 275.05765786 -151.01171875 272.60546875 C-151.02192551 271.85009323 -151.03213226 271.09471771 -151.04264832 270.31645203 C-150.96850091 266.30249847 -150.53180993 264.50833975 -147.99145508 261.33569336 C-144.38356385 258.54586462 -142.16708319 258.59402323 -137.75390625 258.82421875 C-134.03729307 259.58707039 -132.48809121 261.24510953 -130.375 264.3125 C-128.99532403 268.99291973 -129.26291614 273.79248104 -129.3125 278.625 C-129.31701172 279.46095703 -129.32152344 280.29691406 -129.32617188 281.15820312 C-129.33789452 283.20966649 -129.35582797 285.26109273 -129.375 287.3125 C-127.90353516 286.879375 -127.90353516 286.879375 -126.40234375 286.4375 C-110.97188537 282.10455324 -96.7389683 282.19117723 -81.375 287.3125 C-81.375 252.6625 -81.375 218.0125 -81.375 182.3125 C-85.005 183.9625 -88.635 185.6125 -92.375 187.3125 C-104.8898481 189.81546962 -116.8541019 189.07294905 -128.375 183.3125 C-128.46136719 184.48167969 -128.54773438 185.65085938 -128.63671875 186.85546875 C-128.77747186 188.40375301 -128.91946445 189.95192493 -129.0625 191.5 C-129.11599609 192.26892578 -129.16949219 193.03785156 -129.22460938 193.83007812 C-129.62998082 197.93666714 -130.09812091 199.94507525 -132.64453125 203.32421875 C-135.55105951 205.44070357 -136.83260326 205.99284995 -140.375 205.9375 C-141.2 205.95039063 -142.025 205.96328125 -142.875 205.9765625 C-146.50889264 205.01130977 -147.99038818 203.1759274 -150.375 200.3125 C-151.00318909 197.27963257 -151.00318909 197.27963257 -151.00610352 193.86083984 C-151.01863663 192.57535248 -151.03116974 191.28986511 -151.04408264 189.96542358 C-151.03180607 188.56808464 -151.0183848 187.17075536 -151.00390625 185.7734375 C-151.00473597 184.32719749 -151.00719924 182.88095758 -151.01121521 181.4347229 C-151.01407123 178.40329595 -150.99940398 175.37260852 -150.97192383 172.34130859 C-150.93802327 168.48474006 -150.94379909 164.62950906 -150.9625864 160.77287865 C-150.97324305 157.78363223 -150.96413795 154.79468798 -150.94920158 151.80546951 C-150.94407006 150.38553393 -150.94443945 148.96556607 -150.95074654 147.54563522 C-150.99272655 132.40246092 -146.96453716 121.31436851 -136.75 110.125 C-131.28019286 104.85466759 -124.38397646 101.66227274 -117.23616028 99.25569153 C-112.02934863 97.00683104 -108.47026532 92.90026691 -104.5690918 88.8972168 C-103.28955124 87.60891464 -103.28955124 87.60891464 -101.98416138 86.29458618 C-100.13751309 84.43274487 -98.29490452 82.56774222 -96.45810509 80.69626427 C-93.54648414 77.73025529 -90.61940031 74.77982907 -87.68989563 71.83149719 C-80.94155738 65.03510202 -74.21338069 58.21886201 -67.48551941 51.40220642 C-61.32373864 45.15947135 -55.15765963 38.92114449 -48.97512561 32.69895297 C-46.54403937 30.25130229 -44.11739732 27.79956629 -41.70078087 25.33762169 C-38.99924902 22.58796884 -36.28552563 19.85088736 -33.5690918 17.1159668 C-32.78382614 16.31003586 -31.99856049 15.50410492 -31.1894989 14.67375183 C-22.20829621 5.68918359 -12.88168184 -0.0982465 0 0 Z M-12.375 26.3125 C-15.93049216 31.24431171 -16.22801373 36.42766368 -15.375 42.3125 C-13.0352877 47.17190247 -10.16796738 49.87079963 -5.375 52.3125 C-0.58091585 53.69113273 3.34062203 53.79591031 7.9375 51.75 C12.62233692 49.06228479 14.93234113 45.3904766 16.625 40.3125 C17.02180449 35.05484055 16.51998146 31.75147158 13.625 27.3125 C9.47631617 23.2080688 6.28287899 21.14712738 0.4375 20.9375 C-5.19783241 20.99658605 -8.52671729 22.17915932 -12.375 26.3125 Z M-37.46937561 51.28662109 C-38.39092941 52.21039551 -39.31248322 53.13416992 -40.26196289 54.0859375 C-40.76929459 54.59312317 -41.27662628 55.10030884 -41.79933167 55.62286377 C-43.48448601 57.30871772 -45.16606561 58.99809193 -46.84765625 60.6875 C-48.01186234 61.8535701 -49.17628863 63.01942037 -50.34092712 64.18505859 C-53.41245734 67.26041532 -56.48097337 70.33876277 -59.54888916 73.41772461 C-62.67727597 76.55632269 -65.80847942 79.6921079 -68.93945312 82.828125 C-75.087409 88.98682055 -81.23218615 95.14867571 -87.375 101.3125 C-85.10907038 103.64969287 -82.90771358 105.30215552 -80.125 107 C-73.41993227 111.40088322 -68.51544365 116.92322082 -65.375 124.3125 C-61.64592524 122.75365869 -59.26798626 120.45902096 -56.42285156 117.61914062 C-55.9443425 117.1441362 -55.46583344 116.66913177 -54.9728241 116.17973328 C-53.39870191 114.61438647 -51.83197606 113.04187006 -50.265625 111.46875 C-49.1730423 110.37751471 -48.08016288 109.28657645 -46.98699951 108.19592285 C-44.70079351 105.91266205 -42.4182362 103.62583087 -40.13818359 101.33642578 C-37.21038273 98.39720373 -34.27365908 95.46708691 -31.3341713 92.53955841 C-29.07784671 90.29044566 -26.82628863 88.03661 -24.57616425 85.78129578 C-23.49471745 84.69851201 -22.41177529 83.61721969 -21.32733917 82.53742981 C-19.81653368 81.03168137 -18.31225137 79.5197098 -16.80957031 78.00585938 C-15.9511554 77.14585327 -15.09274048 76.28584717 -14.20831299 75.39978027 C-12.15502704 73.52506912 -12.15502704 73.52506912 -12.375 71.3125 C-13.0040625 71.05597656 -13.633125 70.79945312 -14.28125 70.53515625 C-24.28217883 66.06184923 -30.03752815 59.25253966 -34.375 49.3125 C-35.73340479 49.19818218 -35.73340479 49.19818218 -37.46937561 51.28662109 Z M34.625 50.3125 C34.109375 51.4675 33.59375 52.6225 33.0625 53.8125 C30.66384649 58.66176341 27.32292733 62.40682394 23.625 66.3125 C28.3418175 71.98023547 33.38273545 77.21609713 38.6015625 82.421875 C39.87306656 83.69481415 39.87306656 83.69481415 41.17025757 84.99346924 C42.95244577 86.77633472 44.73588451 88.55795092 46.52050781 90.33837891 C49.25180614 93.06430259 51.97770371 95.79554549 54.703125 98.52734375 C56.43978345 100.26334173 58.1767519 101.99902966 59.9140625 103.734375 C60.72767242 104.55000916 61.54128235 105.36564331 62.37954712 106.20599365 C63.14068817 106.96398254 63.90182922 107.72197144 64.68603516 108.50292969 C65.35188629 109.16798523 66.01773743 109.83304077 66.70376587 110.51824951 C70.08969269 113.68038407 71.78754621 115.20444145 76.5 115.8125 C79.63283797 115.68367302 81.54706342 115.06650082 84.0625 113.1875 C86.93329846 109.96660417 87.71245867 108.5979747 87.625 104.3125 C85.71778826 99.7804083 83.37311379 96.68570437 79.90991211 93.22509766 C79.44451523 92.75605011 78.97911835 92.28700256 78.49961853 91.80374146 C76.97446884 90.27054945 75.4388246 88.74839211 73.90234375 87.2265625 C72.83473956 86.15947737 71.76765439 85.09187273 70.70106506 84.02377319 C68.47230788 81.79510543 66.23849973 79.57167066 64.00073242 77.35205078 C61.12817052 74.50227158 58.2669177 71.64144671 55.40909481 68.77689552 C53.21079801 66.57526505 51.00755921 64.37863705 48.80267525 62.18360519 C47.74514928 61.12993468 46.68897601 60.07490475 45.63416862 59.01851273 C44.16454517 57.54852005 42.68862155 56.08517158 41.21069336 54.62353516 C39.95185585 53.37160873 39.95185585 53.37160873 38.66758728 52.09439087 C36.82557892 50.09337293 36.82557892 50.09337293 34.625 50.3125 Z M267.625 80.3125 C267.625 87.2425 267.625 94.1725 267.625 101.3125 C273.895 101.3125 280.165 101.3125 286.625 101.3125 C283.70803607 91.10312624 279.89426568 86.48523628 270.625 81.3125 C269.635 80.9825 268.645 80.6525 267.625 80.3125 Z M235.875 87.75 C231.9379562 92.23385544 229.80931245 95.39093773 228.625 101.3125 C234.895 101.3125 241.165 101.3125 247.625 101.3125 C247.625 94.3825 247.625 87.4525 247.625 80.3125 C243.73658665 80.3125 238.59034259 85.34321906 235.875 87.75 Z M-126.625 131.4375 C-130.10941682 137.16189907 -130.05990403 142.77405574 -129.375 149.3125 C-127.16606094 156.71347805 -123.0761284 161.55580681 -116.375 165.3125 C-110.31064273 168.19083651 -103.543887 168.42514214 -97.0625 166.6953125 C-90.35720374 163.73555282 -85.26512505 158.0248062 -82.4375 151.3125 C-80.26376585 144.34296489 -80.92760967 138.92356385 -84.125 132.484375 C-87.85037816 126.01153044 -91.64872165 122.4445476 -98.796875 119.97265625 C-110.62847938 116.94304846 -119.67877872 121.78997044 -126.625 131.4375 Z M233.625 122.3125 C233.32315464 137.10111793 233.32315464 137.10111793 239.83984375 149.5546875 C244.71186108 154.35207875 250.30635501 157.40032541 257.1875 157.6875 C263.96163682 157.59849674 269.50350933 155.14376943 274.515625 150.59765625 C282.16190065 142.11622914 281.625 133.53443429 281.625 122.3125 C265.785 122.3125 249.945 122.3125 233.625 122.3125 Z M204.74609375 191.26171875 C200.0346537 197.08312211 196.96090972 203.78544797 196.25 211.25 C196.41279426 214.48110583 196.41279426 214.48110583 198.625 217.3125 C198.9034729 220.17887878 198.9034729 220.17887878 198.94384766 223.71166992 C198.95389328 224.35584366 198.9639389 225.0000174 198.97428894 225.66371155 C199.00514705 227.79012165 199.02216293 229.9164057 199.0390625 232.04296875 C199.05777209 233.51842841 199.07734534 234.99387735 199.0977478 236.46931458 C199.14909736 240.35067425 199.18870781 244.23206863 199.22589111 248.11358643 C199.26591316 252.07516077 199.31701368 256.0365904 199.3671875 259.99804688 C199.46398018 267.76943201 199.5483741 275.54088709 199.625 283.3125 C203.585 283.3125 207.545 283.3125 211.625 283.3125 C211.6343457 281.57645508 211.64369141 279.84041016 211.65332031 278.05175781 C211.68885994 272.31195668 211.74266564 266.57248259 211.80890274 260.83296585 C211.84839051 257.35346863 211.8805721 253.87422495 211.89599609 250.39453125 C211.91405547 246.39281624 211.96399981 242.39204876 212.015625 238.390625 C212.01685364 237.14259094 212.01808228 235.89455688 212.01934814 234.60870361 C212.04892609 232.86735138 212.04892609 232.86735138 212.07910156 231.09082031 C212.08798401 230.06933899 212.09686646 229.04785767 212.10601807 227.99542236 C212.75999784 224.6146169 213.95427314 223.42068506 216.625 221.3125 C219.0625 220.78125 219.0625 220.78125 221.625 220.8125 C222.8934375 220.79703125 222.8934375 220.79703125 224.1875 220.78125 C227.45640598 221.49370387 228.53439317 222.72621233 230.625 225.3125 C231.14398193 227.99542236 231.14398193 227.99542236 231.17089844 231.09082031 C231.19061707 232.2517218 231.21033569 233.41262329 231.23065186 234.60870361 C231.23188049 235.85673767 231.23310913 237.10477173 231.234375 238.390625 C231.25091125 239.67233582 231.26744751 240.95404663 231.28448486 242.27459717 C231.32812554 245.67432546 231.34814965 249.0737959 231.36322021 252.47375488 C231.38280358 255.94619981 231.42477203 259.41836676 231.46484375 262.890625 C231.54010956 269.69781179 231.59042277 276.50498827 231.625 283.3125 C232.63892822 283.36946045 233.65285645 283.4264209 234.69750977 283.48510742 C236.04965688 283.56664688 237.40178825 283.6484479 238.75390625 283.73046875 C239.41958618 283.76716675 240.08526611 283.80386475 240.77111816 283.8416748 C254.97585878 284.72484857 265.9580737 289.88579856 275.625 300.3125 C277.41438693 302.89348814 278.98086516 305.48226116 280.46875 308.24609375 C281.57612809 310.44482317 281.57612809 310.44482317 283.625 312.3125 C283.62864563 311.23143982 283.63229126 310.15037964 283.63604736 309.03656006 C283.67297094 298.85405354 283.73071464 288.67185018 283.80890274 278.48957443 C283.84843056 273.25459276 283.880593 268.01978063 283.89599609 262.78466797 C283.91112774 257.73350213 283.94551105 252.68280225 283.99330902 247.63184357 C284.00815891 245.70375872 284.01604308 243.77560736 284.01688385 241.84746552 C284.01924443 239.14878013 284.04624988 236.45139202 284.07910156 233.75292969 C284.07155602 232.55422997 284.07155602 232.55422997 284.06385803 231.33131409 C284.13126681 227.75791672 284.32433299 225.71103909 286.5067749 222.81817627 C289.06730531 220.99810064 290.50388765 220.77443765 293.625 220.8125 C294.8934375 220.79703125 294.8934375 220.79703125 296.1875 220.78125 C299.55452903 221.51508966 300.55147148 222.5513598 302.625 225.3125 C303.02775372 228.30788311 303.18932718 230.94038604 303.17089844 233.93652344 C303.18123611 234.80517532 303.19157379 235.67382721 303.20222473 236.56880188 C303.23169526 239.43668119 303.2331528 242.30385605 303.234375 245.171875 C303.24935378 247.16157379 303.26608028 249.15126013 303.28448486 251.14093018 C303.32820449 256.37535162 303.34816774 261.60960532 303.36322021 266.84417725 C303.38277462 272.18658383 303.42474652 277.52880884 303.46484375 282.87109375 C303.54019588 293.35150655 303.5904571 303.83187881 303.625 314.3125 C309.10274444 313.60199758 311.66468487 312.27281513 315.625 308.3125 C319.53415234 301.97697724 319.77485496 295.65014781 319.77026367 288.37036133 C319.77362228 287.59711517 319.7769809 286.82386902 319.78044128 286.02719116 C319.78990217 283.48295462 319.79189218 280.93878427 319.79296875 278.39453125 C319.79618554 276.61341831 319.79954993 274.83230563 319.80305481 273.05119324 C319.80903453 269.31984851 319.81089598 265.58852691 319.81030273 261.85717773 C319.81020137 257.10083591 319.82383201 252.34464423 319.84107494 247.5883379 C319.85225461 243.90863886 319.85422009 240.22897537 319.85369301 236.54926109 C319.85486498 234.79717175 319.85924222 233.04508125 319.86702538 231.2930088 C319.92964933 215.73508822 319.54830601 200.97235216 308.3359375 188.90625 C298.08000093 179.35277483 286.20701061 177.8407704 272.625 177.9140625 C271.42746094 177.91119232 270.22992188 177.90832214 268.99609375 177.90536499 C266.48176598 177.90333717 263.96742197 177.90877643 261.453125 177.92138672 C257.63505306 177.93745768 253.81803956 177.92149287 250 177.90234375 C247.54166436 177.90432641 245.08332938 177.90817055 242.625 177.9140625 C240.93697266 177.90495346 240.93697266 177.90495346 239.21484375 177.8956604 C225.35521879 178.01684436 214.5384444 181.10291839 204.74609375 191.26171875 Z M-4.375 232.3125 C-4.375 249.1425 -4.375 265.9725 -4.375 283.3125 C12.455 283.3125 29.285 283.3125 46.625 283.3125 C46.625 266.4825 46.625 249.6525 46.625 232.3125 C29.795 232.3125 12.965 232.3125 -4.375 232.3125 Z M127.625 232.3125 C127.625 249.1425 127.625 265.9725 127.625 283.3125 C144.785 283.3125 161.945 283.3125 179.625 283.3125 C179.625 266.4825 179.625 249.6525 179.625 232.3125 C162.465 232.3125 145.305 232.3125 127.625 232.3125 Z M-139.375 318.3125 C-151.32698602 332.60116644 -152.53896218 347.4387579 -152.48852539 365.29931641 C-152.48824273 366.68008421 -152.48840279 368.06085216 -152.4889679 369.44161987 C-152.48925279 373.1599308 -152.48340613 376.87820895 -152.47639394 380.59651232 C-152.47010886 384.49356955 -152.46955254 388.39062769 -152.46836853 392.28768921 C-152.46527034 399.65388456 -152.45707746 407.02006493 -152.44701904 414.38625371 C-152.43371175 424.34968803 -152.42834578 434.31312649 -152.42251682 444.27656746 C-152.41313645 459.95522284 -152.39320747 475.63384662 -152.375 491.3125 C-121.685 491.3125 -90.995 491.3125 -59.375 491.3125 C-59.375 452.7025 -59.375 414.0925 -59.375 374.3125 C-64.325 373.6525 -69.275 372.9925 -74.375 372.3125 C-76.025 371.9825 -77.675 371.6525 -79.375 371.3125 C-81.39287217 372.57259269 -81.39287217 372.57259269 -83.125 374.5 C-90.47883354 381.37363919 -98.3440861 383.61418162 -108.375 383.3125 C-118.29983371 382.01903796 -126.42778483 378.32477334 -132.75 370.4375 C-138.56473535 361.90063092 -140.629813 351.86550509 -138.75 341.625 C-136.23093911 332.50369457 -131.20196733 325.64303862 -123.375 320.3125 C-118.66298052 318.05125348 -114.1733884 316.41059391 -108.9375 316.125 C-106.24099946 315.57389557 -106.24099946 315.57389557 -105.12890625 313.328125 C-103.06766811 308.98842311 -103.06766811 308.98842311 -102.375 304.3125 C-115.99930966 303.52648213 -129.68023827 308.61773827 -139.375 318.3125 Z M-82.96875 313.48046875 C-88.12055029 320.19211968 -88.26364888 327.06951552 -87.375 335.3125 C-85.63854895 341.94159299 -80.9549654 346.55766809 -75.375 350.3125 C-68.90293504 353.8820368 -62.96310802 353.739394 -55.67985535 353.70690918 C-54.39869459 353.71300028 -53.11753383 353.71909139 -51.79755002 353.72536707 C-48.25251137 353.74173743 -44.70769553 353.73945465 -41.16263235 353.7339921 C-37.33496153 353.73131828 -33.50734964 353.74586034 -29.67970276 353.75808716 C-22.18486131 353.77912893 -14.69009723 353.78368272 -7.19522973 353.78189927 C-1.10184173 353.78059095 4.99152216 353.78439939 11.08490562 353.79182434 C12.84102509 353.79392357 14.59714456 353.79602117 16.35326403 353.79811716 C17.66443315 353.79968245 17.66443315 353.79968245 19.00209054 353.80127937 C35.52964111 353.82017688 52.05714728 353.81913312 68.58470418 353.81231004 C83.6963121 353.80673566 98.80775043 353.82755639 113.91931871 353.86067051 C129.44371358 353.89442463 144.96802724 353.90957365 160.49245948 353.90495348 C169.20508118 353.90271044 177.91754617 353.90792768 186.63013649 353.93284607 C194.04813288 353.95388152 201.46588662 353.95742907 208.88389305 353.93854648 C212.66651579 353.92940212 216.4486864 353.92820501 220.23127365 353.94890213 C224.33750112 353.97112101 228.44266766 353.95436219 232.54890442 353.93395996 C234.33068619 353.95273673 234.33068619 353.95273673 236.14846355 353.97189283 C244.79867296 353.87984262 251.39377093 351.89277075 258.0625 346.25 C258.578125 345.610625 259.09375 344.97125 259.625 344.3125 C260.16125 343.673125 260.6975 343.03375 261.25 342.375 C265.44378012 336.08432982 265.31865208 329.64920467 264.625 322.3125 C262.9200933 315.74105581 258.23677684 310.93448015 252.625 307.3125 C245.64860727 304.04149534 239.52033083 303.88606045 231.88552856 303.92481995 C230.61168049 303.91943441 229.33783241 303.91404887 228.02538288 303.90850013 C224.50539873 303.8940847 220.9856495 303.89827792 217.4656527 303.90566695 C213.66322669 303.91040606 209.86085095 303.89788218 206.05844116 303.88764954 C198.61519972 303.87047048 191.17204272 303.8696197 183.7287866 303.87486244 C177.67737608 303.87890719 171.62599048 303.87745695 165.57458115 303.87211418 C164.71263959 303.87136576 163.85069803 303.87061734 162.96263703 303.86984624 C161.21148261 303.86831473 159.46032819 303.86677638 157.70917378 303.86523127 C141.29416197 303.85150935 124.87919785 303.85694165 108.46418713 303.86841648 C93.45612951 303.87834758 78.4481952 303.86540979 63.44015659 303.84148229 C48.01969299 303.81708301 32.5992868 303.80748551 17.17880428 303.81413502 C8.52546851 303.81762552 -0.12777245 303.81540638 -8.7810936 303.79788399 C-16.14780619 303.78315161 -23.51435721 303.78254002 -30.88106667 303.7999549 C-34.63730657 303.80845898 -38.39325797 303.81062924 -42.14948273 303.79530334 C-46.22707536 303.77887265 -50.30397391 303.79362224 -54.38156128 303.81129456 C-56.15064702 303.79688705 -56.15064702 303.79688705 -57.95547187 303.78218848 C-67.8716301 303.87051701 -76.17717687 305.8719847 -82.96875 313.48046875 Z M-116.625 341.5 C-118.87917451 345.12278046 -119.69938669 348.04681507 -119.375 352.3125 C-118.08148557 356.51642191 -115.76172445 359.37689555 -112.125 361.8125 C-107.9419585 363.9220511 -104.86260719 363.35960834 -100.375 362.3125 C-99.385 361.6525 -98.395 360.9925 -97.375 360.3125 C-98.57973291 357.89098685 -99.80081884 355.47893954 -101.03125 353.0703125 C-101.64592807 351.85942309 -102.260509 350.64848436 -102.875 349.4375 C-103.33712891 348.53837891 -103.33712891 348.53837891 -103.80859375 347.62109375 C-105.67549656 343.92735042 -107.16494662 340.26937454 -108.375 336.3125 C-111.56760186 336.3125 -114.50265455 339.43660859 -116.625 341.5 Z M282.625 345.3125 C282.22667969 346.07175781 281.82835937 346.83101563 281.41796875 347.61328125 C280.88816406 348.60714844 280.35835938 349.60101563 279.8125 350.625 C279.02939453 352.10419922 279.02939453 352.10419922 278.23046875 353.61328125 C276.84230444 355.9471536 275.53737601 357.44606696 273.625 359.3125 C273.625 359.9725 273.625 360.6325 273.625 361.3125 C273.00625 361.60125 272.3875 361.89 271.75 362.1875 C269.49174235 363.24970042 269.49174235 363.24970042 267.625 365.3125 C267.32642354 367.62061091 267.32642354 367.62061091 267.38449097 370.3364563 C267.38174164 371.39938904 267.37899231 372.46232178 267.37615967 373.5574646 C267.38335022 374.7284671 267.39054077 375.8994696 267.39794922 377.10595703 C267.39765717 378.33519897 267.39736511 379.56444092 267.39706421 380.83093262 C267.39822094 384.2068349 267.40826911 387.58249425 267.42221212 390.95835352 C267.43469282 394.4844253 267.43588788 398.01050012 267.43826294 401.53659058 C267.44448556 408.21600675 267.4609069 414.89535766 267.48096192 421.57474506 C267.50329665 429.17802332 267.51430823 436.78130466 267.52435279 444.38460755 C267.54527249 460.02727723 267.58086523 475.66987765 267.625 491.3125 C272.905 491.3125 278.185 491.3125 283.625 491.3125 C283.625 443.1325 283.625 394.9525 283.625 345.3125 C283.295 345.3125 282.965 345.3125 282.625 345.3125 Z M-38.375 374.3125 C-38.375 383.2225 -38.375 392.1325 -38.375 401.3125 C-34.7963208 401.32708252 -31.2176416 401.34166504 -27.53051758 401.35668945 C-15.71593777 401.40699196 -3.9014865 401.47342884 7.9129591 401.54821491 C15.07713029 401.59316953 22.24125181 401.63258489 29.40551758 401.65893555 C35.65031766 401.68191842 41.8949605 401.71531951 48.13963586 401.76120156 C51.44580417 401.78513021 54.75178349 401.80230731 58.0580349 401.81011391 C61.75010802 401.81971561 65.44161136 401.84772921 69.13354492 401.88012695 C70.77568718 401.87797432 70.77568718 401.87797432 72.45100403 401.8757782 C81.69446842 401.99073632 81.69446842 401.99073632 85.625 405.3125 C88.16944917 408.43523308 87.70739355 411.50309762 87.40234375 415.3125 C86.13833257 418.56462927 84.63494465 419.50283914 81.625 421.3125 C77.76894273 421.92473389 73.9395404 421.87615688 70.04174805 421.85839844 C68.87058945 421.86873611 67.69943085 421.87907379 66.49278259 421.88972473 C62.62395522 421.9192086 58.75564976 421.92065316 54.88671875 421.921875 C52.20340788 421.93685287 49.52015175 421.95338424 46.83686829 421.97198486 C40.49757893 422.01252078 34.15839237 422.03287981 27.81899339 422.04595876 C19.89160057 422.06339533 11.96438842 422.10781978 4.03710938 422.15234375 C-10.10025553 422.23162798 -24.23736918 422.27014006 -38.375 422.3125 C-38.375 445.0825 -38.375 467.8525 -38.375 491.3125 C44.125 491.3125 126.625 491.3125 211.625 491.3125 C211.625 452.7025 211.625 414.0925 211.625 374.3125 C129.125 374.3125 46.625 374.3125 -38.375 374.3125 Z M231.625 374.3125 C231.625 412.9225 231.625 451.5325 231.625 491.3125 C236.905 491.3125 242.185 491.3125 247.625 491.3125 C247.625 452.7025 247.625 414.0925 247.625 374.3125 C242.345 374.3125 237.065 374.3125 231.625 374.3125 Z " fill="#000000" transform="translate(172.375,-0.3125)"/>
<path d="M0 0 C3.18637361 0.64073817 4.95955678 2.09960721 7.15625 4.43359375 C8.77613799 7.67336973 8.72145367 10.93192965 8.15625 14.43359375 C6.81584381 17.24063271 5.60879539 18.29413926 3.15625 20.43359375 C-0.90266233 21.68816665 -3.06059156 21.68962632 -7.09375 20.37109375 C-10.46922612 17.9929174 -11.5625101 16.3526805 -12.84375 12.43359375 C-12.84375 8.15922781 -12.25188237 6.03303817 -9.84375 2.49609375 C-6.288827 0.05208419 -4.22614619 -0.23243804 0 0 Z " fill="#000000" transform="translate(68.84375,132.56640625)"/>
<path d="M0 0 C3.02519989 2.05971056 4.66926776 3.51573824 5.48046875 7.15625 C5.7530672 11.57676536 5.43956037 13.44476585 2.625 17 C-1.47034631 20.12026386 -3.81130583 20.51886942 -9 20 C-13.00535091 17.55228556 -14.66804391 16.07397557 -16.0625 11.5625 C-15.98961886 7.40827516 -15.39074278 5.39331233 -13 2 C-8.47609191 -1.18729888 -5.29441691 -1.54019401 0 0 Z " fill="#000000" transform="translate(178,27)"/>
<path d="M0 0 C5.57894737 3.15789474 5.57894737 3.15789474 7 6 C7.42071592 9.05920574 7.48514117 11.9467746 7 15 C4.81840855 17.75569447 3.12822506 19.43588747 0 21 C-5.26883876 21.59873168 -7.8846468 20.25400021 -12 17 C-13.73631636 13.52736727 -13.60190402 9.78806987 -13 6 C-9.08606917 1.05608737 -6.27104539 -0.60298513 0 0 Z " fill="#000000" transform="translate(397,318)"/>
<path d="M0 0 C5.57894737 3.15789474 5.57894737 3.15789474 7 6 C7.42071592 9.05920574 7.48514117 11.9467746 7 15 C4.81840855 17.75569447 3.12822506 19.43588747 0 21 C-5.26883876 21.59873168 -7.8846468 20.25400021 -12 17 C-13.73631636 13.52736727 -13.60190402 9.78806987 -13 6 C-9.08606917 1.05608737 -6.27104539 -0.60298513 0 0 Z " fill="#000000" transform="translate(333,318)"/>
<path d="M0 0 C5.57894737 3.15789474 5.57894737 3.15789474 7 6 C7.42071592 9.05920574 7.48514117 11.9467746 7 15 C4.81840855 17.75569447 3.12822506 19.43588747 0 21 C-5.26883876 21.59873168 -7.8846468 20.25400021 -12 17 C-13.73631636 13.52736727 -13.60190402 9.78806987 -13 6 C-9.08606917 1.05608737 -6.27104539 -0.60298513 0 0 Z " fill="#000000" transform="translate(269,318)"/>
<path d="M0 0 C5.57894737 3.15789474 5.57894737 3.15789474 7 6 C7.42071592 9.05920574 7.48514117 11.9467746 7 15 C4.81840855 17.75569447 3.12822506 19.43588747 0 21 C-5.26883876 21.59873168 -7.8846468 20.25400021 -12 17 C-13.73631636 13.52736727 -13.60190402 9.78806987 -13 6 C-9.08606917 1.05608737 -6.27104539 -0.60298513 0 0 Z " fill="#000000" transform="translate(205,318)"/>
<path d="M0 0 C5.57894737 3.15789474 5.57894737 3.15789474 7 6 C7.42071592 9.05920574 7.48514117 11.9467746 7 15 C4.81840855 17.75569447 3.12822506 19.43588747 0 21 C-5.26883876 21.59873168 -7.8846468 20.25400021 -12 17 C-13.73631636 13.52736727 -13.60190402 9.78806987 -13 6 C-9.08606917 1.05608737 -6.27104539 -0.60298513 0 0 Z " fill="#000000" transform="translate(141,318)"/>
<path d="M0 0 C3.08813077 2.05875385 4.66221204 3.4716479 5.4765625 7.15625 C5.75651394 11.57653582 5.43904153 13.44542123 2.625 17 C-1.54920632 20.18034767 -3.71604288 20.20843835 -8.8046875 19.5703125 C-11 19 -11 19 -13.5 16.75 C-15.05435838 13.90034297 -15.92279919 12.24243407 -16 9 C-14.81543604 5.1830717 -13.77717558 2.71056053 -10.8125 0 C-6.98760733 -1.35996184 -3.80548028 -1.22757428 0 0 Z " fill="#000000" transform="translate(294,402)"/>
<path d="M0 0 C3.125 1.875 3.125 1.875 5 5 C5.99442918 10.05501501 5.79643714 13.71542397 3.0625 18.125 C-1.09507513 20.67045416 -4.24995095 21.00001033 -9 20 C-12.11717436 18.72768393 -12.79072648 17.83240195 -15 15 C-16.13312201 9.99127228 -15.76912187 6.28186979 -13.125 1.875 C-8.70513784 -0.7769173 -5.02622846 -0.98876625 0 0 Z " fill="#000000" transform="translate(37,225)"/>
</svg>
