<?xml version="1.0" encoding="UTF-8"?>
<svg version="1.1" xmlns="http://www.w3.org/2000/svg" width="512" height="512">
<path d="M0 0 C5.26975438 5.783631 7.97137098 11.77055564 10.04296875 19.2421875 C10.94015625 19.2515332 11.83734375 19.26087891 12.76171875 19.27050781 C16.12445214 19.31480001 19.48596222 19.37653412 22.84814453 19.44970703 C24.29692091 19.47774786 25.74584547 19.49904561 27.19482422 19.51318359 C36.53386712 19.6097278 43.93803846 19.75895541 51.3203125 26.2421875 C51.86816406 26.9021875 52.41601562 27.5621875 52.98046875 28.2421875 C53.54636719 28.9021875 54.11226562 29.5621875 54.6953125 30.2421875 C56.07865561 32.29514887 56.51339412 33.85397074 57.04296875 36.2421875 C57.89852356 36.23330505 58.75407837 36.22442261 59.63555908 36.215271 C67.69870459 36.13511991 75.7617163 36.07422055 83.82516861 36.03493881 C87.97069545 36.01406462 92.11589309 35.98575065 96.26123047 35.94042969 C100.26182032 35.89696501 104.26209356 35.87304912 108.26290131 35.86267853 C109.78916152 35.85528819 111.31540443 35.84085639 112.84152985 35.81926727 C114.97969489 35.79022326 117.11655221 35.78623165 119.25488281 35.78808594 C120.47177795 35.77920349 121.6886731 35.77032104 122.94244385 35.76116943 C126.04296875 36.2421875 126.04296875 36.2421875 128.20668793 37.72018433 C130.8455523 41.34447982 130.58350396 44.76213704 130.52398682 49.07525635 C130.52740452 49.97705557 130.53082222 50.87885478 130.53434348 51.80798125 C130.54094325 54.83617589 130.51891149 57.8634883 130.49707031 60.89160156 C130.49594229 63.05965148 130.49657481 65.22770293 130.49884033 67.39575195 C130.49999016 73.28802243 130.47643706 79.17996861 130.4485445 85.07216358 C130.42357579 91.22743406 130.42119242 97.38271159 130.41644287 103.5380249 C130.40399979 115.1969 130.37116004 126.85562544 130.33104491 138.51443458 C130.28636873 151.7863237 130.2643506 165.05821168 130.24426317 178.33015871 C130.20242867 205.63425134 130.13205063 232.93821104 130.04296875 260.2421875 C130.78577087 260.23330505 131.528573 260.22442261 132.29388428 260.215271 C139.2974678 260.13509006 146.3008921 260.07420564 153.30480576 260.03493881 C156.90555161 260.01407237 160.50591791 259.98577329 164.10644531 259.94042969 C167.58184788 259.89693625 171.05688563 259.87304329 174.53253937 259.86267853 C176.50242659 259.85170135 178.47216722 259.8204805 180.4418335 259.78900146 C182.24324799 259.78854828 182.24324799 259.78854828 184.08105469 259.78808594 C185.1380658 259.77920349 186.1950769 259.77032104 187.28411865 259.76116943 C190.04296875 260.2421875 190.04296875 260.2421875 192.38384247 261.84356689 C194.61105823 265.06348191 194.54611771 267.17107836 194.55090332 271.07421875 C194.56026326 272.1041671 194.56026326 272.1041671 194.5698123 273.15492249 C194.58576443 275.45519371 194.57313043 277.75440847 194.56054688 280.0546875 C194.56596705 281.70394509 194.57308912 283.35319784 194.58178711 285.00244141 C194.600036 289.48178966 194.59294655 293.96076975 194.58027077 298.44012451 C194.57015118 303.12545776 194.57953355 307.81075927 194.58581543 312.49609375 C194.59309488 320.36464097 194.58349635 328.23303807 194.56445312 336.1015625 C194.54268379 345.20164521 194.54973495 354.30136946 194.57175875 363.40144348 C194.58990429 371.21131969 194.59247522 379.02108792 194.58200407 386.83097839 C194.57576448 391.49691647 194.57494627 396.162686 194.58815002 400.82861328 C194.59969564 405.21507567 194.59170662 409.60107544 194.568573 413.98748779 C194.56327897 415.59836051 194.56481155 417.20927208 194.57362366 418.82012939 C194.58453615 421.01733251 194.57087015 423.21304824 194.55090332 425.41015625 C194.54864117 427.25516724 194.54864117 427.25516724 194.54633331 429.13745117 C193.92789752 432.95194311 193.06420767 433.89553532 190.04296875 436.2421875 C187.13985443 436.74358416 187.13985443 436.74358416 183.68981934 436.74555206 C182.3745652 436.75598305 181.05931107 436.76641404 179.70420074 436.77716112 C178.24094934 436.76851251 176.77770013 436.75948587 175.31445312 436.75012207 C173.76292077 436.75472922 172.21139278 436.76108088 170.65987396 436.76903105 C166.38952383 436.78577331 162.11952995 436.77745593 157.84917831 436.76508617 C153.24651388 436.75605795 148.6439119 436.76999431 144.04125977 436.78100586 C135.02197016 436.79881954 126.00281348 436.79493844 116.9835186 436.7833553 C109.65526104 436.77433243 102.32704081 436.773092 94.9987793 436.77745056 C93.95694032 436.77806349 92.91510135 436.77867643 91.84169149 436.77930793 C89.72540854 436.7805868 87.6091256 436.78188365 85.49284267 436.7831983 C65.63485048 436.79461244 45.77693208 436.78147731 25.91895199 436.75999683 C8.86910811 436.7421251 -8.18062684 436.74522897 -25.23046875 436.76367188 C-45.01598658 436.78506386 -64.80143969 436.79351373 -84.58696747 436.78122282 C-86.69559223 436.77994858 -88.80421701 436.7786911 -90.9128418 436.77745056 C-92.46918579 436.77652491 -92.46918579 436.77652491 -94.05697107 436.77558056 C-101.37889817 436.77212263 -108.70078432 436.77796551 -116.02270508 436.78736877 C-124.94216241 436.79857158 -133.86147889 436.79558499 -142.78092003 436.7742458 C-147.3343214 436.76371217 -151.88748767 436.75965275 -156.44088745 436.77284241 C-160.60578742 436.78472451 -164.77023344 436.77827344 -168.93509197 436.7569322 C-170.44512322 436.75244829 -171.95519248 436.75477232 -173.46519947 436.76443535 C-175.51140087 436.77652951 -177.55770905 436.76177981 -179.60388184 436.74555206 C-181.31164921 436.74457795 -181.31164921 436.74457795 -183.05391693 436.74358416 C-185.95703125 436.2421875 -185.95703125 436.2421875 -188.3226428 434.62341642 C-190.48845607 431.46792593 -190.45830794 429.45577489 -190.46039581 425.63916016 C-190.46620958 424.97390068 -190.47202334 424.3086412 -190.47801328 423.62322235 C-190.49266424 421.38386671 -190.47870555 419.14559847 -190.46496582 416.90625 C-190.46957276 415.28872109 -190.47592427 413.67119635 -190.4838748 412.05368042 C-190.50061989 407.60090998 -190.49229836 403.14848112 -190.47992992 398.69570923 C-190.47090287 393.89672495 -190.48483748 389.09780061 -190.49584961 384.29882812 C-190.51366454 374.89452478 -190.50978163 365.4903489 -190.49819905 356.0860405 C-190.48917668 348.44504497 -190.48793553 340.80408525 -190.49229431 333.16308594 C-190.49290724 332.07684118 -190.49352018 330.99059643 -190.49415168 329.87143517 C-190.49543054 327.66496021 -190.4967274 325.45848527 -190.49804205 323.25201035 C-190.50945656 302.54705735 -190.49632048 281.84217512 -190.47484058 261.13723373 C-190.45696882 243.35968287 -190.46007268 225.58223648 -190.47851562 207.8046875 C-190.49990696 187.17536701 -190.50835784 166.54610859 -190.49606657 145.91677856 C-190.49479233 143.71828207 -190.49353485 141.51978557 -190.49229431 139.32128906 C-190.49167721 138.23950064 -190.49106011 137.15771221 -190.49042431 136.04314232 C-190.48696619 128.40862924 -190.49280968 120.77415543 -190.50221252 113.13964844 C-190.51341461 103.8395761 -190.51043025 94.53963886 -190.48908955 85.23958206 C-190.47855497 80.49175834 -190.47449816 75.7441601 -190.48768616 70.99633789 C-190.49956623 66.65380405 -190.49312047 62.31170566 -190.47177595 57.96921158 C-190.46729118 56.39457761 -190.46961793 54.81990719 -190.4792791 53.24529648 C-190.49137197 51.11140641 -190.47904337 48.97902496 -190.46039581 46.84521484 C-190.4597464 45.65809906 -190.45909699 44.47098328 -190.45842791 43.24789429 C-189.85202409 39.61270438 -188.87824086 38.42719443 -185.95703125 36.2421875 C-182.85650635 35.76116943 -182.85650635 35.76116943 -179.16894531 35.78808594 C-178.1585746 35.78720978 -178.1585746 35.78720978 -177.12779236 35.78631592 C-174.90888318 35.78909518 -172.69132971 35.82017636 -170.47265625 35.8515625 C-168.9313836 35.85902553 -167.39010145 35.86471817 -165.84881592 35.86871338 C-161.79780752 35.88396504 -157.7473754 35.92324211 -153.69659424 35.9675293 C-149.56082962 36.00849252 -145.42497163 36.0267266 -141.2890625 36.046875 C-133.17812135 36.08973744 -125.06764804 36.15798235 -116.95703125 36.2421875 C-116.50783325 35.07067139 -116.50783325 35.07067139 -116.04956055 33.87548828 C-114.92109099 31.15556144 -113.6787573 29.34534604 -111.76953125 27.1171875 C-111.21910156 26.45460937 -110.66867188 25.79203125 -110.1015625 25.109375 C-105.11648528 20.76899811 -99.94232525 19.86428904 -93.4921875 19.73046875 C-92.81401474 19.71251755 -92.13584198 19.69456635 -91.43711853 19.67607117 C-89.29798368 19.62243807 -87.15906567 19.58822706 -85.01953125 19.5546875 C-83.55791282 19.52147258 -82.09632285 19.48697913 -80.63476562 19.45117188 C-77.07572915 19.36674147 -73.51661613 19.2997078 -69.95703125 19.2421875 C-69.70526123 18.50323242 -69.45349121 17.76427734 -69.1940918 17.00292969 C-68.851604 16.02485352 -68.50911621 15.04677734 -68.15625 14.0390625 C-67.82197998 13.07323242 -67.48770996 12.10740234 -67.14331055 11.11230469 C-63.46045151 2.2018929 -55.87930505 -4.97831452 -47.21875 -9.04296875 C-30.16500127 -15.62387594 -13.38409846 -12.55499502 0 0 Z M-49.83203125 14.6796875 C-52.32793267 19.1952406 -53.46662325 24.22906302 -54.61474609 29.22631836 C-55.008175 30.9117987 -55.47684073 32.57934434 -55.95703125 34.2421875 C-59.0725275 35.79993563 -62.39459673 35.42017842 -65.81640625 35.453125 C-67.42318707 35.48120487 -69.02995777 35.5098694 -70.63671875 35.5390625 C-73.1689412 35.58023685 -75.70097682 35.61712431 -78.23339844 35.64355469 C-80.67813226 35.67128143 -83.12200698 35.71716305 -85.56640625 35.765625 C-86.31662048 35.76887787 -87.06683472 35.77213074 -87.83978271 35.77548218 C-92.58777461 35.8856716 -96.01456771 36.53960876 -99.95703125 39.2421875 C-103.44259396 47.0585668 -103.44259396 47.0585668 -101.95703125 68.2421875 C-54.43703125 68.2421875 -6.91703125 68.2421875 42.04296875 68.2421875 C43.83182313 46.70186228 43.83182313 46.70186228 39.04296875 38.2421875 C34.9556571 35.69026018 30.46900394 35.94691884 25.78515625 35.93359375 C24.17447526 35.90845237 22.56379826 35.8830541 20.953125 35.85742188 C18.42725504 35.82860124 15.90145391 35.80456539 13.37548828 35.78588867 C10.9283669 35.76428106 8.48201317 35.7248704 6.03515625 35.68359375 C5.27886932 35.68347794 4.5225824 35.68336212 3.74337769 35.6832428 C-1.46170747 35.58467489 -1.46170747 35.58467489 -3.90820312 33.89306641 C-5.48565497 31.41012195 -5.81186684 28.93585792 -6.33203125 26.0546875 C-8.12649654 17.85662272 -10.4355943 12.65907574 -17.39453125 7.7421875 C-28.63821667 1.6427814 -42.26227447 4.22839189 -49.83203125 14.6796875 Z M-173.95703125 52.2421875 C-173.95703125 173.6821875 -173.95703125 295.1221875 -173.95703125 420.2421875 C-115.87703125 420.2421875 -57.79703125 420.2421875 2.04296875 420.2421875 C2.04296875 414.9621875 2.04296875 409.6821875 2.04296875 404.2421875 C0.0952507 404.23632126 -1.85246735 404.23045502 -3.85920715 404.22441101 C-22.17995783 404.16729419 -40.50058972 404.09476949 -58.82121754 404.00647259 C-68.24090775 403.96147173 -77.66055979 403.92206705 -87.08032227 403.89575195 C-95.28882835 403.87280653 -103.49721407 403.83944744 -111.70562476 403.79348594 C-116.05352717 403.76950691 -120.40131004 403.7508089 -124.74927711 403.74457359 C-128.83935215 403.73854378 -132.9291211 403.71862085 -137.01908302 403.68791199 C-138.52231728 403.67909784 -140.02559149 403.67541613 -141.52885056 403.67717934 C-143.57723685 403.67882375 -145.62561032 403.66041912 -147.67390442 403.64091492 C-148.82153668 403.63630595 -149.96916895 403.63169699 -151.15157795 403.62694836 C-153.95703125 403.2421875 -153.95703125 403.2421875 -155.60832453 402.08088923 C-157.51116283 399.48673587 -157.33603577 397.63987499 -157.34179211 394.43819904 C-157.35124865 393.22000424 -157.36070519 392.00180943 -157.37044829 390.74669963 C-157.36581812 389.38779821 -157.3609116 388.02889771 -157.35575867 386.66999817 C-157.36119467 385.23197308 -157.36794479 383.79395245 -157.37590057 382.35593909 C-157.3939912 378.39491772 -157.39336088 374.4340832 -157.3897711 370.47303021 C-157.38914907 366.20511832 -157.40575025 361.93727012 -157.42028809 357.66938782 C-157.44311591 350.2718592 -157.45496639 342.87437779 -157.45941734 335.47681618 C-157.46586849 324.78112093 -157.48878758 314.0855112 -157.51576064 303.38985034 C-157.55907098 286.03798841 -157.58901345 268.68613007 -157.6105957 251.33422852 C-157.63159268 234.47581211 -157.65885657 217.61742511 -157.69458008 200.7590332 C-157.6967789 199.72034691 -157.69897773 198.68166062 -157.70124318 197.61149899 C-157.71231252 192.40085387 -157.72350539 187.19020903 -157.73475969 181.97956431 C-157.8280049 138.7337977 -157.89935303 95.48801506 -157.95703125 52.2421875 C-163.23703125 52.2421875 -168.51703125 52.2421875 -173.95703125 52.2421875 Z M-141.95703125 52.2421875 C-141.95703125 163.1221875 -141.95703125 274.0021875 -141.95703125 388.2421875 C-94.43703125 388.2421875 -46.91703125 388.2421875 2.04296875 388.2421875 C2.25312268 347.56879775 2.25312268 347.56879775 2.4309082 306.89526367 C2.48083496 299.03771973 2.48083496 299.03771973 2.50798035 295.36201477 C2.52415613 292.78868583 2.53553087 290.21574883 2.54008484 287.64241028 C2.54729684 283.7499668 2.57807049 279.85789407 2.6105957 275.96557617 C2.60916974 274.81469356 2.60774378 273.66381094 2.6062746 272.47805309 C2.61880363 271.43275086 2.63133265 270.38744864 2.64424133 269.31047058 C2.6488503 268.39881732 2.65345926 267.48716406 2.65820789 266.54788494 C3.04296875 264.2421875 3.04296875 264.2421875 6.04296875 261.2421875 C31.12296875 260.9121875 56.20296875 260.5821875 82.04296875 260.2421875 C82.04296875 191.6021875 82.04296875 122.9621875 82.04296875 52.2421875 C74.12296875 52.2421875 66.20296875 52.2421875 58.04296875 52.2421875 C58.00558594 54.22863281 57.96820313 56.21507813 57.9296875 58.26171875 C57.88101059 60.18793363 57.83223067 62.11414745 57.78051758 64.0402832 C57.73095556 66.0350938 57.69645742 68.03026007 57.66210938 70.02539062 C57.62666016 71.27900391 57.59121094 72.53261719 57.5546875 73.82421875 C57.52850342 74.98155518 57.50231934 76.1388916 57.4753418 77.33129883 C57.04296875 80.2421875 57.04296875 80.2421875 55.93585205 81.90030861 C53.09707231 83.91274044 50.77822022 83.61996818 47.32446289 83.62313843 C46.63797952 83.6278184 45.95149614 83.63249837 45.24421024 83.63732016 C42.9386533 83.64930813 40.6336866 83.63979852 38.328125 83.63037109 C36.67739514 83.63443512 35.02666801 83.63977605 33.37594604 83.64630127 C28.88839448 83.66000081 24.40104937 83.65466539 19.91349411 83.64516401 C15.22235295 83.63758105 10.53122973 83.64460922 5.84008789 83.64932251 C-2.03860658 83.65478405 -9.91721676 83.64757802 -17.79589844 83.63330078 C-26.91126352 83.6169735 -36.02642732 83.62226173 -45.14178753 83.63878 C-52.96095601 83.65238354 -60.78006381 83.65432008 -68.5992403 83.64646399 C-73.27240105 83.64178124 -77.94546712 83.64117912 -82.61862183 83.65107346 C-87.01155926 83.65972441 -91.40423658 83.65375563 -95.79714584 83.63639069 C-97.41166629 83.6324158 -99.02620853 83.63357695 -100.64072037 83.64017868 C-102.84028662 83.64834508 -105.03901303 83.63813319 -107.23852539 83.62313843 C-109.08686729 83.62144181 -109.08686729 83.62144181 -110.97254944 83.61971092 C-113.95703125 83.2421875 -113.95703125 83.2421875 -115.84991455 81.90030861 C-117.59005986 79.29410488 -117.39866634 76.92191661 -117.46875 73.82421875 C-117.52192383 71.94379883 -117.52192383 71.94379883 -117.57617188 70.02539062 C-117.59873047 68.71505859 -117.62128906 67.40472656 -117.64453125 66.0546875 C-117.67770791 64.71936737 -117.71219791 63.38407918 -117.74804688 62.04882812 C-117.83064634 58.78024925 -117.89551129 55.51123106 -117.95703125 52.2421875 C-125.87703125 52.2421875 -133.79703125 52.2421875 -141.95703125 52.2421875 Z M98.04296875 52.2421875 C98.04296875 120.8821875 98.04296875 189.5221875 98.04296875 260.2421875 C103.32296875 260.2421875 108.60296875 260.2421875 114.04296875 260.2421875 C114.04296875 191.6021875 114.04296875 122.9621875 114.04296875 52.2421875 C108.76296875 52.2421875 103.48296875 52.2421875 98.04296875 52.2421875 Z M18.04296875 276.2421875 C18.04296875 323.7621875 18.04296875 371.2821875 18.04296875 420.2421875 C70.84296875 420.2421875 123.64296875 420.2421875 178.04296875 420.2421875 C178.04296875 372.7221875 178.04296875 325.2021875 178.04296875 276.2421875 C162.20296875 276.2421875 146.36296875 276.2421875 130.04296875 276.2421875 C130.00558594 280.53863281 129.96820313 284.83507812 129.9296875 289.26171875 C129.89158528 292.68602336 129.85051248 296.11026363 129.80742645 299.53450775 C129.76275017 303.15001826 129.72331837 306.76541243 129.6965332 310.38110352 C129.67053634 313.86318335 129.6301608 317.34482589 129.57978249 320.82663536 C129.55496111 322.80243949 129.54505936 324.7784127 129.5353241 326.75434875 C129.51552994 327.95536728 129.49573578 329.1563858 129.4753418 330.39379883 C129.46423874 331.45303055 129.45313568 332.51226227 129.44169617 333.60359192 C129.04296875 336.2421875 129.04296875 336.2421875 127.85554504 338.08345032 C125.35607499 339.68130245 123.56829005 339.62315824 120.609375 339.63037109 C119.49812256 339.63982758 118.38687012 339.64928406 117.24194336 339.6590271 C116.04190674 339.65295441 114.84187012 339.64688171 113.60546875 339.640625 C112.3738501 339.64349518 111.14223145 339.64636536 109.87329102 339.64932251 C106.59948918 339.65188908 103.32611338 339.6398036 100.05236816 339.62304688 C98.0448649 339.61719303 96.03775506 339.62302545 94.03027344 339.63330078 C90.1801518 339.6517973 86.33061441 339.64959742 82.48046875 339.640625 C80.68041382 339.64973404 80.68041382 339.64973404 78.84399414 339.6590271 C77.17711548 339.64484238 77.17711548 339.64484238 75.4765625 339.63037109 C74.49743896 339.62798431 73.51831543 339.62559753 72.50952148 339.62313843 C70.04296875 339.2421875 70.04296875 339.2421875 68.23039246 338.08345032 C66.5461675 335.47182923 66.64305807 333.49070838 66.6105957 330.39379883 C66.59080154 329.1927803 66.57100739 327.99176178 66.5506134 326.75434875 C66.54422348 325.45740585 66.53783356 324.16046295 66.53125 322.82421875 C66.51440416 321.48327484 66.49625404 320.14234674 66.47685242 318.80143738 C66.42933517 315.27516619 66.39953742 311.74895906 66.37341309 308.22247314 C66.34361595 304.62279699 66.29724445 301.02333718 66.25195312 297.42382812 C66.16433284 290.36326335 66.10440591 283.30322339 66.04296875 276.2421875 C50.20296875 276.2421875 34.36296875 276.2421875 18.04296875 276.2421875 Z M82.04296875 276.2421875 C82.04296875 292.0821875 82.04296875 307.9221875 82.04296875 324.2421875 C92.60296875 324.2421875 103.16296875 324.2421875 114.04296875 324.2421875 C114.04296875 308.4021875 114.04296875 292.5621875 114.04296875 276.2421875 C103.48296875 276.2421875 92.92296875 276.2421875 82.04296875 276.2421875 Z " fill="#000000" transform="translate(253.95703125,43.7578125)"/>
<path d="M0 0 C2.6355367 2.64974445 3.07193272 4.57823633 3.19921875 8.26953125 C1.85526855 12.30138185 0.7724641 13.5899505 -2.92578125 15.64453125 C-6.66024823 16.22544834 -9.25629367 15.5968431 -12.67578125 14.20703125 C-23.01416088 10.13019853 -33.65079611 11.50807072 -43.76171875 15.8671875 C-53.80637053 21.41492595 -60.0153359 29.63788279 -63.50390625 40.43359375 C-65.60274998 51.43308957 -64.35559766 62.57925444 -58.3828125 72.10546875 C-52.16831207 80.66640527 -44.35652104 86.40041776 -33.92578125 88.64453125 C-22.11594883 90.11193822 -12.11120446 88.65286322 -2.1796875 81.73046875 C5.75683307 75.24445639 9.76459896 67.28727119 12.63671875 57.58203125 C13.56671487 54.62002047 13.98478009 53.7290011 16.32421875 51.51953125 C19.97547974 50.35776639 22.3854757 50.68819046 26.07421875 51.64453125 C28.7451109 53.24706654 29.04153224 54.54429261 30.01171875 57.51953125 C31.02763357 67.76514032 24.86102071 77.7337822 19.07421875 85.64453125 C18.36458984 86.63066406 18.36458984 86.63066406 17.640625 87.63671875 C9.50353521 98.00977939 -4.51168967 105.37249259 -17.55615234 106.96582031 C-20.24963684 107.1167634 -22.91568009 107.16347104 -25.61328125 107.14453125 C-26.57008789 107.13881104 -27.52689453 107.13309082 -28.51269531 107.12719727 C-41.4754895 106.80410647 -51.78998055 102.88217291 -61.92578125 94.64453125 C-62.74820313 94.02578125 -63.570625 93.40703125 -64.41796875 92.76953125 C-73.89807612 84.73654307 -81.04113949 71.89853704 -82.11865234 59.40893555 C-82.68662921 42.20612113 -81.26430425 28.45735058 -69.92578125 14.64453125 C-69.14976562 13.65710938 -68.37375 12.6696875 -67.57421875 11.65234375 C-53.11381267 -5.55684713 -19.36751609 -13.63190281 0 0 Z " fill="#000000" transform="translate(209.92578125,309.35546875)"/>
<path d="M0 0 C0.65396381 -0.00623996 1.30792763 -0.01247993 1.98170853 -0.01890898 C4.17144147 -0.03485478 6.36006364 -0.02222988 8.54980469 -0.00964355 C10.12024586 -0.01506402 11.69068195 -0.02218626 13.2611084 -0.03088379 C17.52559358 -0.04912925 21.78969196 -0.0420447 26.05418396 -0.02936745 C30.51529998 -0.01924606 34.9763827 -0.02863072 39.4375 -0.03491211 C46.92942252 -0.04219104 54.42118735 -0.03259441 61.91308594 -0.0135498 C70.57692221 0.00821946 79.24038198 0.00116826 87.90420914 -0.02085543 C95.34041697 -0.03900247 102.7765114 -0.04157117 110.21273422 -0.03110075 C114.65510989 -0.02486197 119.09730853 -0.02404068 123.53967285 -0.0372467 C127.71602519 -0.04879453 131.89189172 -0.04079938 136.06819153 -0.01766968 C137.6016611 -0.01237682 139.1351715 -0.01390626 140.66862488 -0.02272034 C142.76075646 -0.03363768 144.8513275 -0.01996166 146.94335938 0 C148.11437195 0.0015081 149.28538452 0.0030162 150.49188232 0.00457001 C154.08917438 0.61224534 155.26270263 1.66274731 157.47167969 4.50793457 C158.00292969 6.50793457 158.00292969 6.50793457 157.97167969 8.50793457 C157.98714844 9.49793457 157.98714844 9.49793457 158.00292969 10.50793457 C157.21810175 13.46258094 155.84242519 14.60445759 153.47167969 16.50793457 C150.49188232 17.01129913 150.49188232 17.01129913 146.94335938 17.01586914 C146.28939556 17.0221091 145.63543175 17.02834907 144.96165085 17.03477812 C142.7719179 17.05072392 140.58329574 17.03809902 138.39355469 17.0255127 C136.82311351 17.03093316 135.25267742 17.0380554 133.68225098 17.04675293 C129.4177658 17.0649984 125.15366741 17.05791384 120.88917542 17.04523659 C116.4280594 17.0351152 111.96697668 17.04449987 107.50585938 17.05078125 C100.01393686 17.05806018 92.52217202 17.04846355 85.03027344 17.02941895 C76.36643716 17.00764968 67.70297739 17.01470089 59.03915024 17.03672457 C51.60294241 17.05487161 44.16684797 17.05744031 36.73062515 17.04696989 C32.28824949 17.04073111 27.84605084 17.03990982 23.40368652 17.05311584 C19.22733419 17.06466367 15.05146765 17.05666852 10.87516785 17.03353882 C9.34169827 17.02824596 7.80818787 17.0297754 6.2747345 17.03858948 C4.18260291 17.04950682 2.09203188 17.0358308 0 17.01586914 C-1.17101257 17.01436104 -2.34202515 17.01285294 -3.54852295 17.01129913 C-7.14581501 16.4036238 -8.31934325 15.35312183 -10.52832031 12.50793457 C-11.05957031 10.50793457 -11.05957031 10.50793457 -11.02832031 8.50793457 C-11.04378906 7.51793457 -11.04378906 7.51793457 -11.05957031 6.50793457 C-9.52954491 0.74783892 -5.33324865 0.00686849 0 0 Z " fill="#000000" transform="translate(138.5283203125,271.4920654296875)"/>
<path d="M0 0 C1.14404297 -0.0112793 2.28808594 -0.02255859 3.46679688 -0.03417969 C5.34334961 -0.0220343 5.34334961 -0.0220343 7.2578125 -0.00964355 C8.59180465 -0.01506511 9.9257908 -0.02218797 11.25976562 -0.03088379 C14.87966598 -0.04911656 18.49911024 -0.04205017 22.11901855 -0.02936745 C25.9074832 -0.01923938 29.69590882 -0.02863258 33.484375 -0.03491211 C39.84642548 -0.04218911 46.20829022 -0.03259956 52.5703125 -0.0135498 C59.92541387 0.00821921 67.28007173 0.00116786 74.63516235 -0.02085543 C80.95036617 -0.03900805 87.26543648 -0.04156848 93.58065796 -0.03110075 C97.35234853 -0.02486499 101.12383064 -0.02403225 104.89550781 -0.0372467 C108.44153603 -0.04880278 111.98699253 -0.04078487 115.53295898 -0.01766968 C117.45490737 -0.00985857 119.37690412 -0.02174065 121.29882812 -0.03417969 C123.01489258 -0.01726074 123.01489258 -0.01726074 124.765625 0 C125.75965332 0.0015081 126.75368164 0.0030162 127.77783203 0.00457001 C131.10045353 0.6466055 132.29109008 1.90497918 134.3828125 4.50793457 C134.9140625 6.50793457 134.9140625 6.50793457 134.8828125 8.50793457 C134.89828125 9.49793457 134.89828125 9.49793457 134.9140625 10.50793457 C134.13782429 13.43024313 132.6995018 14.60216083 130.3828125 16.50793457 C127.77783203 17.01129913 127.77783203 17.01129913 124.765625 17.01586914 C123.62158203 17.02714844 122.47753906 17.03842773 121.29882812 17.05004883 C120.04779297 17.0419519 118.79675781 17.03385498 117.5078125 17.0255127 C116.17382035 17.03093425 114.8398342 17.03805711 113.50585938 17.04675293 C109.88595902 17.0649857 106.26651476 17.05791931 102.64660645 17.04523659 C98.8581418 17.03510852 95.06971618 17.04450172 91.28125 17.05078125 C84.91919952 17.05805825 78.55733478 17.0484687 72.1953125 17.02941895 C64.84021113 17.00764993 57.48555327 17.01470128 50.13046265 17.03672457 C43.81525883 17.05487719 37.50018852 17.05743762 31.18496704 17.04696989 C27.41327647 17.04073413 23.64179436 17.03990139 19.87011719 17.05311584 C16.32408897 17.06467192 12.77863247 17.05665401 9.23266602 17.03353882 C7.31071763 17.02572771 5.38872088 17.03760979 3.46679688 17.05004883 C1.75073242 17.03312988 1.75073242 17.03312988 0 17.01586914 C-0.99402832 17.01436104 -1.98805664 17.01285294 -3.01220703 17.01129913 C-6.33482853 16.36926364 -7.52546508 15.11088996 -9.6171875 12.50793457 C-10.1484375 10.50793457 -10.1484375 10.50793457 -10.1171875 8.50793457 C-10.13265625 7.51793457 -10.13265625 7.51793457 -10.1484375 6.50793457 C-8.74861472 1.23801353 -4.99267277 0.0075747 0 0 Z " fill="#000000" transform="translate(161.6171875,143.4920654296875)"/>
<path d="M0 0 C1.0094165 -0.0112793 2.01883301 -0.02255859 3.05883789 -0.03417969 C4.16026123 -0.02608276 5.26168457 -0.01798584 6.39648438 -0.00964355 C7.56107178 -0.01665283 8.72565918 -0.02366211 9.92553711 -0.03088379 C13.78067771 -0.04850975 17.63508612 -0.03682384 21.49023438 -0.02331543 C24.1653739 -0.026009 26.84049107 -0.02988396 29.515625 -0.03491211 C35.12442987 -0.0421874 40.733024 -0.03260414 46.34179688 -0.0135498 C52.82441344 0.008219 59.30652679 0.00116752 65.78913116 -0.02085543 C71.35700027 -0.03901302 76.92471797 -0.04156609 82.49260712 -0.03110075 C85.81719107 -0.02486765 89.14148689 -0.02559741 92.46606445 -0.0372467 C96.17238595 -0.04738291 99.87773545 -0.03195028 103.58398438 -0.00964355 C104.68540771 -0.01774048 105.78683105 -0.0258374 106.92163086 -0.03417969 C108.43575562 -0.01726074 108.43575562 -0.01726074 109.98046875 0 C110.85650757 0.0015081 111.73254639 0.0030162 112.63513184 0.00457001 C115.76922829 0.67443175 116.98468568 2.06729702 118.99023438 4.50793457 C119.52148438 6.50793457 119.52148438 6.50793457 119.49023438 8.50793457 C119.50570312 9.49793457 119.50570312 9.49793457 119.52148438 10.50793457 C118.75060311 13.41007581 117.27232168 14.5993654 114.99023438 16.50793457 C112.63513184 17.01129913 112.63513184 17.01129913 109.98046875 17.01586914 C108.97105225 17.02714844 107.96163574 17.03842773 106.92163086 17.05004883 C105.82020752 17.0419519 104.71878418 17.03385498 103.58398438 17.0255127 C102.41939697 17.03252197 101.25480957 17.03953125 100.05493164 17.04675293 C96.19979104 17.06437889 92.34538263 17.05269298 88.49023438 17.03918457 C85.81509485 17.04187814 83.13997768 17.0457531 80.46484375 17.05078125 C74.85603888 17.05805654 69.24744475 17.04847328 63.63867188 17.02941895 C57.15605531 17.00765014 50.67394196 17.01470162 44.19133759 17.03672457 C38.62346848 17.05488216 33.05575078 17.05743523 27.48786163 17.04696989 C24.16327768 17.04073679 20.83898186 17.04146655 17.5144043 17.05311584 C13.8080828 17.06325205 10.1027333 17.04781942 6.39648438 17.0255127 C5.29506104 17.03360962 4.1936377 17.04170654 3.05883789 17.05004883 C1.54471313 17.03312988 1.54471313 17.03312988 0 17.01586914 C-0.87603882 17.01436104 -1.75207764 17.01285294 -2.65466309 17.01129913 C-5.78875954 16.34143739 -7.00421693 14.94857212 -9.00976562 12.50793457 C-9.54101562 10.50793457 -9.54101562 10.50793457 -9.50976562 8.50793457 C-9.52523437 7.51793457 -9.52523437 7.51793457 -9.54101562 6.50793457 C-8.23625145 1.59588121 -4.74608273 0.00817039 0 0 Z " fill="#000000" transform="translate(201.009765625,207.4920654296875)"/>
<path d="M0 0 C1.0094165 -0.0112793 2.01883301 -0.02255859 3.05883789 -0.03417969 C4.16026123 -0.02608276 5.26168457 -0.01798584 6.39648438 -0.00964355 C7.56107178 -0.01665283 8.72565918 -0.02366211 9.92553711 -0.03088379 C13.78067771 -0.04850975 17.63508612 -0.03682384 21.49023438 -0.02331543 C24.1653739 -0.026009 26.84049107 -0.02988396 29.515625 -0.03491211 C35.12442987 -0.0421874 40.733024 -0.03260414 46.34179688 -0.0135498 C52.82441344 0.008219 59.30652679 0.00116752 65.78913116 -0.02085543 C71.35700027 -0.03901302 76.92471797 -0.04156609 82.49260712 -0.03110075 C85.81719107 -0.02486765 89.14148689 -0.02559741 92.46606445 -0.0372467 C96.17238595 -0.04738291 99.87773545 -0.03195028 103.58398438 -0.00964355 C104.68540771 -0.01774048 105.78683105 -0.0258374 106.92163086 -0.03417969 C108.43575562 -0.01726074 108.43575562 -0.01726074 109.98046875 0 C110.85650757 0.0015081 111.73254639 0.0030162 112.63513184 0.00457001 C115.76922829 0.67443175 116.98468568 2.06729702 118.99023438 4.50793457 C119.52148438 6.50793457 119.52148438 6.50793457 119.49023438 8.50793457 C119.50570312 9.49793457 119.50570312 9.49793457 119.52148438 10.50793457 C118.75060311 13.41007581 117.27232168 14.5993654 114.99023438 16.50793457 C112.63513184 17.01129913 112.63513184 17.01129913 109.98046875 17.01586914 C108.97105225 17.02714844 107.96163574 17.03842773 106.92163086 17.05004883 C105.82020752 17.0419519 104.71878418 17.03385498 103.58398438 17.0255127 C102.41939697 17.03252197 101.25480957 17.03953125 100.05493164 17.04675293 C96.19979104 17.06437889 92.34538263 17.05269298 88.49023438 17.03918457 C85.81509485 17.04187814 83.13997768 17.0457531 80.46484375 17.05078125 C74.85603888 17.05805654 69.24744475 17.04847328 63.63867188 17.02941895 C57.15605531 17.00765014 50.67394196 17.01470162 44.19133759 17.03672457 C38.62346848 17.05488216 33.05575078 17.05743523 27.48786163 17.04696989 C24.16327768 17.04073679 20.83898186 17.04146655 17.5144043 17.05311584 C13.8080828 17.06325205 10.1027333 17.04781942 6.39648438 17.0255127 C5.29506104 17.03360962 4.1936377 17.04170654 3.05883789 17.05004883 C1.54471313 17.03312988 1.54471313 17.03312988 0 17.01586914 C-0.87603882 17.01436104 -1.75207764 17.01285294 -2.65466309 17.01129913 C-5.78875954 16.34143739 -7.00421693 14.94857212 -9.00976562 12.50793457 C-9.54101562 10.50793457 -9.54101562 10.50793457 -9.50976562 8.50793457 C-9.52523437 7.51793457 -9.52523437 7.51793457 -9.54101562 6.50793457 C-8.23625145 1.59588121 -4.74608273 0.00817039 0 0 Z " fill="#000000" transform="translate(137.009765625,175.4920654296875)"/>
<path d="M0 0 C2.75171298 1.90503206 3.71801879 3.2856476 4.9375 6.375 C5.04555561 10.91333568 2.72538814 14.14066535 -0.13592529 17.53033447 C-1.37333466 18.78037262 -1.37333466 18.78037262 -2.63574219 20.05566406 C-3.0931076 20.52149902 -3.55047302 20.98733398 -4.021698 21.46728516 C-5.52240805 22.99122426 -7.03389294 24.5038758 -8.546875 26.015625 C-9.60228159 27.07814036 -10.65739159 28.14095041 -11.71221924 29.20404053 C-13.91953003 31.42476281 -16.13264921 33.63949847 -18.34960938 35.85058594 C-21.18212918 38.67720508 -23.99595662 41.52166006 -26.80524826 44.37134171 C-28.97739708 46.56940228 -31.16097921 48.75582403 -33.34793854 50.93914032 C-34.39004415 51.98293311 -35.42819652 53.03068905 -36.46218109 54.08252716 C-37.91198449 55.55459504 -39.37696456 57.00976119 -40.84667969 58.46191406 C-41.67480164 59.29209045 -42.50292358 60.12226685 -43.35614014 60.9776001 C-46.50182296 63.38386554 -49.13098928 64.23932434 -53 65 C-58.91652741 63.19656651 -62.98291828 58.53271206 -67.25 54.25 C-67.96929687 53.5590625 -68.68859375 52.868125 -69.4296875 52.15625 C-73.62360242 47.97804263 -76.18618515 44.94375489 -77 39 C-74.95454545 33.47727273 -74.95454545 33.47727273 -72 32 C-67.81622308 31.42292732 -65.3776861 31.08725237 -61.80078125 33.45703125 C-59.77631245 35.23452234 -57.87112518 37.06249344 -56 39 C-55.42894531 39.57105469 -54.85789063 40.14210938 -54.26953125 40.73046875 C-53.85058594 41.14941406 -53.43164062 41.56835938 -53 42 C-49.69192748 40.55746715 -47.52804619 38.76706451 -44.99755859 36.20874023 C-44.22350677 35.43130966 -43.44945496 34.65387909 -42.65194702 33.85289001 C-41.41270981 32.59346336 -41.41270981 32.59346336 -40.1484375 31.30859375 C-39.29319489 30.44814957 -38.43795227 29.58770538 -37.55679321 28.70118713 C-34.82474662 25.95132102 -32.09947494 23.19486646 -29.375 20.4375 C-26.64252453 17.67744073 -23.9086214 14.91883491 -21.17178345 12.1631012 C-19.46849067 10.44751612 -17.76787759 8.72926575 -16.07015991 7.00816345 C-14.91853867 5.84674583 -14.91853867 5.84674583 -13.74365234 4.66186523 C-13.06732758 3.97728745 -12.39100281 3.29270966 -11.69418335 2.58738708 C-8.27382426 -0.61736277 -4.48594082 -0.63957968 0 0 Z " fill="#000000" transform="translate(236,320)"/>
<path d="M0 0 C0.85247314 -0.00700928 1.70494629 -0.01401855 2.58325195 -0.02124023 C5.3995832 -0.03883756 8.21490864 -0.02719147 11.03125 -0.01367188 C12.98893425 -0.01636629 14.9466172 -0.02024829 16.90429688 -0.02526855 C21.00664007 -0.03116595 25.10863482 -0.02259281 29.2109375 -0.00390625 C34.47045628 0.01888337 39.72915864 0.00576159 44.98864746 -0.01819611 C49.0309871 -0.03264751 53.07313305 -0.0280511 57.11547852 -0.01768494 C59.05476986 -0.01501583 60.99407877 -0.01829385 62.93334961 -0.02760315 C65.6435405 -0.03775789 68.35240775 -0.02228315 71.0625 0 C71.86469971 -0.00809692 72.66689941 -0.01619385 73.4934082 -0.02453613 C77.09387563 0.03033112 79.1245547 0.20680866 82.02734375 2.42492676 C83.65685192 4.69235034 84.0743805 5.75722605 84.03125 8.51757812 C84.04671875 9.50757813 84.04671875 9.50757813 84.0625 10.51757812 C83.25733917 13.54877184 82.02578717 14.61141893 79.53125 16.51757812 C76.5833973 16.912136 74.00947717 17.06490127 71.0625 17.03515625 C69.78379028 17.04567017 69.78379028 17.04567017 68.47924805 17.05639648 C65.6629168 17.07399381 62.84759136 17.06234772 60.03125 17.04882812 C58.07356575 17.05152254 56.1158828 17.05540454 54.15820312 17.0604248 C50.05585993 17.0663222 45.95386518 17.05774906 41.8515625 17.0390625 C36.59204372 17.01627288 31.33334136 17.02939466 26.07385254 17.05335236 C22.0315129 17.06780376 17.98936695 17.06320735 13.94702148 17.05284119 C12.00773014 17.05017208 10.06842123 17.0534501 8.12915039 17.0627594 C5.4189595 17.07291414 2.71009225 17.0574394 0 17.03515625 C-0.80219971 17.04325317 -1.60439941 17.0513501 -2.4309082 17.05969238 C-6.03137563 17.00482513 -8.0620547 16.82834759 -10.96484375 14.61022949 C-12.59435192 12.34280591 -13.0118805 11.2779302 -12.96875 8.51757812 C-12.98421875 7.52757812 -12.98421875 7.52757812 -13 6.51757812 C-11.24883612 -0.07503884 -5.81974348 -0.05874101 0 0 Z " fill="#000000" transform="translate(300.46875,431.482421875)"/>
<path d="M0 0 C0.85247314 -0.00700928 1.70494629 -0.01401855 2.58325195 -0.02124023 C5.3995832 -0.03883756 8.21490864 -0.02719147 11.03125 -0.01367188 C12.98893425 -0.01636629 14.9466172 -0.02024829 16.90429688 -0.02526855 C21.00664007 -0.03116595 25.10863482 -0.02259281 29.2109375 -0.00390625 C34.47045628 0.01888337 39.72915864 0.00576159 44.98864746 -0.01819611 C49.0309871 -0.03264751 53.07313305 -0.0280511 57.11547852 -0.01768494 C59.05476986 -0.01501583 60.99407877 -0.01829385 62.93334961 -0.02760315 C65.6435405 -0.03775789 68.35240775 -0.02228315 71.0625 0 C71.86469971 -0.00809692 72.66689941 -0.01619385 73.4934082 -0.02453613 C77.09387563 0.03033112 79.1245547 0.20680866 82.02734375 2.42492676 C83.65685192 4.69235034 84.0743805 5.75722605 84.03125 8.51757812 C84.04671875 9.50757813 84.04671875 9.50757813 84.0625 10.51757812 C83.25733917 13.54877184 82.02578717 14.61141893 79.53125 16.51757812 C76.5833973 16.912136 74.00947717 17.06490127 71.0625 17.03515625 C69.78379028 17.04567017 69.78379028 17.04567017 68.47924805 17.05639648 C65.6629168 17.07399381 62.84759136 17.06234772 60.03125 17.04882812 C58.07356575 17.05152254 56.1158828 17.05540454 54.15820312 17.0604248 C50.05585993 17.0663222 45.95386518 17.05774906 41.8515625 17.0390625 C36.59204372 17.01627288 31.33334136 17.02939466 26.07385254 17.05335236 C22.0315129 17.06780376 17.98936695 17.06320735 13.94702148 17.05284119 C12.00773014 17.05017208 10.06842123 17.0534501 8.12915039 17.0627594 C5.4189595 17.07291414 2.71009225 17.0574394 0 17.03515625 C-0.80219971 17.04325317 -1.60439941 17.0513501 -2.4309082 17.05969238 C-6.03137563 17.00482513 -8.0620547 16.82834759 -10.96484375 14.61022949 C-12.59435192 12.34280591 -13.0118805 11.2779302 -12.96875 8.51757812 C-12.98421875 7.52757812 -12.98421875 7.52757812 -13 6.51757812 C-11.24883612 -0.07503884 -5.81974348 -0.05874101 0 0 Z " fill="#000000" transform="translate(140.46875,239.482421875)"/>
<path d="M0 0 C0.69641602 -0.00700928 1.39283203 -0.01401855 2.11035156 -0.02124023 C4.40730932 -0.03881383 6.70303021 -0.02720107 9 -0.01367188 C10.59896073 -0.01636701 12.19791987 -0.0202496 13.796875 -0.02526855 C17.14599226 -0.03116269 20.49468243 -0.0226038 23.84375 -0.00390625 C28.13478591 0.01888377 32.42482111 0.00576017 36.71582031 -0.01819611 C40.01700366 -0.03265667 43.31795011 -0.02804703 46.61914062 -0.01768494 C48.20117308 -0.01501834 49.78322711 -0.0182851 51.36523438 -0.02760315 C53.57740163 -0.03777366 55.787953 -0.02226378 58 0 C59.8871875 0.00477356 59.8871875 0.00477356 61.8125 0.00964355 C65.55520109 0.60605054 66.73159929 1.54273163 69 4.51757812 C69.53125 6.51757812 69.53125 6.51757812 69.5 8.51757812 C69.51546875 9.50757813 69.51546875 9.50757813 69.53125 10.51757812 C68.74176632 13.48975197 67.39936627 14.61414098 65 16.51757812 C61.8125 17.0255127 61.8125 17.0255127 58 17.03515625 C57.30358398 17.04216553 56.60716797 17.0491748 55.88964844 17.05639648 C53.59269068 17.07397008 51.29696979 17.06235732 49 17.04882812 C47.40103927 17.05152326 45.80208013 17.05540585 44.203125 17.0604248 C40.85400774 17.06631894 37.50531757 17.05776005 34.15625 17.0390625 C29.86521409 17.01627248 25.57517889 17.02939608 21.28417969 17.05335236 C17.98299634 17.06781292 14.68204989 17.06320328 11.38085938 17.05284119 C9.79882692 17.05017459 8.21677289 17.05344135 6.63476562 17.0627594 C4.42259837 17.07292991 2.212047 17.05742003 0 17.03515625 C-1.258125 17.03197388 -2.51625 17.0287915 -3.8125 17.0255127 C-7.55520109 16.42910571 -8.73159929 15.49242462 -11 12.51757812 C-11.53125 10.51757812 -11.53125 10.51757812 -11.5 8.51757812 C-11.51546875 7.52757812 -11.51546875 7.52757812 -11.53125 6.51757812 C-9.93997703 0.52690342 -5.4948528 0.01389899 0 0 Z " fill="#000000" transform="translate(251,239.482421875)"/>
<path d="M0 0 C1.10794922 -0.01260864 2.21589844 -0.02521729 3.35742188 -0.03820801 C4.54916016 -0.03011108 5.74089844 -0.02201416 6.96875 -0.01367188 C8.19658203 -0.01749878 9.42441406 -0.02132568 10.68945312 -0.02526855 C13.28516459 -0.02799029 15.88090336 -0.02061099 18.4765625 -0.00390625 C22.45374599 0.01749738 26.42912282 -0.0037015 30.40625 -0.02929688 C32.92708733 -0.02665365 35.44792353 -0.02152878 37.96875 -0.01367188 C39.16048828 -0.0217688 40.35222656 -0.02986572 41.58007812 -0.03820801 C43.24200195 -0.01929504 43.24200195 -0.01929504 44.9375 0 C45.91138672 0.00318237 46.88527344 0.00636475 47.88867188 0.00964355 C51.19021681 0.65961178 52.38452655 1.93295409 54.46875 4.51757812 C55 6.51757812 55 6.51757812 54.96875 8.51757812 C54.98421875 9.50757813 54.98421875 9.50757813 55 10.51757812 C54.2245785 13.43681202 52.78007479 14.6111988 50.46875 16.51757812 C47.88867188 17.0255127 47.88867188 17.0255127 44.9375 17.03515625 C43.82955078 17.04776489 42.72160156 17.06037354 41.58007812 17.07336426 C40.38833984 17.06526733 39.19660156 17.05717041 37.96875 17.04882812 C36.12700195 17.05456848 36.12700195 17.05456848 34.24804688 17.0604248 C31.65233541 17.06314654 29.05659664 17.05576724 26.4609375 17.0390625 C22.48375401 17.01765887 18.50837718 17.03885775 14.53125 17.06445312 C12.01041267 17.0618099 9.48957647 17.05668503 6.96875 17.04882812 C5.77701172 17.05692505 4.58527344 17.06502197 3.35742188 17.07336426 C1.69549805 17.05445129 1.69549805 17.05445129 0 17.03515625 C-0.97388672 17.03197388 -1.94777344 17.0287915 -2.95117188 17.0255127 C-6.25271681 16.37554447 -7.44702655 15.10220216 -9.53125 12.51757812 C-10.0625 10.51757812 -10.0625 10.51757812 -10.03125 8.51757812 C-10.04671875 7.52757812 -10.04671875 7.52757812 -10.0625 6.51757812 C-8.67664018 1.3002235 -4.95665502 0.01619688 0 0 Z " fill="#000000" transform="translate(297.53125,399.482421875)"/>
<path d="M0 0 C0.87269531 -0.0038269 1.74539062 -0.00765381 2.64453125 -0.01159668 C4.48699092 -0.0143149 6.32948924 -0.00695994 8.171875 0.00976562 C10.99045934 0.03117752 13.80649485 0.00996199 16.625 -0.015625 C18.41667229 -0.01298171 20.20834299 -0.00785669 22 0 C22.84175781 -0.00809692 23.68351562 -0.01619385 24.55078125 -0.02453613 C30.38715618 0.06889601 30.38715618 0.06889601 33.52929688 2.43945312 C35.12144695 4.7039853 35.542797 5.7922417 35.5 8.53125 C35.5103125 9.19125 35.520625 9.85125 35.53125 10.53125 C34.72011424 13.58493756 33.53019712 14.62236769 31 16.53125 C28.00263779 17.13239553 25.04890723 17.09182764 22 17.0625 C21.12730469 17.0663269 20.25460938 17.07015381 19.35546875 17.07409668 C17.51300908 17.0768149 15.67051076 17.06945994 13.828125 17.05273438 C11.00954066 17.03132248 8.19350515 17.05253801 5.375 17.078125 C3.58332771 17.07548171 1.79165701 17.07035669 0 17.0625 C-0.84175781 17.07059692 -1.68351563 17.07869385 -2.55078125 17.08703613 C-8.38715618 16.99360399 -8.38715618 16.99360399 -11.52929688 14.62304688 C-13.12144695 12.3585147 -13.542797 11.2702583 -13.5 8.53125 C-13.51546875 7.54125 -13.51546875 7.54125 -13.53125 6.53125 C-11.69061453 -0.39820116 -5.94975317 -0.05723107 0 0 Z " fill="#000000" transform="translate(141,207.46875)"/>
<path d="M0 0 C0.87269531 -0.0038269 1.74539063 -0.00765381 2.64453125 -0.01159668 C4.48699092 -0.0143149 6.32948924 -0.00695994 8.171875 0.00976562 C10.99045934 0.03117752 13.80649485 0.00996199 16.625 -0.015625 C18.41667229 -0.01298171 20.20834299 -0.00785669 22 0 C22.84175781 -0.00809692 23.68351562 -0.01619385 24.55078125 -0.02453613 C30.38715618 0.06889601 30.38715618 0.06889601 33.52929688 2.43945312 C35.12144695 4.7039853 35.542797 5.7922417 35.5 8.53125 C35.5103125 9.19125 35.520625 9.85125 35.53125 10.53125 C34.72011424 13.58493756 33.53019712 14.62236769 31 16.53125 C28.00263779 17.13239553 25.04890723 17.09182764 22 17.0625 C21.12730469 17.0663269 20.25460937 17.07015381 19.35546875 17.07409668 C17.51300908 17.0768149 15.67051076 17.06945994 13.828125 17.05273438 C11.00954066 17.03132248 8.19350515 17.05253801 5.375 17.078125 C3.58332771 17.07548171 1.79165701 17.07035669 0 17.0625 C-0.84175781 17.07059692 -1.68351562 17.07869385 -2.55078125 17.08703613 C-8.38715618 16.99360399 -8.38715618 16.99360399 -11.52929688 14.62304688 C-13.12144695 12.3585147 -13.542797 11.2702583 -13.5 8.53125 C-13.51546875 7.54125 -13.51546875 7.54125 -13.53125 6.53125 C-11.69061453 -0.39820116 -5.94975317 -0.05723107 0 0 Z " fill="#000000" transform="translate(285,175.46875)"/>
<path d="M0 0 C2.5 1.5 2.5 1.5 4 4 C4.791013 8.02098277 4.62153384 10.96411027 2.5 14.5 C-1.03588973 16.62153384 -3.97901723 16.791013 -8 16 C-10.5 14.5 -10.5 14.5 -12 12 C-12.791013 7.97901723 -12.62153384 5.03588973 -10.5 1.5 C-6.96411027 -0.62153384 -4.02098277 -0.791013 0 0 Z " fill="#000000" transform="translate(228,64)"/>
</svg>
