<?xml version="1.0" encoding="UTF-8"?>
<svg version="1.1" xmlns="http://www.w3.org/2000/svg" width="512" height="512">
<path d="M0 0 C0.96988861 0.00182281 1.93977722 0.00364563 2.9390564 0.00552368 C17.29056055 0.05091691 31.25442918 0.5562653 45.375 3.3125 C46.72053955 3.55395752 46.72053955 3.55395752 48.09326172 3.80029297 C107.90338904 14.62287989 165.41745829 48.68064457 202.375 97.3125 C202.79168945 97.85277832 203.20837891 98.39305664 203.63769531 98.94970703 C211.3209873 108.9447116 218.06342968 119.40459036 224.375 130.3125 C224.76929199 130.98974121 225.16358398 131.66698242 225.56982422 132.36474609 C238.75211173 155.2833756 247.35760918 180.85822563 252.6875 206.6875 C252.83493652 207.39817627 252.98237305 208.10885254 253.13427734 208.84106445 C256.11963787 224.48358366 256.7498098 240.11919606 256.6875 256 C256.68476578 257.45108658 256.68476578 257.45108658 256.68197632 258.93148804 C256.63654826 273.26440977 256.12766072 287.21023917 253.375 301.3125 C253.21402832 302.20952637 253.05305664 303.10655273 252.88720703 304.03076172 C242.06462011 363.84088904 208.00685543 421.35495829 159.375 458.3125 C158.83472168 458.72918945 158.29444336 459.14587891 157.73779297 459.57519531 C147.7427884 467.2584873 137.28290964 474.00092968 126.375 480.3125 C125.69775879 480.70679199 125.02051758 481.10108398 124.32275391 481.50732422 C98.40376191 496.41535371 68.91148362 505.97401819 39.375 510.3125 C38.17037109 510.48982666 36.96574219 510.66715332 35.72460938 510.84985352 C24.06732646 512.448825 12.50313902 512.6709053 0.75 512.625 C-0.70483292 512.62226578 -0.70483292 512.62226578 -2.1890564 512.61947632 C-16.54056055 512.57408309 -30.50442918 512.0687347 -44.625 509.3125 C-45.52202637 509.15152832 -46.41905273 508.99055664 -47.34326172 508.82470703 C-107.15338904 498.00212011 -164.66745829 463.94435543 -201.625 415.3125 C-202.04168945 414.77222168 -202.45837891 414.23194336 -202.88769531 413.67529297 C-210.5709873 403.6802884 -217.31342968 393.22040964 -223.625 382.3125 C-224.01929199 381.63525879 -224.41358398 380.95801758 -224.81982422 380.26025391 C-238.00211173 357.3416244 -246.60760918 331.76677437 -251.9375 305.9375 C-252.08493652 305.22682373 -252.23237305 304.51614746 -252.38427734 303.78393555 C-255.36963787 288.14141634 -255.9998098 272.50580394 -255.9375 256.625 C-255.93567719 255.65760895 -255.93385437 254.6902179 -255.93197632 253.69351196 C-255.88654826 239.36059023 -255.37766072 225.41476083 -252.625 211.3125 C-252.38354248 209.96696045 -252.38354248 209.96696045 -252.13720703 208.59423828 C-241.31462011 148.78411096 -207.25685543 91.27004171 -158.625 54.3125 C-158.08472168 53.89581055 -157.54444336 53.47912109 -156.98779297 53.04980469 C-146.9927884 45.3665127 -136.53290964 38.62407032 -125.625 32.3125 C-124.94775879 31.91820801 -124.27051758 31.52391602 -123.57275391 31.11767578 C-97.65376191 16.20964629 -68.16148362 6.65098181 -38.625 2.3125 C-37.42037109 2.13517334 -36.21574219 1.95784668 -34.97460938 1.77514648 C-23.31732646 0.176175 -11.75313902 -0.0459053 0 0 Z M-56.625 99.3125 C-57.64013672 100.18455078 -57.64013672 100.18455078 -58.67578125 101.07421875 C-73.70248025 114.95659999 -82.95390085 135.84759007 -83.90625 156.14453125 C-84.57920991 180.76501559 -76.60724245 203.21264609 -59.625 221.3125 C-42.29256008 237.81448299 -20.71424215 245.89952703 3.05419922 245.72949219 C21.7960515 245.22182672 38.40762988 238.54587212 53.375 227.3125 C53.93832031 226.91289062 54.50164062 226.51328125 55.08203125 226.1015625 C70.41574999 214.25114755 80.65224821 193.78435309 83.953125 175.02734375 C86.75285685 150.37414936 81.23754883 127.48373333 65.671875 107.89501953 C51.37098534 90.44427278 30.65002104 80.03072611 8.375 77.3125 C-15.87290268 75.9653943 -38.28714676 83.24768049 -56.625 99.3125 Z M-114.25244141 317.66503906 C-127.6130146 333.70152926 -135.78802063 355.17432725 -134.44140625 376.17578125 C-132.67053111 389.08308766 -125.5962573 397.44045476 -115.625 405.3125 C-111.39987788 408.48536808 -107.07039651 411.45903603 -102.625 414.3125 C-102.04234375 414.68761719 -101.4596875 415.06273437 -100.859375 415.44921875 C-58.78681889 442.24760775 -7.93758886 451.4561865 40.80273438 440.78076172 C69.81249814 434.0292926 112.5250937 418.72720605 129.375 392.3125 C136.68559792 380.31030703 135.81401991 365.93612479 132.875 352.625 C127.54931517 331.26001564 113.41635278 311.99708179 94.77661133 300.38769531 C74.7591936 288.47444033 55.84506084 287.8523564 33.1875 287.9140625 C30.55444254 287.91203743 27.92138563 287.90912239 25.28833008 287.90536499 C19.79145713 287.89993943 14.29470593 287.90701409 8.79785156 287.92138672 C2.48400391 287.93770711 -3.82955289 287.93241631 -10.14339352 287.9159075 C-16.27032694 287.9005416 -22.3971336 287.90230948 -28.52407837 287.9110527 C-31.10739178 287.91303952 -33.69071274 287.91064947 -36.27401733 287.90361404 C-67.24127321 287.83776457 -92.82643759 293.60958068 -114.25244141 317.66503906 Z " fill="#000000" transform="translate(255.625,-0.3125)"/>
</svg>
