<?xml version="1.0" encoding="UTF-8"?>
<svg version="1.1" xmlns="http://www.w3.org/2000/svg" width="512" height="512">
<path d="M0 0 C0.4846875 0.42539063 0.969375 0.85078125 1.46875 1.2890625 C0.29119141 1.94261719 0.29119141 1.94261719 -0.91015625 2.609375 C-11.92358425 8.85256977 -17.83257728 13.88723407 -24.16601562 24.92236328 C-25.83513222 27.81585689 -27.53577868 30.69012215 -29.234375 33.56640625 C-30.24605427 35.29195232 -31.2577143 37.01751075 -32.26733398 38.7442627 C-33.25925658 40.43898621 -34.25555642 42.13114531 -35.25195312 43.82324219 C-42.91221731 57.04056462 -48.16546155 69.35418212 -44.40625 84.7890625 C-40.73712257 96.7908812 -34.63647907 105.10947585 -24.09375 111.7265625 C-19.89860791 114.62890271 -19.89860791 114.62890271 -18.47265625 117.19140625 C-18.05181492 119.81517008 -18.27107635 120.92678577 -19.53125 123.2890625 C-22.32727922 125.81479412 -25.31353675 127.94872975 -28.4140625 130.07421875 C-37.4046776 136.46228738 -43.28623274 146.09217068 -45.24609375 156.95703125 C-47.03442617 171.58216079 -42.07000206 183.3104851 -34.78125 195.7890625 C-33.84635742 197.41980713 -33.84635742 197.41980713 -32.89257812 199.08349609 C-31.12071075 202.16121682 -29.33016897 205.22709526 -27.53125 208.2890625 C-26.87092773 209.42263184 -26.87092773 209.42263184 -26.19726562 210.57910156 C-18.9859854 222.91418616 -11.76580567 232.26204524 2.21875 237.2265625 C14.76425374 240.4076728 26.37554554 237.99919785 38.1015625 233.21484375 C38.88273437 232.90933594 39.66390625 232.60382813 40.46875 232.2890625 C41.12875 232.0003125 41.78875 231.7115625 42.46875 231.4140625 C44.46875 231.2890625 44.46875 231.2890625 46.98046875 232.578125 C50.77425626 236.711388 50.739224 241.09808817 51.28125 246.5390625 C51.40177734 247.5703125 51.52230469 248.6015625 51.64648438 249.6640625 C51.94047893 252.20417542 52.21375101 254.74478862 52.46875 257.2890625 C14.14895438 257.38063382 -24.17082475 257.45110925 -62.49070766 257.49332382 C-67.0155338 257.4983266 -71.54035973 257.50350389 -76.06518555 257.50878906 C-76.96599041 257.5098383 -77.86679528 257.51088755 -78.79489727 257.51196858 C-93.37733438 257.52937005 -107.95970837 257.56090632 -122.54210805 257.59767368 C-137.50690179 257.63509029 -152.47166249 257.65729988 -167.43650109 257.66541648 C-176.66935349 257.67090276 -185.90202746 257.68822574 -195.13482494 257.72072837 C-201.4675746 257.74188514 -207.80023212 257.74825991 -214.13301455 257.74306801 C-217.78580753 257.74050803 -221.43828886 257.74441027 -225.09102631 257.7658844 C-229.05542263 257.78901996 -233.01941506 257.78099931 -236.98387146 257.77008057 C-238.13272227 257.78173193 -239.28157308 257.7933833 -240.46523756 257.80538774 C-248.65436366 257.74442925 -254.92973977 256.3176052 -261.28125 250.9765625 C-266.96247001 244.19066082 -269.67481706 239.7577242 -269.70825195 230.71020508 C-269.71482315 229.93877167 -269.72139435 229.16733826 -269.72816467 228.37252808 C-269.7479218 225.80954883 -269.75958098 223.24662899 -269.76953125 220.68359375 C-269.77564454 219.35909997 -269.77564454 219.35909997 -269.78188133 218.00784874 C-269.80277682 213.31179413 -269.81704955 208.61576881 -269.82641602 203.91967773 C-269.83518797 200.07836611 -269.85584431 196.23742668 -269.88793945 192.39624023 C-270.37698097 132.5801512 -255.48931396 80.71624197 -212.71875 37.1640625 C-202.17744125 26.69298346 -190.05100622 18.2132598 -177.53125 10.2890625 C-176.48195313 9.61230469 -175.43265625 8.93554688 -174.3515625 8.23828125 C-128.95821464 -19.4527708 -47.03618565 -31.79297734 0 0 Z " fill="#000000" transform="translate(269.53125,254.7109375)"/>
<path d="M0 0 C1.02049438 -0.00524185 2.04098877 -0.0104837 3.09240723 -0.0158844 C5.24405001 -0.02229079 7.39572788 -0.02098557 9.54736328 -0.01245117 C12.83299228 -0.00393414 16.11688597 -0.03273452 19.40234375 -0.06445312 C21.49739531 -0.06606517 23.59244995 -0.06548755 25.6875 -0.0625 C26.66577759 -0.07373398 27.64405518 -0.08496796 28.65197754 -0.09654236 C36.00088134 -0.02170193 39.35748048 1.44732423 44.59375 6.68359375 C48.21068706 12.36735198 48.74136195 19.40786588 49.46875 25.99609375 C49.55511719 26.71216797 49.64148438 27.42824219 49.73046875 28.16601562 C50.24100005 32.61898304 50.42619579 36.95207618 50.34375 41.43359375 C51.58125 41.78421875 52.81875 42.13484375 54.09375 42.49609375 C61.6006641 44.98653919 68.44365858 49.24573618 74.78125 53.93359375 C77.19244534 55.69069677 77.19244534 55.69069677 79.69238281 55.15649414 C82.37556683 54.42491883 84.78689836 53.49442327 87.328125 52.3671875 C88.73191406 51.76293945 88.73191406 51.76293945 90.1640625 51.14648438 C92.10550236 50.30131089 94.0430924 49.44723424 95.9765625 48.58398438 C103.08488639 45.55077493 109.04021169 43.99908098 116.53125 46.49609375 C124.65802664 52.09453988 128.89754094 61.22078726 133.59375 69.62109375 C134.31963054 70.90468277 135.04618828 72.18788907 135.7734375 73.47070312 C143.64346549 87.39123089 143.64346549 87.39123089 143.71875 93.30859375 C143.74710938 94.31664062 143.77546875 95.3246875 143.8046875 96.36328125 C142.62671899 104.20974944 136.28404008 108.17536547 130.34375 112.62109375 C129.13332031 113.54438477 129.13332031 113.54438477 127.8984375 114.48632812 C121.58670651 119.29303415 121.58670651 119.29303415 119.14599609 120.70507812 C115.39672402 124.30096627 116.15950249 130.58480096 116.01202393 135.53939819 C115.99774353 136.26760773 115.98346313 136.99581726 115.96875 137.74609375 C115.94322052 138.8399791 115.94322052 138.8399791 115.91717529 139.95596313 C115.84701323 147.26201791 115.88066958 153.88055261 121.15625 159.48828125 C124.8734717 162.58725805 128.89099257 164.99582203 133.16894531 167.23974609 C137.53454465 169.63621901 141.69346489 172.54951296 143.34375 177.43359375 C145.95616379 187.81311698 140.45448544 195.8566469 135.36328125 204.4296875 C134.85361816 205.27128418 134.34395508 206.11288086 133.81884766 206.97998047 C132.45587952 209.24708238 131.14646404 211.53512806 129.85546875 213.84375 C125.79710126 221.01737962 122.00372803 227.60360474 114.34375 231.43359375 C105.93125037 232.62274012 99.5465773 229.85585445 92.03125 226.37109375 C89.93645929 225.40986437 87.83634896 224.46012239 85.73046875 223.5234375 C84.81483154 223.09925537 83.89919434 222.67507324 82.95581055 222.23803711 C79.93961639 221.30913163 78.33000902 221.50145568 75.34375 222.43359375 C73.03173854 223.83972665 73.03173854 223.83972665 70.78125 225.62109375 C57.27892562 235.43359375 57.27892562 235.43359375 50.34375 235.43359375 C50.27027344 236.79677734 50.27027344 236.79677734 50.1953125 238.1875 C49.79162847 244.97356773 49.2886651 251.73968297 48.53125 258.49609375 C48.40105469 259.68332031 48.27085937 260.87054688 48.13671875 262.09375 C46.69780645 268.15419342 43.3332906 271.88839385 38.34375 275.43359375 C35.9788031 276.6160672 34.47668144 276.59148993 31.83740234 276.64233398 C30.90237885 276.6616246 29.96735535 276.68091522 29.0039978 276.70079041 C24.71087486 276.75859941 20.41792057 276.80784481 16.12451172 276.83862305 C13.86459033 276.86016925 11.60475162 276.89423151 9.34521484 276.94116211 C6.08132775 277.00833307 2.81916938 277.03565458 -0.4453125 277.0546875 C-1.44768951 277.08251816 -2.45006653 277.11034882 -3.4828186 277.13902283 C-9.6715393 277.12102305 -13.28621123 276.05159177 -18.10812378 272.12442017 C-23.16967883 266.59631085 -22.83591154 259.32774035 -23.02050781 252.25878906 C-23.1990665 242.6145698 -23.1990665 242.6145698 -27.53710938 234.38818359 C-32.10336754 231.13866611 -37.09798839 229.20788114 -42.36523438 227.38476562 C-44.73540336 226.40073127 -46.44602845 225.22195536 -48.453125 223.63671875 C-51.34124202 221.14381724 -51.34124202 221.14381724 -54.04711914 221.66674805 C-56.68191479 222.44113685 -59.09878479 223.37957903 -61.60546875 224.5 C-62.53681641 224.90283203 -63.46816406 225.30566406 -64.42773438 225.72070312 C-66.35681229 226.56443245 -68.28142086 227.41846224 -70.20117188 228.28320312 C-76.9190406 231.15965138 -83.37934801 233.00341772 -90.61108398 230.85205078 C-99.64357909 226.54524705 -104.1526228 214.29578439 -108.88989258 205.95654297 C-109.98003791 204.03873582 -111.07659612 202.12469726 -112.17382812 200.2109375 C-112.87277517 198.98589344 -113.57135659 197.76064068 -114.26953125 196.53515625 C-114.89641846 195.43510254 -115.52330566 194.33504883 -116.16918945 193.20166016 C-118.56794993 188.73652368 -119.06993867 185.48059557 -118.65625 180.43359375 C-116.58841997 173.72960978 -112.26209455 169.436582 -106.65625 165.43359375 C-105.37759696 164.8335973 -104.0917558 164.24878565 -102.80078125 163.67578125 C-98.09576391 161.34849684 -94.39002975 159.02708762 -91.65625 154.43359375 C-88.59216568 144.23769083 -88.32032418 132.58355381 -91.65625 122.43359375 C-96.37389676 115.65373537 -103.18613806 111.82900895 -110.27880859 107.89404297 C-114.34591607 105.39564115 -116.96157876 102.56436418 -118.46875 97.94140625 C-118.530625 97.15507812 -118.5925 96.36875 -118.65625 95.55859375 C-118.73875 94.77742188 -118.82125 93.99625 -118.90625 93.19140625 C-118.14855174 84.83304727 -113.07803506 77.60838243 -108.90625 70.55859375 C-108.31070312 69.53378906 -107.71515625 68.50898438 -107.1015625 67.453125 C-95.23545676 47.23965051 -95.23545676 47.23965051 -88.65625 45.43359375 C-80.18570702 44.35235444 -73.8749249 46.99023766 -66.28125 50.49609375 C-64.1738774 51.45549615 -62.06205238 52.40519552 -59.9453125 53.34375 C-59.02443848 53.76793213 -58.10356445 54.19211426 -57.15478516 54.62915039 C-54.40249572 55.515294 -53.30541552 55.48582911 -50.65625 54.43359375 C-46.95572124 52.2800916 -43.38152483 49.93613201 -39.79125977 47.60424805 C-37.65625 46.43359375 -37.65625 46.43359375 -34.62866211 45.35083008 C-31.16439348 44.01813946 -28.53249314 42.79274419 -25.65625 40.43359375 C-23.73246448 35.57108577 -23.46566792 30.67151796 -23.21875 25.49609375 C-22.11545526 8.83137335 -22.11545526 8.83137335 -16.65625 3.43359375 C-11.22844682 -0.12610659 -6.27309465 -0.01882445 0 0 Z M-19.1171875 116.28125 C-25.51992411 125.2353309 -26.46772852 134.67864606 -25.65625 145.43359375 C-23.20174358 156.49991127 -16.66440823 164.78712494 -7.65625 171.43359375 C2.17608268 177.33299336 13.66234166 178.22504848 24.77734375 175.6328125 C35.46086158 171.59002487 43.19125435 164.33144512 48.2265625 154.1328125 C52.53481467 143.72371372 52.20791421 133.92831245 48.34375 123.43359375 C43.47751683 112.87449165 35.70404511 105.39879459 24.7890625 101.28125 C7.28290293 96.97417899 -7.63236065 102.62007468 -19.1171875 116.28125 Z " fill="#000000" transform="translate(368.65625,235.56640625)"/>
<path d="M0 0 C22.15472132 17.3459446 39.49662736 40.79241719 43.74902344 69.23779297 C45.55262414 85.84946114 45.51865521 103.21262166 40.0625 119.125 C39.84287598 119.76920898 39.62325195 120.41341797 39.39697266 121.07714844 C34.99911236 133.6824805 28.65857131 144.92168006 20.0625 155.125 C19.40765625 155.92550781 18.7528125 156.72601563 18.078125 157.55078125 C4.81060708 173.11832508 -13.30208058 183.79837026 -32.9375 189.125 C-34.04609375 189.44339844 -35.1546875 189.76179687 -36.296875 190.08984375 C-63.1237273 196.67516835 -91.50804255 191.59458059 -115.33984375 178.21484375 C-118.3239467 176.30517472 -121.1338604 174.2905699 -123.9375 172.125 C-124.47068848 171.71378906 -125.00387695 171.30257812 -125.55322266 170.87890625 C-147.06178572 154.07592566 -160.63153592 130.83812614 -165.4921875 104.0703125 C-167.16360552 89.26213529 -167.08402635 73.49629413 -162.9375 59.125 C-162.58558594 57.87847656 -162.23367187 56.63195312 -161.87109375 55.34765625 C-154.0655496 29.27740314 -135.52388675 6.95236753 -111.75 -6.125 C-76.74585391 -24.53761203 -32.60069573 -22.71321719 0 0 Z " fill="#000000" transform="translate(251.9375,17.875)"/>
</svg>
