<?xml version="1.0" encoding="UTF-8"?>
<svg version="1.1" xmlns="http://www.w3.org/2000/svg" width="512" height="512">
<path d="M0 0 C1.5399938 0.82101978 3.07763676 1.64645965 4.61328125 2.47558594 C6.31595012 3.38334305 8.01908828 4.2902204 9.72265625 5.19628906 C10.58826172 5.65753174 11.45386719 6.11877441 12.34570312 6.59399414 C16.33320112 8.70508908 20.34625787 10.76511834 24.36328125 12.81933594 C25.52789383 13.41550972 25.52789383 13.41550972 26.71603394 14.02372742 C28.30413589 14.8362796 29.8924247 15.64846671 31.480896 16.46029663 C35.73732727 18.63590395 39.99175378 20.81542387 44.24609375 22.99511719 C45.50548264 23.64031059 45.50548264 23.64031059 46.79031372 24.29853821 C54.87108431 28.4405409 62.93303022 32.61821237 70.99072266 36.80493164 C79.75079189 41.35519381 88.52395823 45.87963281 97.30078125 50.39746094 C107.68129248 55.74102724 118.05742189 61.09285224 128.42578125 66.45996094 C139.98242596 72.44195264 151.54790101 78.40663971 163.11914062 84.36035156 C177.065635 91.53922476 190.99334947 98.7535307 204.92578125 105.95996094 C204.92578125 202.64996094 204.92578125 299.33996094 204.92578125 398.95996094 C212.51578125 398.95996094 220.10578125 398.95996094 227.92578125 398.95996094 C230.92578125 401.95996094 230.92578125 401.95996094 231.36328125 404.95996094 C230.92578125 407.95996094 230.92578125 407.95996094 229.38921356 409.62386572 C225.98476366 411.47034196 222.84887982 411.37304946 219.07336426 411.33748436 C218.27303489 411.34184468 217.47270552 411.346205 216.64812374 411.35069746 C213.94949091 411.36170041 211.25136402 411.35120835 208.55273438 411.34091187 C206.60522448 411.34436644 204.65771654 411.34912964 202.71021271 411.3550936 C197.34537687 411.3676608 191.98070035 411.36140727 186.6158638 411.35213494 C180.83528798 411.34536815 175.05474023 411.35581388 169.27416992 411.36407471 C157.9448109 411.37743961 146.61551137 411.37452204 135.28614998 411.36583678 C126.08146805 411.35907148 116.87680284 411.35813852 107.67211914 411.36140823 C106.36384549 411.36186793 105.05557183 411.36232763 103.70765352 411.36280126 C101.05021858 411.3637604 98.39278364 411.36473304 95.7353487 411.36571904 C71.50706391 411.37433839 47.27880925 411.36539968 23.0505296 411.34969124 C0.9229919 411.33545394 -21.20449401 411.3367278 -43.33203125 411.35107422 C-68.18035946 411.36713073 -93.0286586 411.37345696 -117.87699127 411.36423743 C-120.52484639 411.36328174 -123.17270151 411.36233863 -125.82055664 411.36140823 C-127.12347389 411.36094541 -128.42639113 411.36048258 -129.76879072 411.36000573 C-138.96622887 411.35741157 -148.16364868 411.36179601 -157.36108398 411.36884689 C-168.56421527 411.37724629 -179.76728346 411.37501468 -190.97040749 411.35900466 C-196.6903188 411.3511009 -202.41012479 411.3480661 -208.1300354 411.35795212 C-213.36068785 411.36685604 -218.59113682 411.36203754 -223.82177067 411.34601946 C-225.71941965 411.34265334 -227.61708563 411.34440649 -229.51472378 411.35164683 C-232.08399803 411.36070185 -234.65256513 411.35148197 -237.22180176 411.33748436 C-238.34020116 411.34801961 -238.34020116 411.34801961 -239.4811945 411.35876769 C-242.59624623 411.32459019 -244.77627465 411.1215573 -247.53765106 409.62386572 C-249.07421875 407.95996094 -249.07421875 407.95996094 -249.51171875 404.95996094 C-249.07421875 401.95996094 -249.07421875 401.95996094 -246.07421875 398.95996094 C-238.48421875 398.95996094 -230.89421875 398.95996094 -223.07421875 398.95996094 C-223.07421875 302.26996094 -223.07421875 205.57996094 -223.07421875 105.95996094 C-213.83421875 101.33996094 -204.59421875 96.71996094 -195.07421875 91.95996094 C-187.78158424 88.14504904 -187.78158424 88.14504904 -180.50390625 84.30175781 C-173.54781081 80.61182194 -166.52939932 77.04242876 -159.51800537 73.45907593 C-155.26713206 71.2862882 -151.01829984 69.10951702 -146.76953125 66.93261719 C-145.93076447 66.50290115 -145.09199768 66.07318512 -144.22781372 65.63044739 C-133.90709887 60.34033353 -123.61537024 54.99482396 -113.32421875 49.64746094 C-107.53549465 46.64177727 -101.74261085 43.64413396 -95.94921875 40.64746094 C-95.35308777 40.33908295 -94.75695679 40.03070496 -94.14276123 39.71298218 C-84.98842802 34.97804068 -75.82803809 30.25491677 -66.6651001 25.53665161 C-61.15248662 22.69795418 -55.64038378 19.85826532 -50.12841797 17.01831055 C-48.75377575 16.31007736 -47.37910102 15.60190726 -46.00439453 14.89379883 C-41.9870011 12.82436193 -37.97036845 10.75346181 -33.95483398 8.68041992 C-32.72283236 8.04466678 -31.49058229 7.40939483 -30.25805664 6.7746582 C-28.55025501 5.8950539 -26.84347042 5.01347582 -25.13671875 4.13183594 C-24.09515625 3.59751953 -23.05359375 3.06320313 -21.98046875 2.51269531 C-18.60585519 0.70972637 -15.3683794 -1.27702985 -12.171875 -3.37890625 C-7.81191636 -4.75306454 -3.83757489 -1.96773497 0 0 Z M-168.07421875 110.95996094 C-168.07421875 205.99996094 -168.07421875 301.03996094 -168.07421875 398.95996094 C-153.22421875 398.95996094 -138.37421875 398.95996094 -123.07421875 398.95996094 C-123.0484375 394.31417969 -123.02265625 389.66839844 -122.99609375 384.88183594 C-122.97092558 381.93777037 -122.94459329 378.99380758 -122.9140625 376.04980469 C-122.86571873 371.37743748 -122.82167788 366.70530815 -122.80322266 362.03271484 C-122.78807267 358.26527684 -122.75365802 354.49846131 -122.70590973 350.73130035 C-122.69107855 349.29446067 -122.68317673 347.85753213 -122.6823349 346.42061615 C-122.67996911 344.40725846 -122.6506281 342.39398725 -122.62011719 340.38085938 C-122.60679352 338.66210602 -122.60679352 338.66210602 -122.59320068 336.90863037 C-121.96214889 333.32322014 -120.94574149 332.13576608 -118.07421875 329.95996094 C-115.04980469 329.4140625 -115.04980469 329.4140625 -111.55859375 329.35058594 C-109.68300781 329.30224609 -109.68300781 329.30224609 -107.76953125 329.25292969 C-106.46757812 329.23875 -105.165625 329.22457031 -103.82421875 329.20996094 C-102.50679688 329.1803125 -101.189375 329.15066406 -99.83203125 329.12011719 C-96.57936532 329.04940706 -93.32741682 328.99671308 -90.07421875 328.95996094 C-90.10902344 330.05695313 -90.14382812 331.15394531 -90.1796875 332.28417969 C-90.2078374 333.73859139 -90.23513627 335.19301974 -90.26171875 336.64746094 C-90.28685547 337.36869141 -90.31199219 338.08992187 -90.33789062 338.83300781 C-90.40039947 343.39615381 -90.00619632 346.38878447 -87.07421875 349.95996094 C-84.5313125 350.54346598 -84.5313125 350.54346598 -82.07421875 349.95996094 C-79.89431748 348.19442594 -79.89431748 348.19442594 -79.84716797 345.98876953 C-79.8576416 345.20324707 -79.86811523 344.41772461 -79.87890625 343.60839844 C-79.88535156 342.75761719 -79.89179688 341.90683594 -79.8984375 341.03027344 C-79.91519531 340.14082031 -79.93195313 339.25136719 -79.94921875 338.33496094 C-79.95824219 337.43777344 -79.96726562 336.54058594 -79.9765625 335.61621094 C-80.00016905 333.39719508 -80.03309565 331.17871016 -80.07421875 328.95996094 C-75.99871934 329.05358059 -71.92375539 329.15969254 -67.84887695 329.27734375 C-66.46289968 329.31560444 -65.0768241 329.3504625 -63.69067383 329.38183594 C-61.69720235 329.42754793 -59.70404961 329.48655019 -57.7109375 329.54589844 C-56.51170654 329.57731934 -55.31247559 329.60874023 -54.0769043 329.64111328 C-51.07421875 329.95996094 -51.07421875 329.95996094 -48.07421875 331.95996094 C-46.98129075 335.23874494 -46.91638003 337.72280505 -46.86889648 341.17553711 C-46.83897865 343.09718941 -46.83897865 343.09718941 -46.80845642 345.05766296 C-46.79147335 346.45608397 -46.7745945 347.85450625 -46.7578125 349.25292969 C-46.73723709 350.68354384 -46.71624046 352.11415199 -46.69483948 353.54475403 C-46.63967942 357.307761 -46.59024346 361.07082228 -46.54199219 364.83392334 C-46.49173282 368.67481309 -46.43606992 372.5156241 -46.38085938 376.35644531 C-46.27335202 383.89088381 -46.17189064 391.42538784 -46.07421875 398.95996094 C-42.77421875 398.95996094 -39.47421875 398.95996094 -36.07421875 398.95996094 C-36.06835251 398.13976974 -36.06248627 397.31957855 -36.05644226 396.47453308 C-35.99856584 388.74928523 -35.92651879 381.02436177 -35.83850384 373.29940319 C-35.79375422 369.32779654 -35.75450854 365.35629356 -35.7277832 361.38452148 C-35.70179556 357.55233473 -35.66142622 353.72054594 -35.61103249 349.88860512 C-35.59433286 348.42581439 -35.58283787 346.96295478 -35.57660484 345.50008202 C-35.56699681 343.45267277 -35.53898045 341.4062887 -35.5065918 339.35913086 C-35.48993721 337.61039925 -35.48993721 337.61039925 -35.47294617 335.82633972 C-35.07421875 332.95996094 -35.07421875 332.95996094 -33.73486328 331.08703613 C-31.08170966 329.28634755 -28.60182351 329.51733222 -25.4375 329.44824219 C-24.13876953 329.41279297 -22.84003906 329.37734375 -21.50195312 329.34082031 C-20.13021358 329.31772043 -18.75846865 329.29493804 -17.38671875 329.27246094 C-16.00322268 329.23928551 -14.61975746 329.20479563 -13.23632812 329.16894531 C-9.84903992 329.08632853 -6.46201518 329.01722036 -3.07421875 328.95996094 C-3.10902344 330.22453125 -3.14382813 331.48910156 -3.1796875 332.79199219 C-3.20782552 334.45213517 -3.23512566 336.11229249 -3.26171875 337.77246094 C-3.28685547 338.60583984 -3.31199219 339.43921875 -3.33789062 340.29785156 C-3.34755859 341.10029297 -3.35722656 341.90273438 -3.3671875 342.72949219 C-3.39075317 343.83707886 -3.39075317 343.83707886 -3.41479492 344.96704102 C-2.97446503 347.54368107 -2.16786758 348.43201486 -0.07421875 349.95996094 C3.04571731 349.88453753 3.04571731 349.88453753 5.92578125 348.95996094 C7.07404975 346.66342394 7.041393 345.37682927 7.0234375 342.82714844 C7.02021484 342.02148438 7.01699219 341.21582031 7.01367188 340.38574219 C7.00529297 339.54398438 6.99691406 338.70222656 6.98828125 337.83496094 C6.98151367 336.56072266 6.98151367 336.56072266 6.97460938 335.26074219 C6.96280999 333.16045185 6.94487431 331.06019763 6.92578125 328.95996094 C11.00145638 329.02884666 15.07622926 329.11681493 19.15112305 329.22241211 C20.53707502 329.25564642 21.92316186 329.28368319 23.30932617 329.30639648 C25.30284968 329.33996711 27.29599866 329.39384094 29.2890625 329.44824219 C30.48829346 329.47442627 31.68752441 329.50061035 32.9230957 329.52758789 C35.92578125 329.95996094 35.92578125 329.95996094 37.58642578 331.08703613 C39.54980005 333.8325749 39.32622089 336.00612341 39.3581543 339.35913086 C39.37344177 340.32539146 39.37344177 340.32539146 39.38903809 341.31117249 C39.41920164 343.43767963 39.42843856 345.5637366 39.4375 347.69042969 C39.45434431 349.16589357 39.47249422 350.64134307 39.49189758 352.11677551 C39.53943118 355.99815378 39.56921851 359.87947378 39.59533691 363.76104736 C39.62512569 367.72265125 39.67166173 371.68405431 39.71679688 375.64550781 C39.80286808 383.41689262 39.87019606 391.18829196 39.92578125 398.95996094 C43.22578125 398.95996094 46.52578125 398.95996094 49.92578125 398.95996094 C49.92942688 398.15451843 49.93307251 397.34907593 49.93682861 396.51922607 C49.97470373 388.92667064 50.03155013 381.33460615 50.10968399 373.74236679 C50.14918472 369.83913243 50.18136015 365.93612453 50.19677734 362.03271484 C50.21192733 358.26527684 50.24634198 354.49846131 50.29409027 350.73130035 C50.30892145 349.29446067 50.31682327 347.85753213 50.3176651 346.42061615 C50.32003089 344.40725846 50.3493719 342.39398725 50.37988281 340.38085938 C50.38876526 339.2350238 50.39764771 338.08918823 50.40679932 336.90863037 C51.03785111 333.32322014 52.05425851 332.13576608 54.92578125 329.95996094 C57.95019531 329.4140625 57.95019531 329.4140625 61.44140625 329.35058594 C63.31699219 329.30224609 63.31699219 329.30224609 65.23046875 329.25292969 C66.53242188 329.23875 67.834375 329.22457031 69.17578125 329.20996094 C70.49320313 329.1803125 71.810625 329.15066406 73.16796875 329.12011719 C76.42063468 329.04940706 79.67258318 328.99671308 82.92578125 328.95996094 C82.89097656 330.05695313 82.85617187 331.15394531 82.8203125 332.28417969 C82.7921626 333.73859139 82.76486373 335.19301974 82.73828125 336.64746094 C82.71314453 337.36869141 82.68800781 338.08992187 82.66210938 338.83300781 C82.59960053 343.39615381 82.99380368 346.38878447 85.92578125 349.95996094 C88.4686875 350.54346598 88.4686875 350.54346598 90.92578125 349.95996094 C93.10568252 348.19442594 93.10568252 348.19442594 93.15283203 345.98876953 C93.1423584 345.20324707 93.13188477 344.41772461 93.12109375 343.60839844 C93.11464844 342.75761719 93.10820312 341.90683594 93.1015625 341.03027344 C93.08480469 340.14082031 93.06804687 339.25136719 93.05078125 338.33496094 C93.03724609 336.98917969 93.03724609 336.98917969 93.0234375 335.61621094 C92.99983095 333.39719508 92.96690435 331.17871016 92.92578125 328.95996094 C97.00128066 329.05358059 101.07624461 329.15969254 105.15112305 329.27734375 C106.53710032 329.31560444 107.9231759 329.3504625 109.30932617 329.38183594 C111.30279765 329.42754793 113.29595039 329.48655019 115.2890625 329.54589844 C116.48829346 329.57731934 117.68752441 329.60874023 118.9230957 329.64111328 C121.92578125 329.95996094 121.92578125 329.95996094 124.92578125 331.95996094 C126.01870925 335.23874494 126.08361997 337.72280505 126.13110352 341.17553711 C126.15104874 342.45663864 126.17099396 343.73774017 126.19154358 345.05766296 C126.20852665 346.45608397 126.2254055 347.85450625 126.2421875 349.25292969 C126.26276291 350.68354384 126.28375954 352.11415199 126.30516052 353.54475403 C126.36032058 357.307761 126.40975654 361.07082228 126.45800781 364.83392334 C126.50826718 368.67481309 126.56393008 372.5156241 126.61914062 376.35644531 C126.726648 383.89088566 126.82760994 391.4253921 126.92578125 398.95996094 C134.51578125 398.95996094 142.10578125 398.95996094 149.92578125 398.95996094 C149.92578125 303.91996094 149.92578125 208.87996094 149.92578125 110.95996094 C44.98578125 110.95996094 -59.95421875 110.95996094 -168.07421875 110.95996094 Z " fill="#000000" transform="translate(265.07421875,81.0400390625)"/>
<path d="M0 0 C0.68917007 0.35714584 1.37834015 0.71429169 2.08839417 1.08226013 C4.34296977 2.25289033 6.59131142 3.43499731 8.83984375 4.6171875 C10.42129125 5.44083163 12.00316537 6.26365709 13.58544922 7.08569336 C16.79595111 8.75499529 20.00417364 10.42855215 23.21044922 12.10595703 C29.59584212 15.44528794 35.99973164 18.74851998 42.40234375 22.0546875 C44.16564017 22.96735769 45.92893591 23.88002922 47.6920929 24.79296875 C56.21409143 29.20517761 64.74526295 33.59951506 73.27734375 37.9921875 C84.79972409 43.92451041 96.31483645 49.87062535 107.82421875 55.828125 C116.96939339 60.56089053 126.12225429 65.27863402 135.27734375 69.9921875 C146.78514448 75.91704869 158.28647161 81.85417663 169.78027344 87.80615234 C176.38367213 91.22430733 182.99182043 94.6329658 189.60546875 98.03125 C191.10612377 98.80272664 192.60677483 99.57421098 194.10742188 100.34570312 C196.98029456 101.82257808 199.85413134 103.29755402 202.72851562 104.77148438 C208.22848216 107.59523793 213.72644835 110.42421289 219.16796875 113.359375 C219.85407227 113.7291748 220.54017578 114.09897461 221.24707031 114.47998047 C222.77734375 115.4921875 222.77734375 115.4921875 223.77734375 117.4921875 C223.88878193 120.44670389 223.94146727 123.37692776 223.9453125 126.33203125 C223.9486409 127.20992813 223.9519693 128.08782501 223.95539856 128.99232483 C223.96046593 130.85091629 223.96280694 132.70951687 223.96264648 134.56811523 C223.96483224 137.41470297 223.98298783 140.26090279 224.00195312 143.10742188 C224.0048872 144.911457 224.0068719 146.71549398 224.0078125 148.51953125 C224.01499802 149.37272446 224.02218353 150.22591766 224.02958679 151.10496521 C224.00617165 157.14894565 224.00617165 157.14894565 221.77734375 160.4921875 C216.90456042 159.93521881 213.32397949 158.47388273 208.9921875 156.203125 C208.34750015 155.86822052 207.70281281 155.53331604 207.03858948 155.18826294 C204.92657695 154.08889454 202.82082541 152.97805843 200.71484375 151.8671875 C199.22829891 151.09096454 197.74131311 150.3155855 196.25390625 149.54101562 C193.21650536 147.95804618 190.18132842 146.37093547 187.14794922 144.78027344 C180.87149079 141.49094398 174.57378308 138.24306889 168.27734375 134.9921875 C166.50133858 134.07314615 164.72533413 133.15410341 162.94944763 132.23483276 C154.39814045 127.80884606 145.83814783 123.39976954 137.27734375 118.9921875 C125.75498155 113.05982925 114.23985114 107.1137497 102.73046875 101.15625 C93.58529411 96.42348447 84.43243321 91.70574098 75.27734375 86.9921875 C64.93861797 81.66923165 54.60445148 76.3376494 44.27734375 70.9921875 C34.20733157 65.78033565 24.13293325 60.5770757 14.05371094 55.38305664 C12.59319834 54.63041269 11.13274776 53.87764838 9.67236328 53.12475586 C7.63594225 52.07496927 5.5992624 51.02568659 3.5625 49.9765625 C2.395979 49.37553711 1.22945801 48.77451172 0.02758789 48.15527344 C-1.04499268 47.60645508 -2.11757324 47.05763672 -3.22265625 46.4921875 C-4.2288501 45.90469727 -5.23504395 45.31720703 -6.27172852 44.71191406 C-10.74821827 42.86161682 -13.63327302 43.83250439 -17.98901367 45.64038086 C-18.92592041 46.11612549 -19.86282715 46.59187012 -20.828125 47.08203125 C-21.89611328 47.62021484 -22.96410156 48.15839844 -24.06445312 48.71289062 C-25.16853516 49.27943359 -26.27261719 49.84597656 -27.41015625 50.4296875 C-28.99086914 51.22729492 -28.99086914 51.22729492 -30.60351562 52.04101562 C-38.05601559 55.81818881 -45.44603893 59.71025726 -52.83476257 63.6101532 C-60.78394918 67.80009523 -68.77645076 71.9032386 -76.777771 75.99252319 C-81.03420227 78.16813051 -85.28862878 80.34765043 -89.54296875 82.52734375 C-90.38256134 82.95747269 -91.22215393 83.38760162 -92.08718872 83.83076477 C-100.16795931 87.97276746 -108.22990522 92.15043893 -116.28759766 96.3371582 C-125.04766689 100.88742037 -133.82083323 105.41185937 -142.59765625 109.9296875 C-154.15440501 115.87874453 -165.70427686 121.84080432 -177.24707031 127.81689453 C-183.72706668 131.17099128 -190.21084671 134.51760035 -196.69921875 137.85546875 C-197.41452759 138.22361694 -198.12983643 138.59176514 -198.86682129 138.97106934 C-202.4323971 140.80597028 -205.99894364 142.63893516 -209.56738281 144.46826172 C-215.5299443 147.52881963 -221.47646483 150.60485807 -227.35546875 153.82421875 C-228.23831543 154.30463623 -229.12116211 154.78505371 -230.03076172 155.2800293 C-231.59660008 156.13746748 -233.15620296 157.0064522 -234.70751953 157.88989258 C-237.6835759 159.51674138 -239.71300408 160.51535351 -243.14453125 160.359375 C-245.22265625 159.4921875 -245.22265625 159.4921875 -246.22265625 157.4921875 C-246.34626552 154.53773859 -246.4110945 151.60780801 -246.42578125 148.65234375 C-246.43433136 147.33549843 -246.43433136 147.33549843 -246.4430542 145.99205017 C-246.45250776 144.13346565 -246.45903959 142.27486434 -246.46289062 140.41625977 C-246.4726056 137.56952811 -246.50362904 134.72351552 -246.53515625 131.87695312 C-246.54168531 130.07292096 -246.54693616 128.26888363 -246.55078125 126.46484375 C-246.56312805 125.61165054 -246.57547485 124.75845734 -246.5881958 123.87940979 C-246.56560623 117.90177705 -246.56560623 117.90177705 -244.81890869 115.81567383 C-243.01035994 114.31616818 -241.21950999 113.28090471 -239.12890625 112.20703125 C-238.28183105 111.76834717 -237.43475586 111.32966309 -236.56201172 110.87768555 C-235.62502441 110.39984619 -234.68803711 109.92200684 -233.72265625 109.4296875 C-232.72508301 108.91510986 -231.72750977 108.40053223 -230.69970703 107.87036133 C-227.84428583 106.39889934 -224.98618861 104.9327767 -222.1270752 103.46850586 C-218.72705573 101.72545377 -215.3305507 99.97557322 -211.93359375 98.2265625 C-206.71408574 95.53984052 -201.49351869 92.85519472 -196.27175903 90.17285156 C-187.70635241 85.77263944 -179.14895194 81.35725288 -170.59765625 76.9296875 C-160.31245691 71.60456939 -150.0200358 66.29370965 -139.72265625 60.9921875 C-129.38391433 55.66926344 -119.0497363 50.3377025 -108.72265625 44.9921875 C-99.09468838 40.00854774 -89.4610559 35.03606829 -79.82232666 30.07327271 C-69.10776828 24.55652565 -58.39408372 19.03809868 -47.6880188 13.50488281 C-45.87349641 12.568029 -44.05782189 11.63344075 -42.24194336 10.69921875 C-36.92875818 7.95904336 -31.63893604 5.19212344 -26.40625 2.30078125 C-25.53081543 1.82181396 -24.65538086 1.34284668 -23.75341797 0.84936523 C-22.1703571 -0.02108337 -20.59437398 -0.90460513 -19.02783203 -1.80444336 C-17.99698486 -2.36917358 -17.99698486 -2.36917358 -16.9453125 -2.9453125 C-16.36531494 -3.27402344 -15.78531738 -3.60273438 -15.18774414 -3.94140625 C-9.71279979 -5.51947444 -4.72704353 -2.5082491 0 0 Z " fill="#000000" transform="translate(267.22265625,24.5078125)"/>
<path d="M0 0 C98.34 0 196.68 0 298 0 C298 8.58 298 17.16 298 26 C199.66 26 101.32 26 0 26 C0 17.42 0 8.84 0 0 Z " fill="#000000" transform="translate(107,202)"/>
<path d="M0 0 C98.34 0 196.68 0 298 0 C298 8.25 298 16.5 298 25 C199.66 25 101.32 25 0 25 C0 16.75 0 8.5 0 0 Z " fill="#000000" transform="translate(107,273)"/>
<path d="M0 0 C98.34 0 196.68 0 298 0 C298 8.25 298 16.5 298 25 C199.66 25 101.32 25 0 25 C0 16.75 0 8.5 0 0 Z " fill="#000000" transform="translate(107,238)"/>
<path d="M0 0 C1.16337891 0.00322266 2.32675781 0.00644531 3.52539062 0.00976562 C4.74033203 0.01814453 5.95527344 0.02652344 7.20703125 0.03515625 C8.43357422 0.03966797 9.66011719 0.04417969 10.92382812 0.04882812 C13.95577793 0.0606256 16.98763031 0.07708704 20.01953125 0.09765625 C20.08011719 1.29003906 20.14070313 2.48242188 20.203125 3.7109375 C20.28754274 5.2773555 20.37219012 6.84376113 20.45703125 8.41015625 C20.49634766 9.19583984 20.53566406 9.98152344 20.57617188 10.79101562 C20.61806641 11.54833984 20.65996094 12.30566406 20.703125 13.0859375 C20.75811157 14.13068237 20.75811157 14.13068237 20.81420898 15.1965332 C20.97534278 17.31931345 20.97534278 17.31931345 22.01953125 20.09765625 C25.60280878 21.09982689 25.60280878 21.09982689 29.01953125 20.09765625 C29.34953125 13.49765625 29.67953125 6.89765625 30.01953125 0.09765625 C34.24886859 0.04370297 38.4775173 0.00400257 42.70703125 -0.02734375 C43.90521484 -0.04410156 45.10339844 -0.06085938 46.33789062 -0.078125 C47.49482422 -0.08457031 48.65175781 -0.09101563 49.84375 -0.09765625 C51.4383606 -0.1133667 51.4383606 -0.1133667 53.06518555 -0.12939453 C57.04799121 0.17669664 59.82233721 0.85505183 62.63911438 3.77867126 C64.44706722 6.81588096 64.40027224 8.91321985 64.40771484 12.43920898 C64.41717133 13.72411728 64.42662781 15.00902557 64.43637085 16.33287048 C64.43100042 17.73233346 64.42484729 19.13179362 64.41796875 20.53125 C64.41999062 21.97087247 64.422903 23.41049394 64.42666626 24.85011292 C64.43108576 27.86542525 64.42467184 30.88047069 64.41064453 33.89575195 C64.39356789 37.753853 64.40338599 41.61132721 64.42136192 45.46940517 C64.43222321 48.44204903 64.42874248 51.41454528 64.42097855 54.38719368 C64.4189822 55.80930722 64.42141591 57.23143432 64.42841721 58.65353203 C64.43606766 60.64458827 64.42233218 62.6356917 64.40771484 64.62670898 C64.40532806 65.75825912 64.40294128 66.88980927 64.40048218 68.0556488 C63.97359383 71.46448034 63.05441097 73.35429483 61.01953125 76.09765625 C58.20638405 77.50422985 55.85208 77.24048486 52.70556641 77.25878906 C52.0582103 77.26375397 51.41085419 77.26871887 50.74388123 77.27383423 C48.59877465 77.28845884 46.45374203 77.29525836 44.30859375 77.30078125 C42.81887815 77.30653254 41.32916257 77.31229028 39.83944702 77.3180542 C36.71392471 77.32856509 33.58842813 77.33440714 30.46289062 77.33789062 C26.45897086 77.34337503 22.45539123 77.36740119 18.45157814 77.39586258 C15.37349455 77.41449173 12.29549284 77.4196947 9.21735764 77.4212265 C7.74136877 77.42425305 6.26538135 77.4322817 4.78944778 77.44541168 C2.72346419 77.46247845 0.65831077 77.46059101 -1.40771484 77.45410156 C-2.58304779 77.45774719 -3.75838074 77.46139282 -4.96932983 77.46514893 C-8.28535514 77.06044657 -9.64668644 76.4505407 -11.98046875 74.09765625 C-13.07726036 70.80728141 -13.12736197 68.33485941 -13.1574707 64.86962891 C-13.17030594 63.58464508 -13.18314117 62.29966125 -13.19636536 60.97573853 C-13.20453232 59.57106919 -13.21197614 58.16639549 -13.21875 56.76171875 C-13.22282553 56.05359417 -13.22690105 55.34546959 -13.23110008 54.61588669 C-13.25193983 50.86892745 -13.26625146 47.12200462 -13.27563477 43.375 C-13.28670462 39.50898051 -13.32111626 35.64353573 -13.36080647 31.7777195 C-13.38697003 28.80082135 -13.39532623 25.82406036 -13.39891624 22.84705734 C-13.40378169 21.42211391 -13.41539467 19.9971766 -13.43395424 18.57234573 C-13.45833884 16.57652944 -13.45496154 14.58043279 -13.45043945 12.58447266 C-13.45923882 10.88262314 -13.45923882 10.88262314 -13.46821594 9.14639282 C-12.8694861 5.40394263 -11.63911563 3.75500609 -8.98046875 1.09765625 C-5.74295197 0.01848399 -3.40295104 -0.01659976 0 0 Z " fill="#000000" transform="translate(154.98046875,322.90234375)"/>
<path d="M0 0 C1.16015625 0.00322266 2.3203125 0.00644531 3.515625 0.00976562 C5.32546875 0.02233398 5.32546875 0.02233398 7.171875 0.03515625 C9.00492188 0.04192383 9.00492188 0.04192383 10.875 0.04882812 C13.89064592 0.06060799 16.90626665 0.07854324 19.921875 0.09765625 C20.416875 9.50265625 20.416875 9.50265625 20.921875 19.09765625 C23.396875 20.08765625 23.396875 20.08765625 25.921875 21.09765625 C29.07297903 19.49805781 29.07297903 19.49805781 29.35424805 17.12646484 C29.38043213 16.34094238 29.40661621 15.55541992 29.43359375 14.74609375 C29.46904297 13.8953125 29.50449219 13.04453125 29.54101562 12.16796875 C29.56357422 11.27851563 29.58613281 10.3890625 29.609375 9.47265625 C29.64353516 8.57546875 29.67769531 7.67828125 29.71289062 6.75390625 C29.79549902 4.53528087 29.86460219 2.31705685 29.921875 0.09765625 C34.15098369 0.03948419 38.37998909 0.00400162 42.609375 -0.02734375 C43.80755859 -0.04410156 45.00574219 -0.06085938 46.24023438 -0.078125 C47.39716797 -0.08457031 48.55410156 -0.09101563 49.74609375 -0.09765625 C51.34070435 -0.1133667 51.34070435 -0.1133667 52.9675293 -0.12939453 C56.06466241 0.10862991 58.1768937 0.65677304 60.921875 2.09765625 C63.31719223 5.69063209 63.19004139 7.34369419 63.22827148 11.61694336 C63.236595 12.27419907 63.24491852 12.93145477 63.25349426 13.60862732 C63.27758533 15.78081182 63.28636447 17.95269609 63.29296875 20.125 C63.30193489 21.6357075 63.31105673 23.14641409 63.32032776 24.65711975 C63.33681722 27.8237626 63.34451792 30.99029971 63.34741211 34.15698242 C63.35279997 38.21383656 63.39049512 42.26969684 63.43615627 46.3262701 C63.46590316 49.44641243 63.47313511 52.56631456 63.47413826 55.68658638 C63.47834437 57.18214031 63.49079457 58.67769471 63.51165581 60.17310905 C63.53852839 62.26580764 63.53376095 64.35619136 63.52124023 66.44897461 C63.52631088 67.63905624 63.53138153 68.82913788 63.53660583 70.05528259 C62.921875 73.09765625 62.921875 73.09765625 60.79359436 75.48085022 C57.37917735 77.40320033 55.28019735 77.6043927 51.375 77.61523438 C50.07014648 77.62784302 48.76529297 77.64045166 47.42089844 77.65344238 C46.00455178 77.64628235 44.58821006 77.63807831 43.171875 77.62890625 C41.71126039 77.63160281 40.25064754 77.6354866 38.79003906 77.64050293 C35.73354956 77.64639038 32.67752864 77.63786006 29.62109375 77.61914062 C25.71017151 77.59635065 21.80034732 77.6094779 17.88946533 77.63343048 C14.87475362 77.64790936 11.86030072 77.64327309 8.84558105 77.63291931 C7.40392933 77.63025776 5.96225384 77.63350169 4.52062988 77.64283752 C2.50334138 77.65303548 0.4859701 77.63472653 -1.53125 77.61523438 C-3.25069824 77.61046082 -3.25069824 77.61046082 -5.00488281 77.60559082 C-8.85185398 76.96977707 -10.4817724 76.00242154 -13.078125 73.09765625 C-13.69958496 70.06201172 -13.69958496 70.06201172 -13.69335938 66.46484375 C-13.70168289 65.47874115 -13.70168289 65.47874115 -13.71017456 64.47271729 C-13.72196062 62.30528257 -13.69771134 60.13994385 -13.671875 57.97265625 C-13.6701635 56.46337988 -13.67022998 54.95410053 -13.67199707 53.44482422 C-13.67034445 50.28388981 -13.65165863 47.12366516 -13.62011719 43.96289062 C-13.58043892 39.91407986 -13.57607207 35.86619851 -13.58358002 31.81723022 C-13.58665166 28.70132962 -13.57452243 25.58563742 -13.55744934 22.4697876 C-13.55042512 20.97708443 -13.54729411 19.48435764 -13.54814148 17.99163818 C-13.54634076 15.90414869 -13.52493828 13.8177664 -13.49804688 11.73046875 C-13.48962769 10.54340332 -13.4812085 9.35633789 -13.47253418 8.13330078 C-13.04423754 4.83683501 -12.37192877 3.45681891 -10.078125 1.09765625 C-6.831975 -0.23824584 -3.47271275 -0.0170231 0 0 Z " fill="#000000" transform="translate(242.078125,322.90234375)"/>
</svg>
