<?xml version="1.0" encoding="UTF-8"?>
<svg version="1.1" xmlns="http://www.w3.org/2000/svg" width="512" height="512">
<path d="M0 0 C0.78387801 0.40377473 1.56775602 0.80754947 2.37538791 1.2235598 C3.66817318 1.85931085 3.66817318 1.85931085 4.98707533 2.50790536 C7.85389214 3.92380286 10.70562614 5.36767156 13.5581882 6.81204551 C15.61803686 7.83682845 17.67873931 8.85989675 19.74022555 9.88138145 C25.32362108 12.65458598 30.89415072 15.45275592 36.46226478 18.25649136 C42.29617857 21.18985199 48.14016769 24.10301405 53.98268771 27.01918358 C63.79168277 31.91824499 73.59172097 36.83493185 83.38728976 41.76077598 C93.45471249 46.82332521 103.53066419 51.8683814 113.61580539 56.89554161 C125.78587068 62.96200335 137.94767771 69.0446678 150.10270572 75.1412062 C154.73918453 77.46631174 159.37875456 79.78507309 164.02093387 82.09877533 C169.488298 84.82478749 174.94748115 87.56653611 180.40078998 90.32055229 C182.40151231 91.3277907 184.40496426 92.32962837 186.41131854 93.32560104 C189.1532872 94.68787368 191.88460056 96.06953415 194.61415744 97.45646995 C195.40695833 97.84462963 196.19975923 98.23278931 197.0165844 98.63271141 C202.14705312 101.27482141 206.12270736 104.34862989 209.24080539 109.28445762 C210.35976551 112.78323646 210.36400875 116.01946847 210.3610599 119.68783897 C210.3631219 121.66499901 210.3631219 121.66499901 210.36522555 123.68210167 C210.3616866 125.14102523 210.35805179 126.59994857 210.35433078 128.05887169 C210.35404868 129.59638794 210.35420708 131.13390434 210.35477328 132.67142051 C210.35506038 136.84461606 210.34917782 141.01778292 210.34219933 145.19097179 C210.33595119 149.55251556 210.33536083 153.91405997 210.33417392 158.27560753 C210.33106492 166.53448424 210.32285732 174.79334773 210.31282443 183.05221862 C210.30164992 192.45479089 210.29614946 201.85736379 210.29112899 211.25994104 C210.28067437 230.60145559 210.26233422 249.94295201 210.24080539 269.28445762 C188.13080539 269.28445762 166.02080539 269.28445762 143.24080539 269.28445762 C143.20342257 262.73859825 143.16603976 256.19273887 143.12752414 249.44852012 C143.09726099 245.31047254 143.06612401 241.17246886 143.03182101 237.03445762 C142.9774146 230.46123735 142.92630841 223.8881039 142.89436984 217.31473106 C142.86842867 212.01725594 142.82809212 206.72007095 142.77761912 201.42277473 C142.76088801 199.39813533 142.74941279 197.37344569 142.74319148 195.34874672 C142.733618 192.52052709 142.70564091 189.69306026 142.67317843 186.86502403 C142.67533107 185.59943405 142.67533107 185.59943405 142.67752719 184.30827659 C142.67106821 181.7462271 142.67106821 181.7462271 142.24080539 178.28445762 C138.94694658 176.08855175 137.98868604 176.0341331 134.16638923 176.03277534 C133.11089741 176.02755985 132.0554056 176.02234435 130.96792918 176.01697081 C129.8043298 176.02143226 128.64073042 176.0258937 127.44187045 176.03049034 C126.20889663 176.02737036 124.9759228 176.02425038 123.70558614 176.02103585 C120.27673432 176.01442281 116.84810054 176.01682454 113.41926181 176.02300829 C109.72389923 176.02752147 106.02855611 176.02055463 102.33319736 176.01504844 C95.09115446 176.00614038 87.84915296 176.0080828 80.60710842 176.01387373 C74.72238938 176.01838501 68.83768196 176.01900543 62.95296168 176.01682609 C62.11636395 176.01651963 61.27976622 176.01621316 60.41781704 176.01589741 C58.71843056 176.01525798 57.01904409 176.01460955 55.31965762 176.01395223 C39.37221219 176.0082447 23.42478974 176.01481325 7.47734808 176.02555296 C-6.21308326 176.03448722 -19.90348068 176.03293828 -33.59391141 176.02371544 C-49.48157968 176.01301743 -65.36922781 176.00879579 -81.25689918 176.01493996 C-82.9504445 176.01557708 -84.64398982 176.01620582 -86.33753514 176.01682609 C-87.17084863 176.01713464 -88.00416212 176.0174432 -88.86272753 176.0177611 C-94.74142376 176.01948957 -100.62010722 176.01656962 -106.49880147 176.01186699 C-113.66155249 176.0062633 -120.82425966 176.00776373 -127.98700564 176.01842847 C-131.64315267 176.02369236 -135.29922653 176.0257298 -138.95537305 176.01913017 C-142.91471561 176.01209124 -146.87393781 176.02048408 -150.83327603 176.03049034 C-151.99464469 176.0260289 -153.15601335 176.02156745 -154.352575 176.01697081 C-155.41067457 176.02218631 -156.46877413 176.0274018 -157.55893731 176.03277534 C-158.47319653 176.03310005 -159.38745575 176.03342475 -160.32941979 176.0337593 C-163.1364823 176.1788894 -163.1364823 176.1788894 -166.75919461 178.28445762 C-167.08919461 261.77445762 -167.41919461 345.26445762 -167.75919461 431.28445762 C-223.75919461 431.28445762 -223.75919461 431.28445762 -229.75919461 427.28445762 C-234.94932988 421.8146852 -234.32055652 415.91298368 -234.26712918 408.79654258 C-234.27336915 407.52566465 -234.27960911 406.25478671 -234.28603816 404.94539732 C-234.30272342 401.42450345 -234.2944891 397.90404372 -234.28209329 394.38314837 C-234.27304171 390.58348277 -234.28701304 386.78389173 -234.29801297 382.98424095 C-234.31580168 375.54337609 -234.31195668 368.10267259 -234.30036241 360.6618014 C-234.29132973 354.61459452 -234.29010337 348.56743287 -234.29445767 342.52022117 C-234.29537707 341.22933307 -234.29537707 341.22933307 -234.29631504 339.91236642 C-234.29759394 338.164103 -234.2988908 336.41583959 -234.30020541 334.66757619 C-234.31161223 318.27318237 -234.2984959 301.87887801 -234.27700394 285.48449886 C-234.25913286 271.41663432 -234.26223694 257.34890181 -234.28067899 243.28103966 C-234.3020839 226.94540953 -234.31051359 210.60985782 -234.29822993 194.27421564 C-234.29695573 192.53237513 -234.29569825 190.79053461 -234.29445767 189.04869407 C-234.29384057 188.19166998 -234.29322347 187.33464589 -234.29258767 186.45165136 C-234.28913363 180.41154123 -234.29496427 174.37148083 -234.30437589 168.3313784 C-234.31559304 160.97071608 -234.31256187 153.6102244 -234.29125291 146.24958163 C-234.28073858 142.49385692 -234.27662696 138.73841672 -234.28984952 134.98269409 C-234.30396308 130.91233911 -234.28711435 126.84270285 -234.26712918 122.77237266 C-234.27605207 121.58385751 -234.28497496 120.39534236 -234.29416823 119.17081159 C-234.19540318 108.83524666 -234.19540318 108.83524666 -229.75919461 104.28445762 C-224.65498411 100.45453499 -218.84633487 97.68514391 -213.14864469 94.85556358 C-211.90425027 94.23155556 -211.90425027 94.23155556 -210.63471657 93.59494132 C-207.87690349 92.21323509 -205.11628881 90.83722624 -202.35563016 89.46121544 C-200.36902637 88.46737666 -198.3825959 87.47319137 -196.39632535 86.47868675 C-191.0184294 83.78732152 -185.63805523 81.10094607 -180.25716114 78.41558117 C-174.62515925 75.60397917 -168.99527236 72.78814815 -163.36510587 69.97287315 C-153.91702028 65.24929811 -144.46740306 60.5287978 -135.01676297 55.81033653 C-125.29297715 50.95549695 -115.57060454 46.09784221 -105.84977078 41.23709434 C-104.95040812 40.78738304 -104.95040812 40.78738304 -104.03287651 40.32858667 C-103.43433276 40.02929461 -102.83578901 39.73000256 -102.21910757 39.42164105 C-91.70474925 34.16413461 -81.18923296 28.90894792 -70.67308354 23.65502495 C-66.1955545 21.41802793 -61.71836739 19.18034864 -57.2414391 16.94214958 C-51.97698866 14.31042547 -46.71152605 11.68073756 -41.44526219 9.05264419 C-39.50948711 8.08622056 -37.57405264 7.11911432 -35.63897824 6.15128845 C-33.00518083 4.83414546 -30.37017263 3.51945764 -27.73482633 2.2054171 C-26.96305025 1.81875476 -26.19127418 1.43209242 -25.39611095 1.03371304 C-16.48814141 -3.39989152 -9.12959914 -4.4131282 0 0 Z M-34.75919461 73.28445762 C-39.24630418 80.3393351 -40.55146586 86.98188902 -39.75919461 95.28445762 C-37.50745697 103.55638501 -33.62369309 109.16028456 -26.73575711 114.17117637 C-19.81758716 118.06777407 -12.48300174 118.09345617 -4.75919461 117.28445762 C3.42200869 114.90426992 9.03020913 109.67367276 13.33455539 102.44852012 C16.39575381 95.73089026 16.54253244 87.44998421 14.36189914 80.47195762 C10.88555321 72.94561132 6.09420044 67.30523715 -1.50919461 63.84695762 C-14.35074958 59.34559314 -25.86353041 63.30199282 -34.75919461 73.28445762 Z " fill="#000000" transform="translate(233.75919461250305,11.715542376041412)"/>
<path d="M0 0 C0.96454102 0.00999023 1.92908203 0.01998047 2.92285156 0.03027344 C4.74768066 0.08489746 4.74768066 0.08489746 6.609375 0.140625 C12.425625 0.264375 12.425625 0.264375 18.359375 0.390625 C18.689375 11.610625 19.019375 22.830625 19.359375 34.390625 C21.84106114 35.63146807 23.52363699 35.51995603 26.296875 35.5234375 C27.27398437 35.52472656 28.25109375 35.52601563 29.2578125 35.52734375 C30.79308594 35.52154297 30.79308594 35.52154297 32.359375 35.515625 C33.38289063 35.51949219 34.40640625 35.52335937 35.4609375 35.52734375 C36.43804687 35.52605469 37.41515625 35.52476562 38.421875 35.5234375 C39.76958984 35.52174561 39.76958984 35.52174561 41.14453125 35.52001953 C43.40068625 35.53425584 43.40068625 35.53425584 45.359375 34.390625 C45.689375 23.170625 46.019375 11.950625 46.359375 0.390625 C50.236875 0.308125 54.114375 0.225625 58.109375 0.140625 C59.32592773 0.10420898 60.54248047 0.06779297 61.79589844 0.03027344 C63.24270996 0.01528809 63.24270996 0.01528809 64.71875 0 C65.70327148 -0.02094727 66.68779297 -0.04189453 67.70214844 -0.06347656 C71.22903086 0.53924315 72.19032907 1.56248848 74.359375 4.390625 C74.7493618 6.98896978 74.8974419 9.16299325 74.86108398 11.7578125 C74.86918846 12.86095795 74.86918846 12.86095795 74.87745667 13.98638916 C74.88994651 16.41321267 74.87345244 18.83885035 74.85546875 21.265625 C74.85562373 22.95426496 74.8571126 24.64290527 74.85987854 26.33154297 C74.86126264 29.86897525 74.84870294 33.40600213 74.82592773 36.94335938 C74.79754286 41.47639403 74.80028017 46.0087551 74.81301785 50.5418396 C74.81997475 54.0282974 74.81218565 57.51459966 74.79976082 61.0010376 C74.79524642 62.67237756 74.79490943 64.34373422 74.79882622 66.01507568 C74.80173861 68.35154409 74.78523125 70.68708619 74.76342773 73.0234375 C74.77018021 74.05842377 74.77018021 74.05842377 74.77706909 75.11431885 C74.70725589 79.61970143 74.24380341 80.54472045 71.359375 84.390625 C67.729375 84.390625 64.099375 84.390625 60.359375 84.390625 C60.689375 95.610625 61.019375 106.830625 61.359375 118.390625 C65.46375 118.41125 69.568125 118.431875 73.796875 118.453125 C75.09294678 118.462229 76.38901855 118.47133301 77.72436523 118.48071289 C79.24332397 118.48445923 79.24332397 118.48445923 80.79296875 118.48828125 C82.35615845 118.49613647 82.35615845 118.49613647 83.95092773 118.50415039 C86.31066247 118.66368056 86.31066247 118.66368056 87.359375 117.390625 C87.51925991 114.87181983 87.61871725 112.37720234 87.67578125 109.85546875 C87.7069529 108.72559288 87.7069529 108.72559288 87.73875427 107.57289124 C87.80432925 105.1580651 87.86317121 102.74312702 87.921875 100.328125 C87.9650527 98.69464971 88.00866673 97.0611859 88.05273438 95.42773438 C88.16001862 91.41548036 88.26126321 87.40311336 88.359375 83.390625 C91.92171928 83.30321376 95.48378608 83.25009604 99.046875 83.203125 C100.05427734 83.17798828 101.06167969 83.15285156 102.09960938 83.12695312 C111.49872631 83.03389256 111.49872631 83.03389256 115.359375 86.390625 C116.83431877 89.34051253 116.50673142 92.32851051 116.50463867 95.5625 C116.50799728 96.30085083 116.5113559 97.03920166 116.51481628 97.79992676 C116.52433538 100.24684316 116.52626975 102.69369122 116.52734375 105.140625 C116.53055522 106.83691435 116.5339192 108.53320343 116.53742981 110.22949219 C116.54342316 113.78711591 116.54526945 117.34471533 116.54467773 120.90234375 C116.544576 125.46911914 116.55823916 130.03573944 116.57544994 134.60247803 C116.58654714 138.10596437 116.58859766 141.60941292 116.58806801 145.11291504 C116.58925115 146.7970839 116.59369154 148.48125364 116.60140038 150.16540527 C116.61115624 152.51663205 116.60834009 154.86751818 116.60229492 157.21875 C116.60791443 157.91907349 116.61353394 158.61939697 116.61932373 159.34094238 C116.58769216 164.16230784 116.58769216 164.16230784 114.359375 166.390625 C118.979375 166.720625 123.599375 167.050625 128.359375 167.390625 C128.359375 196.100625 128.359375 224.810625 128.359375 254.390625 C95.029375 254.390625 61.699375 254.390625 27.359375 254.390625 C26.369375 249.110625 25.379375 243.830625 24.359375 238.390625 C18.19147611 224.43942513 9.13425972 217.15446219 -4.640625 211.390625 C-15.06433341 208.35853451 -28.09280003 209.34324781 -37.640625 214.390625 C-49.83061968 221.22411152 -56.34128963 229.96395251 -60.953125 243.140625 C-61.74656369 246.8914261 -62.23931726 250.57820146 -62.640625 254.390625 C-65.26623609 254.47136703 -67.88938176 254.5309873 -70.515625 254.578125 C-71.26199219 254.60326172 -72.00835937 254.62839844 -72.77734375 254.65429688 C-74.9453125 254.68359375 -74.9453125 254.68359375 -78.640625 254.390625 C-81.09598034 250.707592 -80.92950857 247.92217294 -80.9152832 243.66210938 C-80.92039413 242.87645096 -80.92550507 242.09079254 -80.93077087 241.28132629 C-80.94468019 238.68226522 -80.94370931 236.08346888 -80.94140625 233.484375 C-80.94529207 231.67980856 -80.9496265 229.87524304 -80.95439148 228.07067871 C-80.96185629 224.28781164 -80.96156025 220.50503789 -80.95629883 216.72216797 C-80.95049977 211.86958003 -80.96744437 207.01737322 -80.9906435 202.16484833 C-81.00535901 198.43827066 -81.0062556 194.71178529 -81.00313377 190.98518372 C-81.00364795 189.19577783 -81.00890376 187.40636691 -81.01894569 185.61698914 C-81.03125251 183.11745248 -81.02455382 180.61866486 -81.01293945 178.11914062 C-81.02058319 177.37722977 -81.02822693 176.63531891 -81.03610229 175.8709259 C-80.98485058 170.89259224 -80.98485058 170.89259224 -79.29928589 168.43461609 C-76.67828521 166.78491098 -74.28715639 166.94823883 -71.22265625 166.87890625 C-69.96904297 166.84345703 -68.71542969 166.80800781 -67.42382812 166.77148438 C-66.11349609 166.74892578 -64.80316406 166.72636719 -63.453125 166.703125 C-62.11780487 166.66994834 -60.78251668 166.63545834 -59.44726562 166.59960938 C-56.17846996 166.51700443 -52.90994688 166.44789271 -49.640625 166.390625 C-50.300625 165.730625 -50.960625 165.070625 -51.640625 164.390625 C-51.84400647 161.97306985 -51.92387928 159.6695501 -51.9152832 157.25048828 C-51.9229496 156.14778091 -51.9229496 156.14778091 -51.93077087 155.02279663 C-51.94470432 152.5854281 -51.94370709 150.1483412 -51.94140625 147.7109375 C-51.94529164 146.01943862 -51.94962599 144.32794072 -51.95439148 142.63644409 C-51.96186213 139.08718711 -51.96155671 135.53802957 -51.95629883 131.98876953 C-51.95050853 127.44003288 -51.96742028 122.89170398 -51.9906435 118.34303474 C-52.00537663 114.84802875 -52.00625303 111.35312099 -52.00313377 107.85808945 C-52.00364738 106.18115304 -52.00889251 104.50421119 -52.01894569 102.82730484 C-52.03128242 100.48111778 -52.02453517 98.13572512 -52.01293945 95.78955078 C-52.02440506 94.74985138 -52.02440506 94.74985138 -52.03610229 93.68914795 C-52.00323015 90.68006018 -51.7801634 88.641329 -50.30485535 85.99069214 C-47.3537685 83.15338233 -44.42043946 83.27051047 -40.53515625 83.29296875 C-39.20641479 83.29671509 -39.20641479 83.29671509 -37.85083008 83.30053711 C-36.16896606 83.31419312 -36.16896606 83.31419312 -34.453125 83.328125 C-30.885 83.34875 -27.316875 83.369375 -23.640625 83.390625 C-23.310625 95.270625 -22.980625 107.150625 -22.640625 119.390625 C-14.060625 119.060625 -5.480625 118.730625 3.359375 118.390625 C3.689375 107.170625 4.019375 95.950625 4.359375 84.390625 C0.729375 84.390625 -2.900625 84.390625 -6.640625 84.390625 C-9.84550523 81.18574477 -9.99259242 80.46365067 -10.05831909 76.17527771 C-10.05381744 75.47234085 -10.0493158 74.76940399 -10.04467773 74.04516602 C-10.05154099 73.30012817 -10.05840424 72.55509033 -10.06547546 71.78747559 C-10.08378705 69.32296731 -10.07989984 66.85909301 -10.07421875 64.39453125 C-10.07877864 62.68204033 -10.08408363 60.96955124 -10.09010315 59.25706482 C-10.09904291 55.66666229 -10.09660155 52.07648208 -10.08666992 48.48608398 C-10.07518186 43.88455785 -10.09538438 39.28379927 -10.12458706 34.682374 C-10.14293266 31.1453107 -10.14265986 27.60843187 -10.13694954 24.07133293 C-10.13679611 22.37485617 -10.14285852 20.67836708 -10.15524101 18.9819355 C-10.17011801 16.60929347 -10.15949959 14.23807593 -10.14233398 11.86547852 C-10.15200195 11.16456589 -10.16166992 10.46365326 -10.17163086 9.74150085 C-10.12070098 6.3801289 -9.84248445 4.65455009 -7.77534485 1.951828 C-5.01601241 -0.06617829 -3.39507543 -0.07223565 0 0 Z M29.359375 84.390625 C30.349375 85.875625 30.349375 85.875625 31.359375 87.390625 C32.019375 87.390625 32.679375 87.390625 33.359375 87.390625 C33.359375 86.730625 33.359375 86.070625 33.359375 85.390625 C34.019375 85.060625 34.679375 84.730625 35.359375 84.390625 C33.379375 84.390625 31.399375 84.390625 29.359375 84.390625 Z M31.359375 164.390625 C31.029375 165.380625 30.699375 166.370625 30.359375 167.390625 C31.679375 167.060625 32.999375 166.730625 34.359375 166.390625 C33.369375 165.730625 32.379375 165.070625 31.359375 164.390625 Z " fill="#000000" transform="translate(216.640625,219.609375)"/>
<path d="M0 0 C1.10117409 -0.00788544 1.10117409 -0.00788544 2.22459412 -0.01593018 C4.63554568 -0.0290645 7.0458296 -0.02041676 9.45678711 -0.01025391 C11.1401736 -0.01227632 12.82355924 -0.01518916 14.50694275 -0.01895142 C18.02815119 -0.02336567 21.54913074 -0.01697198 25.0703125 -0.00292969 C29.57850611 0.01417496 34.08616436 0.00430741 38.59433842 -0.01364708 C42.06794759 -0.02449804 45.54143024 -0.0210328 49.01504326 -0.0132637 C50.67719016 -0.011266 52.33934864 -0.01370584 54.00148201 -0.02070236 C56.32551556 -0.02834008 58.64868677 -0.01668162 60.97265625 0 C61.99753647 -0.00910904 61.99753647 -0.00910904 63.04312134 -0.0184021 C68.17511921 0.04967927 71.35617911 1.39435511 75.02685547 4.93774414 C78.55832837 9.22256411 81.82732345 13.63366304 84.98413086 18.20068359 C86.03661196 19.70782592 87.09002919 21.21431488 88.14428711 22.72021484 C88.952771 23.87577881 88.952771 23.87577881 89.77758789 25.0546875 C92.45714995 28.85796254 95.18954297 32.62255406 97.92163086 36.38818359 C103.64860785 44.29345719 109.29263094 52.25423096 114.90698242 60.23974609 C116.486923 62.48079656 118.07447509 64.71629305 119.66381836 66.95068359 C120.19869873 67.70406006 120.7335791 68.45743652 121.28466797 69.23364258 C122.29679662 70.65884653 123.31050156 72.08293308 124.32617188 73.50561523 C124.78950928 74.15908936 125.25284668 74.81256348 125.73022461 75.48583984 C126.13039795 76.04795166 126.53057129 76.61006348 126.94287109 77.18920898 C127.43086182 77.91487061 127.91885254 78.64053223 128.42163086 79.38818359 C128.82327013 79.93266175 129.2249094 80.47713991 129.63871956 81.03811741 C133.25115884 86.24354678 134.13850943 90.07699096 134.02099609 96.34277344 C134.02493881 97.19904327 134.02888153 98.05531311 134.03294373 98.93753052 C134.03960773 101.74200675 134.01060261 104.5448216 133.98022461 107.34912109 C133.97597108 109.30587448 133.97364555 111.26263292 133.97315979 113.21939087 C133.96701174 117.30632625 133.94438631 121.39270982 133.90869141 125.47949219 C133.86324034 130.72546482 133.84865502 135.97094116 133.84495449 141.21709251 C133.84053487 145.25075191 133.82524989 149.28430662 133.80607796 153.31792068 C133.79718544 155.25327315 133.79046046 157.1886368 133.78591728 159.12400436 C133.77690938 161.81951637 133.75455405 164.51457178 133.72802734 167.20996094 C133.72736267 168.01306702 133.726698 168.8161731 133.72601318 169.64361572 C133.65081619 175.15899826 133.65081619 175.15899826 131.42163086 177.38818359 C128.62426758 177.61523438 128.62426758 177.61523438 125.10131836 177.58349609 C123.21606445 177.57382812 123.21606445 177.57382812 121.29272461 177.56396484 C119.97401367 177.54720703 118.65530273 177.53044922 117.29663086 177.51318359 C115.95679365 177.50315342 114.61694934 177.49402763 113.27709961 177.48583984 C109.99176513 177.46220434 106.70678621 177.42925593 103.42163086 177.38818359 C103.26307617 176.42138672 103.10452148 175.45458984 102.94116211 174.45849609 C100.50229798 160.47195255 95.73590856 149.33368109 83.93334961 140.53271484 C81.48314597 138.9894295 79.02555776 137.6525904 76.42163086 136.38818359 C75.43163086 135.87964844 75.43163086 135.87964844 74.42163086 135.36083984 C64.33816489 131.08718337 50.14782074 132.06642503 40.16772461 135.99755859 C27.59473877 142.36453293 19.72369349 151.65578849 15.23413086 164.88818359 C14.6141365 167.55892853 14.17727643 170.05412586 13.85913086 172.76318359 C13.42163086 176.38818359 13.42163086 176.38818359 12.42163086 177.38818359 C10.20307822 177.47601901 7.9817459 177.49512968 5.76147461 177.48583984 C4.76477501 177.48371742 4.76477501 177.48371742 3.74794006 177.48155212 C1.61829187 177.47593878 -0.51125254 177.46338413 -2.64086914 177.45068359 C-4.08162283 177.44567031 -5.52237817 177.4411071 -6.96313477 177.43701172 C-10.50158016 177.42596504 -14.03996453 177.40869151 -17.57836914 177.38818359 C-17.67183318 155.73502501 -17.74235854 134.08189971 -17.78561783 112.42858028 C-17.80623824 102.37443738 -17.83434895 92.32041985 -17.88012695 82.26635742 C-17.92001059 73.50267295 -17.94580574 64.73907928 -17.95472312 55.97530657 C-17.95993527 51.33542772 -17.97217493 46.69580865 -18.00128937 42.05601311 C-18.02848258 37.68690499 -18.03680626 33.31816313 -18.03079987 28.94897842 C-18.03189836 27.34740393 -18.0398291 25.74581692 -18.05519104 24.14431572 C-18.07518117 21.95240833 -18.0702769 19.76187212 -18.05938721 17.56993103 C-18.06307438 16.34486815 -18.06676155 15.11980528 -18.07056046 13.85761929 C-17.44228158 9.42890813 -16.07948486 7.08796767 -13.57836914 3.38818359 C-9.18891898 0.36332747 -5.19629941 -0.04632146 0 0 Z M0.42163086 18.38818359 C0.42163086 42.14818359 0.42163086 65.90818359 0.42163086 90.38818359 C37.71163086 90.38818359 75.00163086 90.38818359 113.42163086 90.38818359 C109.16546229 83.6999187 104.96786486 77.19367357 100.29663086 70.82568359 C99.15985943 69.26322192 98.02314224 67.70072078 96.88647461 66.13818359 C96.31268066 65.35185547 95.73888672 64.56552734 95.14770508 63.75537109 C92.37489925 59.95266595 89.61598564 56.13996213 86.85913086 52.32568359 C86.32586182 51.58842041 85.79259277 50.85115723 85.24316406 50.09155273 C80.96604493 44.16764225 76.74362939 38.20619933 72.55419922 32.2199707 C71.66816493 30.95736791 70.76950061 29.70348415 69.85540771 28.46104431 C68.42163086 26.38818359 68.42163086 26.38818359 67.33760071 24.28799438 C65.91390448 21.81306957 64.65571042 20.18515396 62.42163086 18.38818359 C57.70415654 17.26205417 53.09949008 17.45591673 48.27319336 17.60693359 C47.06042725 17.61499023 45.84766113 17.62304688 44.59814453 17.63134766 C40.08035515 17.67311371 35.56343044 17.78480654 31.04663086 17.88818359 C20.94038086 18.05318359 10.83413086 18.21818359 0.42163086 18.38818359 Z " fill="#000000" transform="translate(378.578369140625,296.61181640625)"/>
<path d="M0 0 C6.44312848 5.74302624 10.43355893 11.42163101 11.30859375 20.0390625 C11.65874336 29.1005099 9.9180076 36.40843941 4.5 43.75 C-1.62383824 50.19533975 -9.3897798 53.34917958 -18.1875 53.625 C-27.22568394 53.17756515 -33.59556622 50.18569316 -40.20703125 44.0625 C-46.18198057 37.18935569 -48.58946207 28.98929655 -48 20 C-46.47577874 11.56784017 -42.80713565 4.59657959 -35.859375 -0.6015625 C-24.17433686 -7.58807132 -11.36614712 -7.80611409 0 0 Z " fill="#000000" transform="translate(455,450)"/>
<path d="M0 0 C7.55971007 9.2876438 8.83079155 16.8732032 8.1875 28.6875 C7.05789039 35.77015223 2.38766059 40.98699897 -2.8125 45.6875 C-10.81776738 50.87240628 -18.49461109 51.39956575 -27.8125 50.6875 C-35.17585107 48.87933983 -42.08624506 43.97386615 -46.1640625 37.5625 C-50.41148553 29.25099594 -51.60231583 19.7792947 -48.94140625 10.72265625 C-45.04761878 2.43718717 -39.46437765 -3.24987375 -30.9296875 -6.59765625 C-19.68954289 -10.39276043 -9.0047158 -7.40387743 0 0 Z " fill="#000000" transform="translate(219.8125,452.3125)"/>
</svg>
